SplineFontDB: 3.2
FontName: SpaceMono-BoldItalic
FullName: Space Mono Bold Italic
FamilyName: Space Mono
Weight: Bold
Copyright: Copyright 2016 Google Inc. All Rights Reserved.
Version: 1.000;PS 1.000;hotconv 1.0.81;makeotf.lib2.5.63406
ItalicAngle: -12
UnderlinePosition: -100
UnderlineWidth: 50
Ascent: 800
Descent: 200
InvalidEm: 0
sfntRevision: 0x00010000
LayerCount: 2
Layer: 0 1 "Back" 1
Layer: 1 1 "Fore" 0
XUID: [1021 226 -1497385041 9924331]
StyleMap: 0x0021
FSType: 0
OS2Version: 3
OS2_WeightWidthSlopeOnly: 0
OS2_UseTypoMetrics: 0
CreationTime: 1464282557
ModificationTime: 1620304489
PfmFamily: 17
TTFWeight: 700
TTFWidth: 5
LineGap: 0
VLineGap: 0
Panose: 2 0 8 9 4 0 0 9 0 4
OS2TypoAscent: 1120
OS2TypoAOffset: 0
OS2TypoDescent: -361
OS2TypoDOffset: 0
OS2TypoLinegap: 0
OS2WinAscent: 1120
OS2WinAOffset: 0
OS2WinDescent: 361
OS2WinDOffset: 0
HheadAscent: 1120
HheadAOffset: 0
HheadDescent: -361
HheadDOffset: 0
OS2SubXSize: 650
OS2SubYSize: 600
OS2SubXOff: -16
OS2SubYOff: 75
OS2SupXSize: 650
OS2SupYSize: 600
OS2SupXOff: 74
OS2SupYOff: 350
OS2StrikeYSize: 50
OS2StrikeYPos: 297
OS2CapHeight: 700
OS2XHeight: 496
OS2Vendor: 'CF  '
OS2CodePages: 20000193.00000000
OS2UnicodeRanges: 20000007.00000001.00000000.00000000
Lookup: 1 0 0 "'aalt' Access All Alternates in Latin lookup 0" { "'aalt' Access All Alternates in Latin lookup 0 subtable"  } ['aalt' ('DFLT' <'dflt' > 'latn' <'CAT ' 'MOL ' 'NLD ' 'ROM ' 'dflt' > ) ]
Lookup: 3 0 0 "'aalt' Access All Alternates in Latin lookup 1" { "'aalt' Access All Alternates in Latin lookup 1 subtable"  } ['aalt' ('DFLT' <'dflt' > 'latn' <'CAT ' 'MOL ' 'NLD ' 'ROM ' 'dflt' > ) ]
Lookup: 1 0 0 "'ss01' Style Set 1 in Latin lookup 2" { "'ss01' Style Set 1 in Latin lookup 2 subtable"  } ['ss01' ('DFLT' <'dflt' > 'latn' <'CAT ' 'MOL ' 'NLD ' 'ROM ' 'dflt' > ) ]
Lookup: 1 0 0 "'ss02' Style Set 2 in Latin lookup 3" { "'ss02' Style Set 2 in Latin lookup 3 subtable"  } ['ss02' ('DFLT' <'dflt' > 'latn' <'CAT ' 'MOL ' 'NLD ' 'ROM ' 'dflt' > ) ]

StartChar: A
Encoding: 65 65 4
Width: 612
Flags: W
LayerCount: 2
Fore
SplineSet
388 150 m 1,0,-1
 157 150 l 1,1,-1
 93 0 l 1,2,-1
 -48 0 l 1,3,-1
 260 700 l 1,4,-1
 504 700 l 1,5,-1
 521 0 l 1,6,-1
 390 0 l 1,7,-1
 388 150 l 1,0,-1
210 276 m 1,8,-1
 386 276 l 1,9,-1
 381 634 l 1,10,-1
 363 634 l 1,11,-1
 210 276 l 1,8,-1
EndSplineSet
EndChar

StartChar: B
Encoding: 66 66 5
Width: 612
Flags: W
LayerCount: 2
Fore
SplineSet
2 126 m 1,0,-1
 68 126 l 1,1,-1
 163 574 l 1,2,-1
 97 574 l 1,3,-1
 97 700 l 1,4,-1
 396 700 l 2,5,6
 446 700 446 700 483 687.5 c 128,-1,7
 520 675 520 675 544 653 c 128,-1,8
 568 631 568 631 579.5 601 c 128,-1,9
 591 571 591 571 591 537 c 0,10,11
 591 499 591 499 578.5 469.5 c 128,-1,12
 566 440 566 440 544 418 c 128,-1,13
 522 396 522 396 493.5 381 c 128,-1,14
 465 366 465 366 432 358 c 1,15,-1
 432 340 l 1,16,17
 472 328 472 328 497 297 c 128,-1,18
 522 266 522 266 522 210 c 0,19,20
 522 166 522 166 503.5 128 c 128,-1,21
 485 90 485 90 452 61.5 c 128,-1,22
 419 33 419 33 373.5 16.5 c 128,-1,23
 328 0 328 0 274 0 c 2,24,-1
 2 0 l 1,25,-1
 2 126 l 1,0,-1
198 126 m 1,26,-1
 284 126 l 2,27,28
 333 126 333 126 365.5 150 c 128,-1,29
 398 174 398 174 398 219 c 0,30,31
 398 256 398 256 376.5 272 c 128,-1,32
 355 288 355 288 318 288 c 2,33,-1
 232 288 l 1,34,-1
 198 126 l 1,26,-1
259 414 m 1,35,-1
 345 414 l 2,36,37
 397 414 397 414 427.5 437.5 c 128,-1,38
 458 461 458 461 458 507 c 0,39,40
 458 540 458 540 437 557 c 128,-1,41
 416 574 416 574 379 574 c 2,42,-1
 293 574 l 1,43,-1
 259 414 l 1,35,-1
EndSplineSet
Substitution2: "'ss01' Style Set 1 in Latin lookup 2 subtable" B.alt
Substitution2: "'aalt' Access All Alternates in Latin lookup 0 subtable" B.alt
EndChar

StartChar: C
Encoding: 67 67 6
Width: 612
Flags: W
LayerCount: 2
Fore
SplineSet
255 106 m 0,0,1
 292 106 292 106 318.5 118 c 128,-1,2
 345 130 345 130 363 149.5 c 128,-1,3
 381 169 381 169 391.5 194.5 c 128,-1,4
 402 220 402 220 408 246 c 2,5,-1
 412 264 l 1,6,-1
 544 264 l 1,7,-1
 540 246 l 2,8,9
 526 181 526 181 502 132.5 c 128,-1,10
 478 84 478 84 441 51.5 c 128,-1,11
 404 19 404 19 353 2.5 c 128,-1,12
 302 -14 302 -14 233 -14 c 0,13,14
 186 -14 186 -14 147 0 c 128,-1,15
 108 14 108 14 80 41 c 128,-1,16
 52 68 52 68 36.5 106.5 c 128,-1,17
 21 145 21 145 21 195 c 0,18,19
 21 213 21 213 23 231 c 128,-1,20
 25 249 25 249 30 272 c 2,21,-1
 63 428 l 2,22,23
 94 573 94 573 173 643.5 c 128,-1,24
 252 714 252 714 379 714 c 0,25,26
 429 714 429 714 468.5 698 c 128,-1,27
 508 682 508 682 535.5 654.5 c 128,-1,28
 563 627 563 627 577.5 590 c 128,-1,29
 592 553 592 553 592 511 c 0,30,31
 592 497 592 497 590 483 c 128,-1,32
 588 469 588 469 585 454 c 2,33,-1
 581 436 l 1,34,-1
 449 436 l 1,35,-1
 453 454 l 2,36,37
 459 478 459 478 459 500 c 0,38,39
 459 539 459 539 436.5 566.5 c 128,-1,40
 414 594 414 594 358 594 c 0,41,42
 325 594 325 594 298 581.5 c 128,-1,43
 271 569 271 569 251 547.5 c 128,-1,44
 231 526 231 526 217.5 497.5 c 128,-1,45
 204 469 204 469 197 438 c 2,46,-1
 160 262 l 2,47,48
 157 247 157 247 155 232.5 c 128,-1,49
 153 218 153 218 153 205 c 0,50,51
 153 160 153 160 176.5 133 c 128,-1,52
 200 106 200 106 255 106 c 0,0,1
EndSplineSet
EndChar

StartChar: D
Encoding: 68 68 7
Width: 612
Flags: W
LayerCount: 2
Fore
SplineSet
103 700 m 1,0,-1
 368 700 l 2,1,2
 470 700 470 700 526 648.5 c 128,-1,3
 582 597 582 597 582 512 c 0,4,5
 582 498 582 498 580 483 c 128,-1,6
 578 468 578 468 575 452 c 2,7,-1
 531 242 l 2,8,9
 517 178 517 178 493 132.5 c 128,-1,10
 469 87 469 87 431.5 57.5 c 128,-1,11
 394 28 394 28 342.5 14 c 128,-1,12
 291 0 291 0 223 0 c 2,13,-1
 2 0 l 1,14,-1
 2 126 l 1,15,-1
 74 126 l 1,16,-1
 169 574 l 1,17,-1
 103 574 l 1,18,-1
 103 700 l 1,0,-1
250 126 m 2,19,20
 319 126 319 126 353.5 158.5 c 128,-1,21
 388 191 388 191 402 260 c 2,22,-1
 443 452 l 2,23,24
 445 460 445 460 446.5 470.5 c 128,-1,25
 448 481 448 481 448 490 c 0,26,27
 448 531 448 531 423 552.5 c 128,-1,28
 398 574 398 574 345 574 c 2,29,-1
 301 574 l 1,30,-1
 206 126 l 1,31,-1
 250 126 l 2,19,20
EndSplineSet
Substitution2: "'ss01' Style Set 1 in Latin lookup 2 subtable" D.alt
Substitution2: "'aalt' Access All Alternates in Latin lookup 0 subtable" D.alt
EndChar

StartChar: E
Encoding: 69 69 8
Width: 612
Flags: W
LayerCount: 2
Fore
SplineSet
18 12 m 1,0,-1
 164 700 l 1,1,-1
 579 700 l 1,2,-1
 579 574 l 1,3,-1
 269 574 l 1,4,-1
 235 414 l 1,5,-1
 506 414 l 1,6,-1
 506 288 l 1,7,-1
 208 288 l 1,8,-1
 174 126 l 1,9,-1
 469 126 l 1,10,-1
 469 0 l 1,11,-1
 18 0 l 1,12,-1
 18 12 l 1,0,-1
EndSplineSet
EndChar

StartChar: F
Encoding: 70 70 9
Width: 612
Flags: W
LayerCount: 2
Fore
SplineSet
165 700 m 1,0,-1
 586 700 l 1,1,-1
 586 574 l 1,2,-1
 270 574 l 1,3,-1
 236 414 l 1,4,-1
 519 414 l 1,5,-1
 519 288 l 1,6,-1
 209 288 l 1,7,-1
 148 0 l 1,8,-1
 16 0 l 1,9,-1
 165 700 l 1,0,-1
EndSplineSet
EndChar

StartChar: G
Encoding: 71 71 10
Width: 612
Flags: W
LayerCount: 2
Fore
SplineSet
252 354 m 1,0,-1
 561 354 l 1,1,-1
 561 342 l 1,2,-1
 489 0 l 1,3,-1
 369 0 l 1,4,-1
 386 78 l 1,5,-1
 368 78 l 1,6,7
 348 39 348 39 308 12.5 c 128,-1,8
 268 -14 268 -14 200 -14 c 0,9,10
 161 -14 161 -14 128 -1.5 c 128,-1,11
 95 11 95 11 71 36 c 128,-1,12
 47 61 47 61 33.5 97.5 c 128,-1,13
 20 134 20 134 20 182 c 0,14,15
 20 221 20 221 30 268 c 2,16,-1
 65 432 l 2,17,18
 96 577 96 577 175.5 645.5 c 128,-1,19
 255 714 255 714 382 714 c 0,20,21
 432 714 432 714 471.5 698.5 c 128,-1,22
 511 683 511 683 538 656 c 128,-1,23
 565 629 565 629 579.5 593.5 c 128,-1,24
 594 558 594 558 594 518 c 0,25,26
 594 504 594 504 592 488.5 c 128,-1,27
 590 473 590 473 587 460 c 2,28,-1
 584 448 l 1,29,-1
 452 448 l 1,30,-1
 455 460 l 2,31,32
 458 472 458 472 459 481 c 128,-1,33
 460 490 460 490 460 499 c 0,34,35
 460 541 460 541 434 564.5 c 128,-1,36
 408 588 408 588 358 588 c 0,37,38
 330 588 330 588 305 579 c 128,-1,39
 280 570 280 570 258.5 550.5 c 128,-1,40
 237 531 237 531 221 499.5 c 128,-1,41
 205 468 205 468 195 422 c 2,42,-1
 163 274 l 2,43,44
 159 256 159 256 158 244 c 128,-1,45
 157 232 157 232 157 220 c 0,46,47
 157 166 157 166 185 139 c 128,-1,48
 213 112 213 112 261 112 c 0,49,50
 320 112 320 112 357.5 143.5 c 128,-1,51
 395 175 395 175 406 228 c 1,52,-1
 252 228 l 1,53,-1
 252 354 l 1,0,-1
EndSplineSet
EndChar

StartChar: H
Encoding: 72 72 11
Width: 612
Flags: W
LayerCount: 2
Fore
SplineSet
148 700 m 1,0,-1
 280 700 l 1,1,-1
 219 414 l 1,2,-1
 419 414 l 1,3,-1
 480 700 l 1,4,-1
 612 700 l 1,5,-1
 463 0 l 1,6,-1
 331 0 l 1,7,-1
 392 288 l 1,8,-1
 192 288 l 1,9,-1
 131 0 l 1,10,-1
 0 0 l 1,11,-1
 148 700 l 1,0,-1
EndSplineSet
EndChar

StartChar: I
Encoding: 73 73 12
Width: 612
Flags: W
LayerCount: 2
Fore
SplineSet
125 700 m 1,0,-1
 581 700 l 1,1,-1
 581 574 l 1,2,-1
 419 574 l 1,3,-1
 324 126 l 1,4,-1
 486 126 l 1,5,-1
 486 0 l 1,6,-1
 30 0 l 1,7,-1
 30 126 l 1,8,-1
 192 126 l 1,9,-1
 287 574 l 1,10,-1
 125 574 l 1,11,-1
 125 700 l 1,0,-1
EndSplineSet
EndChar

StartChar: J
Encoding: 74 74 13
Width: 612
Flags: W
LayerCount: 2
Fore
SplineSet
476 210 m 2,0,1
 463 151 463 151 441.5 108.5 c 128,-1,2
 420 66 420 66 388 39 c 128,-1,3
 356 12 356 12 313 -1 c 128,-1,4
 270 -14 270 -14 215 -14 c 0,5,6
 173 -14 173 -14 138 -2 c 128,-1,7
 103 10 103 10 77.5 33 c 128,-1,8
 52 56 52 56 37.5 89.5 c 128,-1,9
 23 123 23 123 23 167 c 0,10,11
 23 198 23 198 30 229 c 2,12,-1
 40 276 l 1,13,-1
 172 276 l 1,14,-1
 158 210 l 2,15,16
 155 196 155 196 155 181 c 0,17,18
 155 147 155 147 175 128.5 c 128,-1,19
 195 110 195 110 233 110 c 0,20,21
 276 110 276 110 305 136 c 128,-1,22
 334 162 334 162 344 210 c 2,23,-1
 422 576 l 1,24,-1
 347 576 l 1,25,-1
 347 700 l 1,26,-1
 621 700 l 1,27,-1
 621 576 l 1,28,-1
 554 576 l 1,29,-1
 476 210 l 2,0,1
EndSplineSet
Substitution2: "'ss01' Style Set 1 in Latin lookup 2 subtable" J.alt
Substitution2: "'aalt' Access All Alternates in Latin lookup 0 subtable" J.alt
EndChar

StartChar: K
Encoding: 75 75 14
Width: 612
Flags: W
LayerCount: 2
Fore
SplineSet
128 0 m 1,0,-1
 -4 0 l 1,1,-1
 145 700 l 1,2,-1
 277 700 l 1,3,-1
 216 413 l 1,4,-1
 240 413 l 1,5,-1
 466 700 l 1,6,-1
 620 700 l 1,7,-1
 620 688 l 1,8,-1
 354 356 l 1,9,-1
 354 338 l 1,10,-1
 522 6 l 1,11,-1
 522 0 l 1,12,-1
 376 0 l 1,13,-1
 230 287 l 1,14,-1
 188 287 l 1,15,-1
 128 0 l 1,0,-1
EndSplineSet
EndChar

StartChar: L
Encoding: 76 76 15
Width: 612
Flags: W
LayerCount: 2
Fore
SplineSet
15 12 m 1,0,-1
 161 700 l 1,1,-1
 293 700 l 1,2,-1
 171 126 l 1,3,-1
 475 126 l 1,4,-1
 475 0 l 1,5,-1
 15 0 l 1,6,-1
 15 12 l 1,0,-1
EndSplineSet
EndChar

StartChar: M
Encoding: 77 77 16
Width: 612
Flags: W
LayerCount: 2
Fore
SplineSet
114 700 m 1,0,-1
 328 700 l 1,1,-1
 260 198 l 1,2,-1
 236 84 l 1,3,-1
 260 84 l 1,4,-1
 286 204 l 1,5,-1
 426 700 l 1,6,-1
 646 700 l 1,7,-1
 497 0 l 1,8,-1
 383 0 l 1,9,-1
 481 460 l 1,10,-1
 526 616 l 1,11,-1
 502 616 l 1,12,-1
 323 0 l 1,13,-1
 144 0 l 1,14,-1
 223 616 l 1,15,-1
 199 616 l 1,16,-1
 179 466 l 1,17,-1
 79 0 l 1,18,-1
 -34 0 l 1,19,-1
 114 700 l 1,0,-1
EndSplineSet
EndChar

StartChar: N
Encoding: 78 78 17
Width: 612
Flags: W
LayerCount: 2
Fore
SplineSet
340 66 m 1,0,-1
 358 66 l 1,1,-1
 493 700 l 1,2,-1
 619 700 l 1,3,-1
 470 0 l 1,4,-1
 224 0 l 1,5,-1
 271 634 l 1,6,-1
 253 634 l 1,7,-1
 118 0 l 1,8,-1
 -7 0 l 1,9,-1
 141 700 l 1,10,-1
 387 700 l 1,11,-1
 340 66 l 1,0,-1
EndSplineSet
EndChar

StartChar: O
Encoding: 79 79 18
Width: 612
Flags: W
LayerCount: 2
Fore
SplineSet
65 428 m 2,0,1
 96 576 96 576 168.5 645 c 128,-1,2
 241 714 241 714 368 714 c 0,3,4
 421 714 421 714 462 697.5 c 128,-1,5
 503 681 503 681 531 651.5 c 128,-1,6
 559 622 559 622 573.5 582 c 128,-1,7
 588 542 588 542 588 496 c 0,8,9
 588 479 588 479 586.5 462 c 128,-1,10
 585 445 585 445 581 428 c 2,11,-1
 548 272 l 2,12,13
 517 124 517 124 444.5 55 c 128,-1,14
 372 -14 372 -14 245 -14 c 0,15,16
 192 -14 192 -14 151 2.5 c 128,-1,17
 110 19 110 19 82 48.5 c 128,-1,18
 54 78 54 78 39.5 117.5 c 128,-1,19
 25 157 25 157 25 204 c 0,20,21
 25 221 25 221 26.5 238 c 128,-1,22
 28 255 28 255 32 272 c 2,23,-1
 65 428 l 2,0,1
257 106 m 0,24,25
 291 106 291 106 317 118.5 c 128,-1,26
 343 131 343 131 362.5 152 c 128,-1,27
 382 173 382 173 394.5 202 c 128,-1,28
 407 231 407 231 414 264 c 2,29,-1
 451 436 l 2,30,31
 454 452 454 452 455.5 463.5 c 128,-1,32
 457 475 457 475 457 486 c 0,33,34
 457 537 457 537 430.5 565.5 c 128,-1,35
 404 594 404 594 356 594 c 0,36,37
 322 594 322 594 296 581.5 c 128,-1,38
 270 569 270 569 250.5 548 c 128,-1,39
 231 527 231 527 218.5 498 c 128,-1,40
 206 469 206 469 199 436 c 2,41,-1
 162 264 l 2,42,43
 156 237 156 237 156 214 c 0,44,45
 156 163 156 163 182.5 134.5 c 128,-1,46
 209 106 209 106 257 106 c 0,24,25
EndSplineSet
EndChar

StartChar: P
Encoding: 80 80 19
Width: 612
Flags: W
LayerCount: 2
Fore
SplineSet
187 264 m 1,0,-1
 131 0 l 1,1,-1
 0 0 l 1,2,-1
 148 700 l 1,3,-1
 398 700 l 2,4,5
 442 700 442 700 477.5 686 c 128,-1,6
 513 672 513 672 538 647 c 128,-1,7
 563 622 563 622 576.5 588 c 128,-1,8
 590 554 590 554 590 514 c 0,9,10
 590 458 590 458 571 412 c 128,-1,11
 552 366 552 366 517 333 c 128,-1,12
 482 300 482 300 433 282 c 128,-1,13
 384 264 384 264 324 264 c 2,14,-1
 187 264 l 1,0,-1
214 390 m 1,15,-1
 336 390 l 2,16,17
 387 390 387 390 421 420 c 128,-1,18
 455 450 455 450 455 498 c 0,19,20
 455 535 455 535 431.5 554.5 c 128,-1,21
 408 574 408 574 370 574 c 2,22,-1
 253 574 l 1,23,-1
 214 390 l 1,15,-1
EndSplineSet
EndChar

StartChar: Q
Encoding: 81 81 20
Width: 612
Flags: W
LayerCount: 2
Fore
SplineSet
65 428 m 2,0,1
 96 576 96 576 168.5 645 c 128,-1,2
 241 714 241 714 368 714 c 0,3,4
 421 714 421 714 462 697.5 c 128,-1,5
 503 681 503 681 531 651.5 c 128,-1,6
 559 622 559 622 573.5 582 c 128,-1,7
 588 542 588 542 588 496 c 0,8,9
 588 479 588 479 586.5 462 c 128,-1,10
 585 445 585 445 581 428 c 2,11,-1
 548 272 l 2,12,13
 519 133 519 133 453 64 c 128,-1,14
 387 -5 387 -5 275 -13 c 1,15,-1
 272 -26 l 2,16,17
 271 -31 271 -31 271 -35 c 0,18,19
 271 -54 271 -54 293 -54 c 2,20,-1
 349 -54 l 1,21,-1
 349 -174 l 1,22,-1
 230 -174 l 2,23,24
 188 -174 188 -174 162 -150.5 c 128,-1,25
 136 -127 136 -127 136 -90 c 0,26,27
 136 -82 136 -82 137 -75 c 128,-1,28
 138 -68 138 -68 140 -60 c 2,29,-1
 154 1 l 1,30,31
 91 24 91 24 58 78 c 128,-1,32
 25 132 25 132 25 204 c 0,33,34
 25 221 25 221 26.5 238 c 128,-1,35
 28 255 28 255 32 272 c 2,36,-1
 65 428 l 2,0,1
257 106 m 0,37,38
 291 106 291 106 317 118.5 c 128,-1,39
 343 131 343 131 362.5 152 c 128,-1,40
 382 173 382 173 394.5 202 c 128,-1,41
 407 231 407 231 414 264 c 2,42,-1
 451 436 l 2,43,44
 454 452 454 452 455.5 463.5 c 128,-1,45
 457 475 457 475 457 486 c 0,46,47
 457 537 457 537 430.5 565.5 c 128,-1,48
 404 594 404 594 356 594 c 0,49,50
 322 594 322 594 296 581.5 c 128,-1,51
 270 569 270 569 250.5 548 c 128,-1,52
 231 527 231 527 218.5 498 c 128,-1,53
 206 469 206 469 199 436 c 2,54,-1
 162 264 l 2,55,56
 156 237 156 237 156 214 c 0,57,58
 156 163 156 163 182.5 134.5 c 128,-1,59
 209 106 209 106 257 106 c 0,37,38
EndSplineSet
EndChar

StartChar: R
Encoding: 82 82 21
Width: 612
Flags: W
LayerCount: 2
Fore
SplineSet
464 0 m 1,0,-1
 330 0 l 1,1,-1
 375 210 l 2,2,3
 377 220 377 220 377 226 c 0,4,5
 377 243 377 243 366 253.5 c 128,-1,6
 355 264 355 264 332 264 c 2,7,-1
 187 264 l 1,8,-1
 131 0 l 1,9,-1
 0 0 l 1,10,-1
 148 700 l 1,11,-1
 394 700 l 2,12,13
 443 700 443 700 480.5 686.5 c 128,-1,14
 518 673 518 673 543.5 650.5 c 128,-1,15
 569 628 569 628 581.5 597 c 128,-1,16
 594 566 594 566 594 532 c 0,17,18
 594 459 594 459 560.5 413.5 c 128,-1,19
 527 368 527 368 458 345 c 1,20,-1
 458 327 l 1,21,22
 487 324 487 324 502.5 306.5 c 128,-1,23
 518 289 518 289 518 262 c 0,24,25
 518 252 518 252 516 242 c 2,26,-1
 464 0 l 1,0,-1
214 390 m 1,27,-1
 334 390 l 2,28,29
 387 390 387 390 421 418 c 128,-1,30
 455 446 455 446 455 494 c 0,31,32
 455 532 455 532 434.5 553 c 128,-1,33
 414 574 414 574 372 574 c 2,34,-1
 253 574 l 1,35,-1
 214 390 l 1,27,-1
EndSplineSet
EndChar

StartChar: S
Encoding: 83 83 22
Width: 612
Flags: W
LayerCount: 2
Fore
SplineSet
457 475 m 2,0,1
 460 490 460 490 460 502 c 0,2,3
 460 541 460 541 432 565.5 c 128,-1,4
 404 590 404 590 346 590 c 0,5,6
 323 590 323 590 301 585 c 128,-1,7
 279 580 279 580 262 569.5 c 128,-1,8
 245 559 245 559 235 543 c 128,-1,9
 225 527 225 527 225 506 c 0,10,11
 225 471 225 471 254.5 451 c 128,-1,12
 284 431 284 431 350 420 c 0,13,14
 443 405 443 405 496.5 360.5 c 128,-1,15
 550 316 550 316 550 231 c 0,16,17
 550 174 550 174 529.5 129 c 128,-1,18
 509 84 509 84 471.5 52 c 128,-1,19
 434 20 434 20 381 3 c 128,-1,20
 328 -14 328 -14 262 -14 c 0,21,22
 199 -14 199 -14 152 2.5 c 128,-1,23
 105 19 105 19 74.5 47.5 c 128,-1,24
 44 76 44 76 29 114 c 128,-1,25
 14 152 14 152 14 196 c 0,26,27
 14 209 14 209 15 222 c 128,-1,28
 16 235 16 235 19 249 c 2,29,-1
 24 272 l 1,30,-1
 156 272 l 1,31,-1
 152 255 l 2,32,33
 148 236 148 236 148 212 c 0,34,35
 148 164 148 164 178.5 137 c 128,-1,36
 209 110 209 110 270 110 c 0,37,38
 336 110 336 110 373 137.5 c 128,-1,39
 410 165 410 165 410 213 c 0,40,41
 410 251 410 251 378.5 272 c 128,-1,42
 347 293 347 293 273 304 c 0,43,44
 238 309 238 309 204.5 322 c 128,-1,45
 171 335 171 335 145 358 c 128,-1,46
 119 381 119 381 103 414.5 c 128,-1,47
 87 448 87 448 87 494 c 0,48,49
 87 541 87 541 104.5 581.5 c 128,-1,50
 122 622 122 622 156.5 651.5 c 128,-1,51
 191 681 191 681 241.5 697.5 c 128,-1,52
 292 714 292 714 358 714 c 0,53,54
 414 714 414 714 458 700 c 128,-1,55
 502 686 502 686 532.5 661 c 128,-1,56
 563 636 563 636 579 601.5 c 128,-1,57
 595 567 595 567 595 527 c 0,58,59
 595 516 595 516 594 505 c 128,-1,60
 593 494 593 494 590 480 c 2,61,-1
 586 462 l 1,62,-1
 454 462 l 1,63,-1
 457 475 l 2,0,1
EndSplineSet
EndChar

StartChar: T
Encoding: 84 84 23
Width: 612
Flags: W
LayerCount: 2
Fore
SplineSet
100 700 m 1,0,-1
 604 700 l 1,1,-1
 604 574 l 1,2,-1
 418 574 l 1,3,-1
 296 0 l 1,4,-1
 164 0 l 1,5,-1
 286 574 l 1,6,-1
 100 574 l 1,7,-1
 100 700 l 1,0,-1
EndSplineSet
EndChar

StartChar: U
Encoding: 85 85 24
Width: 612
Flags: W
LayerCount: 2
Fore
SplineSet
626 700 m 1,0,-1
 529 242 l 2,1,2
 515 174 515 174 491.5 126 c 128,-1,3
 468 78 468 78 433 46.5 c 128,-1,4
 398 15 398 15 351.5 0.5 c 128,-1,5
 305 -14 305 -14 244 -14 c 0,6,7
 199 -14 199 -14 160 -0.5 c 128,-1,8
 121 13 121 13 93 38.5 c 128,-1,9
 65 64 65 64 49 101.5 c 128,-1,10
 33 139 33 139 33 187 c 0,11,12
 33 203 33 203 34 218.5 c 128,-1,13
 35 234 35 234 40 254 c 2,14,-1
 134 700 l 1,15,-1
 266 700 l 1,16,-1
 169 242 l 2,17,18
 167 231 167 231 165.5 221 c 128,-1,19
 164 211 164 211 164 201 c 0,20,21
 164 158 164 158 187.5 134 c 128,-1,22
 211 110 211 110 258 110 c 0,23,24
 318 110 318 110 350.5 142 c 128,-1,25
 383 174 383 174 397 242 c 2,26,-1
 494 700 l 1,27,-1
 626 700 l 1,0,-1
EndSplineSet
EndChar

StartChar: V
Encoding: 86 86 25
Width: 612
Flags: W
LayerCount: 2
Fore
SplineSet
60 700 m 1,0,-1
 194 700 l 1,1,-1
 217 66 l 1,2,-1
 235 66 l 1,3,-1
 504 700 l 1,4,-1
 642 700 l 1,5,-1
 642 688 l 1,6,-1
 340 0 l 1,7,-1
 94 0 l 1,8,-1
 60 700 l 1,0,-1
EndSplineSet
EndChar

StartChar: W
Encoding: 87 87 26
Width: 612
Flags: W
LayerCount: 2
Fore
SplineSet
505 0 m 1,0,-1
 286 0 l 1,1,-1
 353 508 l 1,2,-1
 375 628 l 1,3,-1
 351 628 l 1,4,-1
 331 520 l 1,5,-1
 196 0 l 1,6,-1
 -20 0 l 1,7,-1
 75 700 l 1,8,-1
 195 700 l 1,9,-1
 114 192 l 1,10,-1
 91 78 l 1,11,-1
 115 78 l 1,12,-1
 136 180 l 1,13,-1
 272 700 l 1,14,-1
 482 700 l 1,15,-1
 414 180 l 1,16,-1
 393 78 l 1,17,-1
 417 78 l 1,18,-1
 440 192 l 1,19,-1
 558 700 l 1,20,-1
 678 700 l 1,21,-1
 505 0 l 1,0,-1
EndSplineSet
EndChar

StartChar: X
Encoding: 88 88 27
Width: 612
Flags: W
LayerCount: 2
Fore
SplineSet
652 687 m 1,0,-1
 436 354 l 1,1,-1
 436 336 l 1,2,-1
 526 0 l 1,3,-1
 386 0 l 1,4,-1
 314 288 l 1,5,-1
 296 288 l 1,6,-1
 122 0 l 1,7,-1
 -25 0 l 1,8,-1
 -25 12 l 1,9,-1
 190 348 l 1,10,-1
 190 366 l 1,11,-1
 98 700 l 1,12,-1
 236 700 l 1,13,-1
 312 414 l 1,14,-1
 330 414 l 1,15,-1
 504 700 l 1,16,-1
 652 700 l 1,17,-1
 652 687 l 1,0,-1
EndSplineSet
EndChar

StartChar: Y
Encoding: 89 89 28
Width: 612
Flags: W
LayerCount: 2
Fore
SplineSet
664 688 m 1,0,-1
 374 246 l 1,1,-1
 344 246 l 1,2,-1
 292 0 l 1,3,-1
 160 0 l 1,4,-1
 212 246 l 1,5,-1
 182 246 l 1,6,-1
 72 700 l 1,7,-1
 212 700 l 1,8,-1
 288 366 l 1,9,-1
 306 366 l 1,10,-1
 520 700 l 1,11,-1
 664 700 l 1,12,-1
 664 688 l 1,0,-1
EndSplineSet
EndChar

StartChar: Z
Encoding: 90 90 29
Width: 612
Flags: W
LayerCount: 2
Fore
SplineSet
126 700 m 1,0,-1
 600 700 l 1,1,-1
 600 484 l 1,2,-1
 121 144 l 1,3,-1
 121 126 l 1,4,-1
 505 126 l 1,5,-1
 505 0 l 1,6,-1
 12 0 l 1,7,-1
 12 216 l 1,8,-1
 492 556 l 1,9,-1
 492 574 l 1,10,-1
 126 574 l 1,11,-1
 126 700 l 1,0,-1
EndSplineSet
EndChar

StartChar: a
Encoding: 97 97 30
Width: 612
Flags: W
LayerCount: 2
Fore
SplineSet
479 119 m 1,0,-1
 489 112 l 1,1,-1
 537 146 l 1,2,-1
 600 52 l 1,3,-1
 541 12 l 2,4,5
 502 -14 502 -14 459 -14 c 0,6,7
 421 -14 421 -14 391 7 c 128,-1,8
 361 28 361 28 353 66 c 1,9,-1
 335 66 l 1,10,11
 326 49 326 49 314 34.5 c 128,-1,12
 302 20 302 20 284.5 9.5 c 128,-1,13
 267 -1 267 -1 243.5 -7.5 c 128,-1,14
 220 -14 220 -14 188 -14 c 0,15,16
 149 -14 149 -14 116 1.5 c 128,-1,17
 83 17 83 17 58.5 44.5 c 128,-1,18
 34 72 34 72 20 109 c 128,-1,19
 6 146 6 146 6 190 c 0,20,21
 6 257 6 257 24 315 c 128,-1,22
 42 373 42 373 76 416.5 c 128,-1,23
 110 460 110 460 159.5 485 c 128,-1,24
 209 510 209 510 271 510 c 0,25,26
 326 510 326 510 358 488 c 128,-1,27
 390 466 390 466 401 430 c 1,28,-1
 419 430 l 1,29,-1
 433 496 l 1,30,-1
 559 496 l 1,31,-1
 479 119 l 1,0,-1
237 106 m 0,32,33
 273 106 273 106 301 120.5 c 128,-1,34
 329 135 329 135 347.5 159 c 128,-1,35
 366 183 366 183 376 215.5 c 128,-1,36
 386 248 386 248 386 284 c 0,37,38
 386 331 386 331 359 360.5 c 128,-1,39
 332 390 332 390 287 390 c 0,40,41
 251 390 251 390 223 375.5 c 128,-1,42
 195 361 195 361 176 337 c 128,-1,43
 157 313 157 313 147 280.5 c 128,-1,44
 137 248 137 248 137 212 c 0,45,46
 137 170 137 170 161.5 138 c 128,-1,47
 186 106 186 106 237 106 c 0,32,33
EndSplineSet
Substitution2: "'ordn' Ordinals in Latin lookup 29 subtable" ordfeminine
Substitution2: "'ordn' Ordinals in Latin lookup 28 subtable" ordfeminine
Substitution2: "'ss02' Style Set 2 in Latin lookup 3 subtable" a.alt
AlternateSubs2: "'aalt' Access All Alternates in Latin lookup 1 subtable" a.alt ordfeminine
EndChar

StartChar: b
Encoding: 98 98 31
Width: 612
Flags: W
LayerCount: 2
Fore
SplineSet
297 714 m 1,0,-1
 235 424 l 1,1,-1
 253 424 l 1,2,3
 305 510 305 510 410 510 c 0,4,5
 487 510 487 510 532 458 c 128,-1,6
 577 406 577 406 577 320 c 0,7,8
 577 243 577 243 555.5 181 c 128,-1,9
 534 119 534 119 497 75.5 c 128,-1,10
 460 32 460 32 410 9 c 128,-1,11
 360 -14 360 -14 304 -14 c 0,12,13
 271 -14 271 -14 248.5 -7 c 128,-1,14
 226 0 226 0 211.5 12 c 128,-1,15
 197 24 197 24 189 39.5 c 128,-1,16
 181 55 181 55 178 72 c 1,17,-1
 160 72 l 1,18,-1
 145 0 l 1,19,-1
 20 0 l 1,20,-1
 170 714 l 1,21,-1
 297 714 l 1,0,-1
288 106 m 0,22,23
 324 107 324 107 353 121.5 c 128,-1,24
 382 136 382 136 403 161 c 128,-1,25
 424 186 424 186 435 218.5 c 128,-1,26
 446 251 446 251 446 288 c 0,27,28
 446 335 446 335 418.5 362.5 c 128,-1,29
 391 390 391 390 344 390 c 0,30,31
 309 390 309 390 281.5 376 c 128,-1,32
 254 362 254 362 234 337.5 c 128,-1,33
 214 313 214 313 203.5 279.5 c 128,-1,34
 193 246 193 246 193 208 c 0,35,36
 193 160 193 160 218 133 c 128,-1,37
 243 106 243 106 288 106 c 0,22,23
EndSplineSet
EndChar

StartChar: c
Encoding: 99 99 32
Width: 612
Flags: W
LayerCount: 2
Fore
SplineSet
534 182 m 1,0,1
 506 93 506 93 434.5 39.5 c 128,-1,2
 363 -14 363 -14 243 -14 c 0,3,4
 199 -14 199 -14 160 0 c 128,-1,5
 121 14 121 14 92 42 c 128,-1,6
 63 70 63 70 46.5 111.5 c 128,-1,7
 30 153 30 153 30 208 c 0,8,9
 30 270 30 270 51.5 325 c 128,-1,10
 73 380 73 380 114 421 c 128,-1,11
 155 462 155 462 213 486 c 128,-1,12
 271 510 271 510 345 510 c 0,13,14
 399 510 399 510 440 494 c 128,-1,15
 481 478 481 478 508 450.5 c 128,-1,16
 535 423 535 423 549 386 c 128,-1,17
 563 349 563 349 563 308 c 1,18,-1
 435 283 l 1,19,20
 435 334 435 334 409.5 362 c 128,-1,21
 384 390 384 390 327 390 c 0,22,23
 291 390 291 390 260.5 376.5 c 128,-1,24
 230 363 230 363 207.5 339.5 c 128,-1,25
 185 316 185 316 172.5 284.5 c 128,-1,26
 160 253 160 253 160 217 c 0,27,28
 160 160 160 160 190 133 c 128,-1,29
 220 106 220 106 266 106 c 0,30,31
 329 106 329 106 364 134 c 128,-1,32
 399 162 399 162 417 213 c 1,33,-1
 534 182 l 1,0,1
EndSplineSet
EndChar

StartChar: d
Encoding: 100 100 33
Width: 612
Flags: W
LayerCount: 2
Fore
SplineSet
479 119 m 1,0,-1
 489 112 l 1,1,-1
 543 150 l 1,2,-1
 606 56 l 1,3,-1
 541 12 l 2,4,5
 520 -2 520 -2 499.5 -8 c 128,-1,6
 479 -14 479 -14 459 -14 c 0,7,8
 421 -14 421 -14 391 7 c 128,-1,9
 361 28 361 28 353 66 c 1,10,-1
 335 66 l 1,11,12
 326 49 326 49 314 34.5 c 128,-1,13
 302 20 302 20 284.5 9.5 c 128,-1,14
 267 -1 267 -1 243.5 -7.5 c 128,-1,15
 220 -14 220 -14 188 -14 c 0,16,17
 149 -14 149 -14 116 1.5 c 128,-1,18
 83 17 83 17 58.5 44.5 c 128,-1,19
 34 72 34 72 20 109 c 128,-1,20
 6 146 6 146 6 190 c 0,21,22
 6 257 6 257 24 315 c 128,-1,23
 42 373 42 373 76 416.5 c 128,-1,24
 110 460 110 460 159.5 485 c 128,-1,25
 209 510 209 510 271 510 c 0,26,27
 324 510 324 510 357 486 c 128,-1,28
 390 462 390 462 400 424 c 1,29,-1
 418 424 l 1,30,-1
 479 714 l 1,31,-1
 606 714 l 1,32,-1
 544 424 l 1,33,-1
 479 119 l 1,0,-1
237 106 m 0,34,35
 273 106 273 106 301 120.5 c 128,-1,36
 329 135 329 135 347.5 159 c 128,-1,37
 366 183 366 183 376 215.5 c 128,-1,38
 386 248 386 248 386 284 c 0,39,40
 386 331 386 331 359 360.5 c 128,-1,41
 332 390 332 390 287 390 c 0,42,43
 251 390 251 390 223 375.5 c 128,-1,44
 195 361 195 361 176 337 c 128,-1,45
 157 313 157 313 147 280.5 c 128,-1,46
 137 248 137 248 137 212 c 0,47,48
 137 170 137 170 161.5 138 c 128,-1,49
 186 106 186 106 237 106 c 0,34,35
EndSplineSet
EndChar

StartChar: e
Encoding: 101 101 34
Width: 612
Flags: W
LayerCount: 2
Fore
SplineSet
165 207 m 1,0,1
 163 199 163 199 163 190 c 0,2,3
 163 154 163 154 190.5 130 c 128,-1,4
 218 106 218 106 263 106 c 0,5,6
 310 106 310 106 338 123 c 128,-1,7
 366 140 366 140 381 163 c 1,8,-1
 481 100 l 1,9,10
 469 80 469 80 449.5 60 c 128,-1,11
 430 40 430 40 401.5 23.5 c 128,-1,12
 373 7 373 7 334.5 -3.5 c 128,-1,13
 296 -14 296 -14 245 -14 c 0,14,15
 199 -14 199 -14 160.5 0.5 c 128,-1,16
 122 15 122 15 94.5 40.5 c 128,-1,17
 67 66 67 66 51.5 101.5 c 128,-1,18
 36 137 36 137 36 180 c 0,19,20
 36 248 36 248 56.5 308 c 128,-1,21
 77 368 77 368 116 413 c 128,-1,22
 155 458 155 458 212 484 c 128,-1,23
 269 510 269 510 343 510 c 0,24,25
 395 510 395 510 433.5 493.5 c 128,-1,26
 472 477 472 477 497 449.5 c 128,-1,27
 522 422 522 422 534.5 387 c 128,-1,28
 547 352 547 352 547 315 c 0,29,30
 547 303 547 303 545.5 290.5 c 128,-1,31
 544 278 544 278 540 258 c 2,32,-1
 529 207 l 1,33,-1
 165 207 l 1,0,1
323 396 m 0,34,35
 276 396 276 396 241.5 372.5 c 128,-1,36
 207 349 207 349 190 315 c 1,37,-1
 424 315 l 1,38,39
 424 353 424 353 400.5 374.5 c 128,-1,40
 377 396 377 396 323 396 c 0,34,35
EndSplineSet
EndChar

StartChar: f
Encoding: 102 102 35
Width: 612
Flags: W
LayerCount: 2
Fore
SplineSet
239 376 m 1,0,-1
 98 376 l 1,1,-1
 98 496 l 1,2,-1
 265 496 l 1,3,-1
 287 598 l 2,4,5
 291 619 291 619 303 638 c 128,-1,6
 315 657 315 657 331.5 670.5 c 128,-1,7
 348 684 348 684 368.5 692 c 128,-1,8
 389 700 389 700 410 700 c 2,9,-1
 586 700 l 1,10,-1
 586 580 l 1,11,-1
 436 580 l 2,12,13
 409 580 409 580 403 550 c 2,14,-1
 391 496 l 1,15,-1
 560 496 l 1,16,-1
 560 376 l 1,17,-1
 365 376 l 1,18,-1
 254 -120 l 2,19,20
 243 -169 243 -169 213 -190.5 c 128,-1,21
 183 -212 183 -212 148 -212 c 0,22,23
 119 -212 119 -212 91.5 -198.5 c 128,-1,24
 64 -185 64 -185 49 -160 c 2,25,-1
 -14 -59 l 1,26,-1
 83 0 l 1,27,-1
 127 -76 l 1,28,-1
 139 -74 l 1,29,-1
 239 376 l 1,0,-1
EndSplineSet
EndChar

StartChar: g
Encoding: 103 103 36
Width: 612
Flags: W
LayerCount: 2
Fore
SplineSet
384 72 m 1,0,-1
 366 72 l 1,1,2
 355 55 355 55 341 39.5 c 128,-1,3
 327 24 327 24 307 12 c 128,-1,4
 287 0 287 0 259 -7 c 128,-1,5
 231 -14 231 -14 194 -14 c 0,6,7
 158 -14 158 -14 126.5 -2 c 128,-1,8
 95 10 95 10 72 34 c 128,-1,9
 49 58 49 58 35.5 94.5 c 128,-1,10
 22 131 22 131 22 180 c 0,11,12
 22 242 22 242 40.5 301.5 c 128,-1,13
 59 361 59 361 95 407.5 c 128,-1,14
 131 454 131 454 184.5 482 c 128,-1,15
 238 510 238 510 309 510 c 0,16,17
 370 510 370 510 401.5 486.5 c 128,-1,18
 433 463 433 463 441 424 c 1,19,-1
 459 424 l 1,20,-1
 474 496 l 1,21,-1
 600 496 l 1,22,-1
 469 -122 l 2,23,24
 461 -156 461 -156 435 -178 c 128,-1,25
 409 -200 409 -200 375 -200 c 2,26,-1
 67 -200 l 1,27,-1
 67 -80 l 1,28,-1
 325 -80 l 2,29,30
 352 -80 352 -80 358 -50 c 2,31,-1
 384 72 l 1,0,-1
259 106 m 0,32,33
 295 106 295 106 325.5 121 c 128,-1,34
 356 136 356 136 378.5 161 c 128,-1,35
 401 186 401 186 413.5 219 c 128,-1,36
 426 252 426 252 426 288 c 0,37,38
 426 336 426 336 398 363 c 128,-1,39
 370 390 370 390 319 390 c 0,40,41
 281 390 281 390 250 375 c 128,-1,42
 219 360 219 360 197.5 335.5 c 128,-1,43
 176 311 176 311 164 278.5 c 128,-1,44
 152 246 152 246 152 212 c 0,45,46
 152 159 152 159 181.5 132.5 c 128,-1,47
 211 106 211 106 259 106 c 0,32,33
EndSplineSet
Substitution2: "'ss02' Style Set 2 in Latin lookup 3 subtable" g.alt
Substitution2: "'aalt' Access All Alternates in Latin lookup 0 subtable" g.alt
EndChar

StartChar: h
Encoding: 104 104 37
Width: 612
Flags: W
LayerCount: 2
Fore
SplineSet
385 288 m 2,0,1
 387 299 387 299 388 305.5 c 128,-1,2
 389 312 389 312 389 320 c 0,3,4
 389 356 389 356 368 376 c 128,-1,5
 347 396 347 396 311 396 c 0,6,7
 260 396 260 396 227.5 360 c 128,-1,8
 195 324 195 324 182 264 c 2,9,-1
 126 0 l 1,10,-1
 0 0 l 1,11,-1
 152 714 l 1,12,-1
 278 714 l 1,13,-1
 217 428 l 1,14,-1
 235 428 l 1,15,16
 286 510 286 510 381 510 c 0,17,18
 443 510 443 510 482.5 473 c 128,-1,19
 522 436 522 436 522 365 c 0,20,21
 522 351 522 351 520 336.5 c 128,-1,22
 518 322 518 322 515 306 c 2,23,-1
 475 119 l 1,24,-1
 485 112 l 1,25,-1
 549 156 l 1,26,-1
 612 62 l 1,27,-1
 537 12 l 2,28,29
 499 -14 499 -14 456 -14 c 0,30,31
 434 -14 434 -14 414 -6.5 c 128,-1,32
 394 1 394 1 379 15 c 128,-1,33
 364 29 364 29 355 49 c 128,-1,34
 346 69 346 69 346 94 c 0,35,36
 346 107 346 107 350 126 c 2,37,-1
 385 288 l 2,0,1
EndSplineSet
EndChar

StartChar: i
Encoding: 105 105 38
Width: 612
Flags: W
LayerCount: 2
Fore
SplineSet
380 12 m 2,0,1
 360 -2 360 -2 339 -8 c 128,-1,2
 318 -14 318 -14 298 -14 c 0,3,4
 276 -14 276 -14 256 -6.5 c 128,-1,5
 236 1 236 1 221 14.5 c 128,-1,6
 206 28 206 28 197.5 47.5 c 128,-1,7
 189 67 189 67 189 91 c 0,8,9
 189 110 189 110 193 126 c 2,10,-1
 253 377 l 1,11,-1
 243 384 l 1,12,-1
 109 292 l 1,13,-1
 46 386 l 1,14,-1
 191 484 l 2,15,16
 211 498 211 498 232 504 c 128,-1,17
 253 510 253 510 273 510 c 0,18,19
 295 510 295 510 315 502.5 c 128,-1,20
 335 495 335 495 350 481.5 c 128,-1,21
 365 468 365 468 373.5 448.5 c 128,-1,22
 382 429 382 429 382 405 c 0,23,24
 382 386 382 386 378 370 c 2,25,-1
 318 119 l 1,26,-1
 328 112 l 1,27,-1
 462 204 l 1,28,-1
 525 110 l 1,29,-1
 380 12 l 2,0,1
467 643 m 256,30,31
 467 623 467 623 459.5 605.5 c 128,-1,32
 452 588 452 588 439 575.5 c 128,-1,33
 426 563 426 563 408.5 555.5 c 128,-1,34
 391 548 391 548 372 548 c 0,35,36
 352 548 352 548 335 555.5 c 128,-1,37
 318 563 318 563 305 575.5 c 128,-1,38
 292 588 292 588 284.5 605.5 c 128,-1,39
 277 623 277 623 277 643 c 256,40,41
 277 663 277 663 284.5 680.5 c 128,-1,42
 292 698 292 698 305 710.5 c 128,-1,43
 318 723 318 723 335 730.5 c 128,-1,44
 352 738 352 738 372 738 c 0,45,46
 391 738 391 738 408.5 730.5 c 128,-1,47
 426 723 426 723 439 710.5 c 128,-1,48
 452 698 452 698 459.5 680.5 c 128,-1,49
 467 663 467 663 467 643 c 256,30,31
EndSplineSet
Substitution2: "'ss02' Style Set 2 in Latin lookup 3 subtable" i.alt
Substitution2: "'aalt' Access All Alternates in Latin lookup 0 subtable" i.alt
EndChar

StartChar: j
Encoding: 106 106 39
Width: 612
Flags: W
LayerCount: 2
Fore
SplineSet
549 643 m 256,0,1
 549 623 549 623 541.5 605.5 c 128,-1,2
 534 588 534 588 521 575.5 c 128,-1,3
 508 563 508 563 490.5 555.5 c 128,-1,4
 473 548 473 548 454 548 c 0,5,6
 434 548 434 548 417 555.5 c 128,-1,7
 400 563 400 563 387 575.5 c 128,-1,8
 374 588 374 588 366.5 605.5 c 128,-1,9
 359 623 359 623 359 643 c 256,10,11
 359 663 359 663 366.5 680.5 c 128,-1,12
 374 698 374 698 387 710.5 c 128,-1,13
 400 723 400 723 417 730.5 c 128,-1,14
 434 738 434 738 454 738 c 0,15,16
 473 738 473 738 490.5 730.5 c 128,-1,17
 508 723 508 723 521 710.5 c 128,-1,18
 534 698 534 698 541.5 680.5 c 128,-1,19
 549 663 549 663 549 643 c 256,0,1
357 -98 m 2,20,21
 346 -150 346 -150 313 -175 c 128,-1,22
 280 -200 280 -200 235 -200 c 2,23,-1
 0 -200 l 1,24,-1
 0 -80 l 1,25,-1
 205 -80 l 2,26,27
 234 -80 234 -80 242 -47 c 2,28,-1
 336 377 l 1,29,-1
 326 384 l 1,30,-1
 192 292 l 1,31,-1
 129 386 l 1,32,-1
 274 484 l 2,33,34
 313 510 313 510 356 510 c 0,35,36
 378 510 378 510 397.5 502.5 c 128,-1,37
 417 495 417 495 432 481.5 c 128,-1,38
 447 468 447 468 455.5 447.5 c 128,-1,39
 464 427 464 427 464 402 c 0,40,41
 464 385 464 385 461 370 c 2,42,-1
 357 -98 l 2,20,21
EndSplineSet
Substitution2: "'ss02' Style Set 2 in Latin lookup 3 subtable" j.alt
Substitution2: "'aalt' Access All Alternates in Latin lookup 0 subtable" j.alt
EndChar

StartChar: k
Encoding: 107 107 40
Width: 612
Flags: W
LayerCount: 2
Fore
SplineSet
24 0 m 1,0,-1
 176 714 l 1,1,-1
 302 714 l 1,2,-1
 217 314 l 1,3,-1
 241 314 l 1,4,-1
 442 510 l 1,5,-1
 520 426 l 1,6,-1
 336 254 l 1,7,-1
 336 236 l 1,8,-1
 416 104 l 1,9,-1
 428 104 l 1,10,-1
 483 142 l 1,11,-1
 544 54 l 1,12,-1
 499 20 l 2,13,14
 474 1 474 1 450.5 -6.5 c 128,-1,15
 427 -14 427 -14 405 -14 c 0,16,17
 373 -14 373 -14 347 1.5 c 128,-1,18
 321 17 321 17 304 46 c 2,19,-1
 214 194 l 1,20,-1
 191 194 l 1,21,-1
 150 0 l 1,22,-1
 24 0 l 1,0,-1
EndSplineSet
EndChar

StartChar: l
Encoding: 108 108 41
Width: 612
Flags: W
LayerCount: 2
Fore
SplineSet
373 12 m 1,0,1
 353 -2 353 -2 332 -8 c 128,-1,2
 311 -14 311 -14 291 -14 c 0,3,4
 269 -14 269 -14 249 -6.5 c 128,-1,5
 229 1 229 1 214 14.5 c 128,-1,6
 199 28 199 28 190.5 47.5 c 128,-1,7
 182 67 182 67 182 91 c 0,8,9
 182 109 182 109 186 126 c 2,10,-1
 295 581 l 1,11,-1
 285 588 l 1,12,-1
 151 496 l 1,13,-1
 88 590 l 1,14,-1
 233 688 l 2,15,16
 253 702 253 702 274 708 c 128,-1,17
 295 714 295 714 315 714 c 0,18,19
 337 714 337 714 357 706.5 c 128,-1,20
 377 699 377 699 392 685.5 c 128,-1,21
 407 672 407 672 415.5 652.5 c 128,-1,22
 424 633 424 633 424 609 c 0,23,24
 424 593 424 593 420 574 c 2,25,-1
 311 119 l 1,26,-1
 321 112 l 1,27,-1
 455 204 l 1,28,-1
 518 110 l 1,29,-1
 373 12 l 1,30,-1
 373 12 l 1,0,1
EndSplineSet
Substitution2: "'ss02' Style Set 2 in Latin lookup 3 subtable" l.alt
Substitution2: "'aalt' Access All Alternates in Latin lookup 0 subtable" l.alt
EndChar

StartChar: m
Encoding: 109 109 42
Width: 612
Flags: W
LayerCount: 2
Fore
SplineSet
431 348 m 2,0,1
 433 356 433 356 433 362 c 0,2,3
 433 390 433 390 406 390 c 0,4,5
 390 390 390 390 382 379.5 c 128,-1,6
 374 369 374 369 371 354 c 2,7,-1
 295 0 l 1,8,-1
 169 0 l 1,9,-1
 243 348 l 2,10,11
 245 358 245 358 245 362 c 0,12,13
 245 390 245 390 219 390 c 0,14,15
 190 390 190 390 183 354 c 2,16,-1
 107 0 l 1,17,-1
 -18 0 l 1,18,-1
 87 496 l 1,19,-1
 213 496 l 1,20,-1
 203 448 l 1,21,-1
 221 448 l 1,22,23
 229 479 229 479 251 494.5 c 128,-1,24
 273 510 273 510 301 510 c 0,25,26
 334 510 334 510 351 492 c 128,-1,27
 368 474 368 474 373 448 c 1,28,-1
 391 448 l 1,29,30
 402 475 402 475 424.5 492.5 c 128,-1,31
 447 510 447 510 483 510 c 0,32,33
 525 510 525 510 547.5 483 c 128,-1,34
 570 456 570 456 570 418 c 0,35,36
 570 411 570 411 569.5 405.5 c 128,-1,37
 569 400 569 400 567 392 c 2,38,-1
 508 119 l 1,39,-1
 518 112 l 1,40,-1
 552 136 l 1,41,-1
 615 42 l 1,42,-1
 570 12 l 2,43,44
 550 -2 550 -2 529.5 -8 c 128,-1,45
 509 -14 509 -14 489 -14 c 0,46,47
 467 -14 467 -14 447.5 -6.5 c 128,-1,48
 428 1 428 1 413 15 c 128,-1,49
 398 29 398 29 389.5 49.5 c 128,-1,50
 381 70 381 70 381 96 c 0,51,52
 381 110 381 110 385 130 c 2,53,-1
 431 348 l 2,0,1
EndSplineSet
EndChar

StartChar: n
Encoding: 110 110 43
Width: 612
Flags: W
LayerCount: 2
Fore
SplineSet
379 288 m 2,0,1
 383 307 383 307 383 320 c 0,2,3
 383 356 383 356 362 376 c 128,-1,4
 341 396 341 396 305 396 c 0,5,6
 260 396 260 396 228 364 c 128,-1,7
 196 332 196 332 185 278 c 2,8,-1
 126 0 l 1,9,-1
 0 0 l 1,10,-1
 105 496 l 1,11,-1
 226 496 l 1,12,-1
 209 416 l 1,13,-1
 227 416 l 1,14,15
 251 466 251 466 290.5 488 c 128,-1,16
 330 510 330 510 378 510 c 0,17,18
 441 510 441 510 478.5 472 c 128,-1,19
 516 434 516 434 516 365 c 0,20,21
 516 349 516 349 514 335.5 c 128,-1,22
 512 322 512 322 509 306 c 2,23,-1
 469 119 l 1,24,-1
 479 112 l 1,25,-1
 522 142 l 1,26,-1
 585 48 l 1,27,-1
 531 12 l 2,28,29
 493 -14 493 -14 450 -14 c 0,30,31
 428 -14 428 -14 408 -6.5 c 128,-1,32
 388 1 388 1 373 14.5 c 128,-1,33
 358 28 358 28 349 47.5 c 128,-1,34
 340 67 340 67 340 92 c 0,35,36
 340 105 340 105 343 122 c 2,37,-1
 379 288 l 2,0,1
EndSplineSet
EndChar

StartChar: o
Encoding: 111 111 44
Width: 612
Flags: W
LayerCount: 2
Fore
SplineSet
558 310 m 0,0,1
 558 240 558 240 538 180.5 c 128,-1,2
 518 121 518 121 479 78 c 128,-1,3
 440 35 440 35 381.5 10.5 c 128,-1,4
 323 -14 323 -14 246 -14 c 0,5,6
 202 -14 202 -14 163.5 -1 c 128,-1,7
 125 12 125 12 96 37.5 c 128,-1,8
 67 63 67 63 50 100 c 128,-1,9
 33 137 33 137 33 184 c 0,10,11
 33 261 33 261 57 321.5 c 128,-1,12
 81 382 81 382 122.5 424 c 128,-1,13
 164 466 164 466 220.5 488 c 128,-1,14
 277 510 277 510 342 510 c 0,15,16
 389 510 389 510 429 495.5 c 128,-1,17
 469 481 469 481 497.5 455 c 128,-1,18
 526 429 526 429 542 392 c 128,-1,19
 558 355 558 355 558 310 c 0,0,1
265 104 m 0,20,21
 301 105 301 105 331.5 120 c 128,-1,22
 362 135 362 135 383.5 159.5 c 128,-1,23
 405 184 405 184 417 217 c 128,-1,24
 429 250 429 250 429 287 c 0,25,26
 429 339 429 339 401 365.5 c 128,-1,27
 373 392 373 392 326 392 c 0,28,29
 290 392 290 392 260 376.5 c 128,-1,30
 230 361 230 361 208 335.5 c 128,-1,31
 186 310 186 310 174 277 c 128,-1,32
 162 244 162 244 162 208 c 0,33,34
 162 157 162 157 190 130.5 c 128,-1,35
 218 104 218 104 265 104 c 0,20,21
EndSplineSet
Substitution2: "'ordn' Ordinals in Latin lookup 29 subtable" ordmasculine
Substitution2: "'ordn' Ordinals in Latin lookup 28 subtable" ordmasculine
Substitution2: "'aalt' Access All Alternates in Latin lookup 0 subtable" ordmasculine
EndChar

StartChar: p
Encoding: 112 112 45
Width: 612
Flags: W
LayerCount: 2
Fore
SplineSet
121 -200 m 1,0,-1
 -5 -200 l 1,1,-1
 118 377 l 1,2,-1
 108 384 l 1,3,-1
 62 350 l 1,4,-1
 -3 440 l 1,5,-1
 51 480 l 2,6,7
 72 495 72 495 94.5 502.5 c 128,-1,8
 117 510 117 510 138 510 c 0,9,10
 178 510 178 510 208 487 c 128,-1,11
 238 464 238 464 245 424 c 1,12,-1
 263 424 l 1,13,14
 312 510 312 510 423 510 c 0,15,16
 457 510 457 510 488 497 c 128,-1,17
 519 484 519 484 542.5 459 c 128,-1,18
 566 434 566 434 579.5 397.5 c 128,-1,19
 593 361 593 361 593 314 c 0,20,21
 593 255 593 255 578.5 196 c 128,-1,22
 564 137 564 137 533 90.5 c 128,-1,23
 502 44 502 44 453.5 15 c 128,-1,24
 405 -14 405 -14 337 -14 c 0,25,26
 305 -14 305 -14 281 -6.5 c 128,-1,27
 257 1 257 1 240 13 c 128,-1,28
 223 25 223 25 212 40.5 c 128,-1,29
 201 56 201 56 197 72 c 1,30,-1
 179 72 l 1,31,-1
 121 -200 l 1,0,-1
313 106 m 0,32,33
 350 106 350 106 378 119.5 c 128,-1,34
 406 133 406 133 424.5 157 c 128,-1,35
 443 181 443 181 452 214 c 128,-1,36
 461 247 461 247 461 286 c 0,37,38
 461 328 461 328 434 359 c 128,-1,39
 407 390 407 390 359 390 c 0,40,41
 325 390 325 390 298 376.5 c 128,-1,42
 271 363 271 363 252 339 c 128,-1,43
 233 315 233 315 222.5 282 c 128,-1,44
 212 249 212 249 212 210 c 0,45,46
 212 163 212 163 239 134.5 c 128,-1,47
 266 106 266 106 313 106 c 0,32,33
EndSplineSet
EndChar

StartChar: q
Encoding: 113 113 46
Width: 612
Flags: W
LayerCount: 2
Fore
SplineSet
256 106 m 0,0,1
 292 106 292 106 322 121 c 128,-1,2
 352 136 352 136 374 161.5 c 128,-1,3
 396 187 396 187 408 220 c 128,-1,4
 420 253 420 253 420 289 c 0,5,6
 420 337 420 337 392.5 363.5 c 128,-1,7
 365 390 365 390 316 390 c 0,8,9
 280 390 280 390 249.5 374.5 c 128,-1,10
 219 359 219 359 197.5 333.5 c 128,-1,11
 176 308 176 308 164 275 c 128,-1,12
 152 242 152 242 152 206 c 0,13,14
 152 157 152 157 179.5 131.5 c 128,-1,15
 207 106 207 106 256 106 c 0,0,1
378 72 m 1,16,-1
 360 72 l 1,17,18
 349 55 349 55 335 39.5 c 128,-1,19
 321 24 321 24 301.5 12 c 128,-1,20
 282 0 282 0 255 -7 c 128,-1,21
 228 -14 228 -14 192 -14 c 0,22,23
 157 -14 157 -14 126.5 -1 c 128,-1,24
 96 12 96 12 72.5 36 c 128,-1,25
 49 60 49 60 35.5 94 c 128,-1,26
 22 128 22 128 22 170 c 0,27,28
 22 237 22 237 40.5 298.5 c 128,-1,29
 59 360 59 360 95 407 c 128,-1,30
 131 454 131 454 183 482 c 128,-1,31
 235 510 235 510 302 510 c 0,32,33
 363 510 363 510 393.5 485 c 128,-1,34
 424 460 424 460 435 424 c 1,35,-1
 453 424 l 1,36,-1
 468 496 l 1,37,-1
 594 496 l 1,38,-1
 471 -79 l 1,39,-1
 481 -86 l 1,40,-1
 537 -48 l 1,41,-1
 600 -142 l 1,42,-1
 533 -186 l 2,43,44
 513 -200 513 -200 491.5 -206 c 128,-1,45
 470 -212 470 -212 450 -212 c 0,46,47
 405 -212 405 -212 373.5 -183.5 c 128,-1,48
 342 -155 342 -155 342 -105 c 0,49,50
 342 -91 342 -91 346 -72 c 2,51,-1
 378 72 l 1,16,-1
EndSplineSet
EndChar

StartChar: r
Encoding: 114 114 47
Width: 612
Flags: W
LayerCount: 2
Fore
SplineSet
178 378 m 1,0,-1
 168 384 l 1,1,-1
 89 326 l 1,2,-1
 22 416 l 1,3,-1
 102 476 l 2,4,5
 125 493 125 493 150.5 501.5 c 128,-1,6
 176 510 176 510 199 510 c 0,7,8
 239 510 239 510 269 488 c 128,-1,9
 299 466 299 466 305 426 c 1,10,-1
 323 426 l 1,11,12
 343 468 343 468 379 489 c 128,-1,13
 415 510 415 510 460 510 c 0,14,15
 517 510 517 510 552.5 474.5 c 128,-1,16
 588 439 588 439 588 376 c 0,17,18
 588 363 588 363 586.5 350.5 c 128,-1,19
 585 338 585 338 581 320 c 2,20,-1
 576 298 l 1,21,-1
 442 288 l 1,22,-1
 445 302 l 2,23,24
 448 317 448 317 448 329 c 0,25,26
 448 358 448 358 432 375 c 128,-1,27
 416 392 416 392 384 392 c 0,28,29
 344 392 344 392 320.5 365 c 128,-1,30
 297 338 297 338 286 288 c 2,31,-1
 250 120 l 1,32,-1
 370 120 l 1,33,-1
 370 0 l 1,34,-1
 28 0 l 1,35,-1
 28 120 l 1,36,-1
 124 120 l 1,37,-1
 178 378 l 1,0,-1
EndSplineSet
Substitution2: "'ss02' Style Set 2 in Latin lookup 3 subtable" r.alt
Substitution2: "'aalt' Access All Alternates in Latin lookup 0 subtable" r.alt
EndChar

StartChar: s
Encoding: 115 115 48
Width: 612
Flags: W
LayerCount: 2
Fore
SplineSet
322 396 m 0,0,1
 311 396 311 396 299.5 393.5 c 128,-1,2
 288 391 288 391 278 386 c 128,-1,3
 268 381 268 381 261.5 372.5 c 128,-1,4
 255 364 255 364 255 352 c 0,5,6
 255 331 255 331 279 321 c 128,-1,7
 303 311 303 311 361 304 c 0,8,9
 426 296 426 296 466 264.5 c 128,-1,10
 506 233 506 233 506 174 c 0,11,12
 506 86 506 86 444.5 36 c 128,-1,13
 383 -14 383 -14 274 -14 c 0,14,15
 219 -14 219 -14 179.5 2 c 128,-1,16
 140 18 140 18 114.5 42 c 128,-1,17
 89 66 89 66 76 95 c 128,-1,18
 63 124 63 124 62 150 c 1,19,-1
 186 180 l 1,20,21
 189 147 189 147 214 123.5 c 128,-1,22
 239 100 239 100 290 100 c 0,23,24
 325 100 325 100 351 111 c 128,-1,25
 377 122 377 122 377 150 c 0,26,27
 377 171 377 171 357 183.5 c 128,-1,28
 337 196 337 196 283 201 c 0,29,30
 211 207 211 207 168.5 242 c 128,-1,31
 126 277 126 277 126 335 c 0,32,33
 126 377 126 377 143.5 410 c 128,-1,34
 161 443 161 443 190 465 c 128,-1,35
 219 487 219 487 257.5 498.5 c 128,-1,36
 296 510 296 510 338 510 c 0,37,38
 390 510 390 510 425 496 c 128,-1,39
 460 482 460 482 482 461 c 128,-1,40
 504 440 504 440 514.5 415.5 c 128,-1,41
 525 391 525 391 528 370 c 1,42,-1
 406 338 l 1,43,44
 402 365 402 365 381 380.5 c 128,-1,45
 360 396 360 396 322 396 c 0,0,1
EndSplineSet
EndChar

StartChar: t
Encoding: 116 116 49
Width: 612
Flags: W
LayerCount: 2
Fore
SplineSet
218 376 m 1,0,-1
 78 376 l 1,1,-1
 78 496 l 1,2,-1
 244 496 l 1,3,-1
 290 714 l 1,4,-1
 416 714 l 1,5,-1
 370 496 l 1,6,-1
 542 496 l 1,7,-1
 542 376 l 1,8,-1
 344 376 l 1,9,-1
 288 119 l 1,10,-1
 298 112 l 1,11,-1
 432 204 l 1,12,-1
 495 110 l 1,13,-1
 350 12 l 2,14,15
 312 -14 312 -14 269 -14 c 0,16,17
 247 -14 247 -14 227 -6.5 c 128,-1,18
 207 1 207 1 192 15 c 128,-1,19
 177 29 177 29 168 49 c 128,-1,20
 159 69 159 69 159 94 c 0,21,22
 159 102 159 102 160 108.5 c 128,-1,23
 161 115 161 115 163 126 c 2,24,-1
 218 376 l 1,0,-1
EndSplineSet
EndChar

StartChar: u
Encoding: 117 117 50
Width: 612
Flags: W
LayerCount: 2
Fore
SplineSet
223 496 m 1,0,-1
 161 208 l 2,1,2
 157 191 157 191 157 175 c 0,3,4
 157 137 157 137 178 118.5 c 128,-1,5
 199 100 199 100 234 100 c 0,6,7
 287 100 287 100 315.5 134.5 c 128,-1,8
 344 169 344 169 358 232 c 2,9,-1
 414 496 l 1,10,-1
 540 496 l 1,11,-1
 458 118 l 1,12,-1
 469 112 l 1,13,-1
 505 138 l 1,14,-1
 568 46 l 1,15,-1
 521 12 l 2,16,17
 502 -2 502 -2 481.5 -8 c 128,-1,18
 461 -14 461 -14 441 -14 c 0,19,20
 400 -14 400 -14 369 9.5 c 128,-1,21
 338 33 338 33 334 78 c 1,22,-1
 316 78 l 1,23,24
 294 27 294 27 256.5 6.5 c 128,-1,25
 219 -14 219 -14 172 -14 c 0,26,27
 107 -14 107 -14 66 25.5 c 128,-1,28
 25 65 25 65 25 136 c 0,29,30
 25 161 25 161 31 190 c 2,31,-1
 97 496 l 1,32,-1
 223 496 l 1,0,-1
EndSplineSet
EndChar

StartChar: v
Encoding: 118 118 51
Width: 612
Flags: W
LayerCount: 2
Fore
SplineSet
135 374 m 1,0,-1
 123 378 l 1,1,-1
 84 329 l 1,2,-1
 -3 400 l 1,3,-1
 44 460 l 2,4,5
 64 485 64 485 90.5 497.5 c 128,-1,6
 117 510 117 510 146 510 c 0,7,8
 167 510 167 510 187 503 c 128,-1,9
 207 496 207 496 222.5 482.5 c 128,-1,10
 238 469 238 469 248 448 c 128,-1,11
 258 427 258 427 260 400 c 2,12,-1
 281 60 l 1,13,-1
 299 60 l 1,14,-1
 501 504 l 1,15,-1
 614 449 l 1,16,-1
 404 0 l 1,17,-1
 161 0 l 1,18,-1
 135 374 l 1,0,-1
EndSplineSet
EndChar

StartChar: w
Encoding: 119 119 52
Width: 612
Flags: W
LayerCount: 2
Fore
SplineSet
145 126 m 1,0,-1
 134 72 l 1,1,-1
 152 72 l 1,2,-1
 163 120 l 1,3,-1
 264 496 l 1,4,-1
 464 496 l 1,5,-1
 412 120 l 1,6,-1
 402 72 l 1,7,-1
 420 72 l 1,8,-1
 432 126 l 1,9,-1
 533 508 l 1,10,-1
 636 483 l 1,11,-1
 503 0 l 1,12,-1
 302 0 l 1,13,-1
 361 436 l 1,14,-1
 343 436 l 1,15,-1
 228 0 l 1,16,-1
 32 0 l 1,17,-1
 89 496 l 1,18,-1
 194 496 l 1,19,-1
 145 126 l 1,0,-1
EndSplineSet
EndChar

StartChar: x
Encoding: 120 120 53
Width: 612
Flags: W
LayerCount: 2
Fore
SplineSet
365 235 m 1,0,-1
 417 112 l 1,1,-1
 429 112 l 1,2,-1
 468 184 l 1,3,-1
 568 132 l 1,4,-1
 536 68 l 2,5,6
 496 -14 496 -14 411 -14 c 0,7,8
 369 -14 369 -14 342.5 5 c 128,-1,9
 316 24 316 24 299 66 c 2,10,-1
 266 143 l 1,11,-1
 101 -12 l 1,12,-1
 16 77 l 1,13,-1
 216 264 l 1,14,-1
 166 383 l 1,15,-1
 154 383 l 1,16,-1
 106 306 l 1,17,-1
 10 368 l 1,18,-1
 58 442 l 2,19,20
 101 510 101 510 174 510 c 0,21,22
 248 510 248 510 282 432 c 2,23,-1
 314 356 l 1,24,-1
 472 504 l 1,25,-1
 557 415 l 1,26,-1
 365 235 l 1,0,-1
EndSplineSet
EndChar

StartChar: y
Encoding: 121 121 54
Width: 612
Flags: W
LayerCount: 2
Fore
SplineSet
228 208 m 2,0,1
 226 201 226 201 225 193 c 128,-1,2
 224 185 224 185 224 177 c 0,3,4
 224 139 224 139 246 119.5 c 128,-1,5
 268 100 268 100 306 100 c 0,6,7
 360 100 360 100 389 135 c 128,-1,8
 418 170 418 170 432 236 c 2,9,-1
 487 496 l 1,10,-1
 613 496 l 1,11,-1
 482 -122 l 2,12,13
 475 -156 475 -156 449 -178 c 128,-1,14
 423 -200 423 -200 389 -200 c 2,15,-1
 99 -200 l 1,16,-1
 99 -80 l 1,17,-1
 338 -80 l 2,18,19
 365 -80 365 -80 371 -50 c 2,20,-1
 397 72 l 1,21,-1
 379 72 l 1,22,23
 357 27 357 27 323 6.5 c 128,-1,24
 289 -14 289 -14 238 -14 c 0,25,26
 208 -14 208 -14 182 -3.5 c 128,-1,27
 156 7 156 7 136 26.5 c 128,-1,28
 116 46 116 46 104.5 74.5 c 128,-1,29
 93 103 93 103 93 140 c 0,30,31
 93 165 93 165 99 192 c 2,32,-1
 138 377 l 1,33,-1
 128 384 l 1,34,-1
 68 342 l 1,35,-1
 5 436 l 1,36,-1
 78 485 l 2,37,38
 97 498 97 498 117 504 c 128,-1,39
 137 510 137 510 157 510 c 0,40,41
 179 510 179 510 199 502.5 c 128,-1,42
 219 495 219 495 234 481.5 c 128,-1,43
 249 468 249 468 258 448.5 c 128,-1,44
 267 429 267 429 267 404 c 0,45,46
 267 390 267 390 264 374 c 2,47,-1
 228 208 l 2,0,1
EndSplineSet
Substitution2: "'ss02' Style Set 2 in Latin lookup 3 subtable" y.alt
Substitution2: "'aalt' Access All Alternates in Latin lookup 0 subtable" y.alt
EndChar

StartChar: z
Encoding: 122 122 55
Width: 612
Flags: W
LayerCount: 2
Fore
SplineSet
469 120 m 1,0,-1
 469 0 l 1,1,-1
 40 0 l 1,2,-1
 40 197 l 1,3,-1
 414 362 l 1,4,-1
 414 380 l 1,5,-1
 123 380 l 1,6,-1
 123 496 l 1,7,-1
 534 496 l 1,8,-1
 534 302 l 1,9,-1
 162 138 l 1,10,-1
 162 120 l 1,11,-1
 469 120 l 1,0,-1
EndSplineSet
EndChar

StartChar: zero
Encoding: 48 48 56
Width: 612
Flags: W
LayerCount: 2
Fore
SplineSet
223 350 m 256,0,1
 223 384 223 384 248 409 c 128,-1,2
 273 434 273 434 307 434 c 256,3,4
 341 434 341 434 366 409 c 128,-1,5
 391 384 391 384 391 350 c 256,6,7
 391 316 391 316 366 291 c 128,-1,8
 341 266 341 266 307 266 c 256,9,10
 273 266 273 266 248 291 c 128,-1,11
 223 316 223 316 223 350 c 256,0,1
65 428 m 2,12,13
 96 576 96 576 172 645 c 128,-1,14
 248 714 248 714 376 714 c 0,15,16
 426 714 426 714 465.5 697 c 128,-1,17
 505 680 505 680 532 650.5 c 128,-1,18
 559 621 559 621 573.5 581 c 128,-1,19
 588 541 588 541 588 495 c 0,20,21
 588 460 588 460 581 428 c 2,22,-1
 548 272 l 2,23,24
 517 124 517 124 441 55 c 128,-1,25
 365 -14 365 -14 237 -14 c 0,26,27
 187 -14 187 -14 147.5 3 c 128,-1,28
 108 20 108 20 81 49.5 c 128,-1,29
 54 79 54 79 39.5 119 c 128,-1,30
 25 159 25 159 25 205 c 0,31,32
 25 240 25 240 32 272 c 2,33,-1
 65 428 l 2,12,13
257 106 m 0,34,35
 323 106 323 106 360.5 148 c 128,-1,36
 398 190 398 190 412 256 c 2,37,-1
 451 436 l 2,38,39
 457 463 457 463 457 487 c 0,40,41
 457 536 457 536 432 565 c 128,-1,42
 407 594 407 594 356 594 c 0,43,44
 290 594 290 594 252.5 552 c 128,-1,45
 215 510 215 510 201 444 c 2,46,-1
 162 264 l 2,47,48
 156 237 156 237 156 213 c 0,49,50
 156 164 156 164 181 135 c 128,-1,51
 206 106 206 106 257 106 c 0,34,35
EndSplineSet
Substitution2: "Single Substitution lookup 35 subtable" uni2080
Substitution2: "'onum' Oldstyle Figures in Latin lookup 25 subtable" zero.tosn
Substitution2: "'onum' Oldstyle Figures in Latin lookup 24 subtable" zero.tosn
Substitution2: "'dnom' Denominators in Latin lookup 23 subtable" uni2080
Substitution2: "'dnom' Denominators in Latin lookup 22 subtable" uni2080
Substitution2: "'numr' Numerators in Latin lookup 21 subtable" uni2070
Substitution2: "'numr' Numerators in Latin lookup 20 subtable" uni2070
Substitution2: "'sinf' Scientific Inferiors in Latin lookup 19 subtable" uni2080
Substitution2: "'sinf' Scientific Inferiors in Latin lookup 18 subtable" uni2080
Substitution2: "'sups' Superscript in Latin lookup 17 subtable" uni2070
Substitution2: "'sups' Superscript in Latin lookup 16 subtable" uni2070
Substitution2: "'subs' Subscript in Latin lookup 15 subtable" uni2080
Substitution2: "'subs' Subscript in Latin lookup 14 subtable" uni2080
AlternateSubs2: "'aalt' Access All Alternates in Latin lookup 1 subtable" uni2070 uni2080 zero.tosn
EndChar

StartChar: one
Encoding: 49 49 57
Width: 612
Flags: W
LayerCount: 2
Fore
SplineSet
212 126 m 1,0,-1
 320 634 l 1,1,-1
 302 634 l 1,2,-1
 185 394 l 1,3,-1
 53 394 l 1,4,-1
 53 406 l 1,5,-1
 208 700 l 1,6,-1
 466 700 l 1,7,-1
 344 126 l 1,8,-1
 517 126 l 1,9,-1
 517 0 l 1,10,-1
 14 0 l 1,11,-1
 14 126 l 1,12,-1
 212 126 l 1,0,-1
EndSplineSet
Substitution2: "Single Substitution lookup 35 subtable" uni2081
Substitution2: "'onum' Oldstyle Figures in Latin lookup 25 subtable" one.tosn
Substitution2: "'onum' Oldstyle Figures in Latin lookup 24 subtable" one.tosn
Substitution2: "'dnom' Denominators in Latin lookup 23 subtable" uni2081
Substitution2: "'dnom' Denominators in Latin lookup 22 subtable" uni2081
Substitution2: "'numr' Numerators in Latin lookup 21 subtable" onesuperior
Substitution2: "'numr' Numerators in Latin lookup 20 subtable" onesuperior
Substitution2: "'sinf' Scientific Inferiors in Latin lookup 19 subtable" uni2081
Substitution2: "'sinf' Scientific Inferiors in Latin lookup 18 subtable" uni2081
Substitution2: "'sups' Superscript in Latin lookup 17 subtable" onesuperior
Substitution2: "'sups' Superscript in Latin lookup 16 subtable" onesuperior
Substitution2: "'subs' Subscript in Latin lookup 15 subtable" uni2081
Substitution2: "'subs' Subscript in Latin lookup 14 subtable" uni2081
AlternateSubs2: "'aalt' Access All Alternates in Latin lookup 1 subtable" one.tosn onesuperior uni2081
EndChar

StartChar: two
Encoding: 50 50 58
Width: 612
Flags: W
LayerCount: 2
Fore
SplineSet
498 126 m 1,0,-1
 498 0 l 1,1,-1
 -8 0 l 1,2,-1
 21 138 l 2,3,4
 33 197 33 197 57.5 237.5 c 128,-1,5
 82 278 82 278 117.5 304.5 c 128,-1,6
 153 331 153 331 200 346.5 c 128,-1,7
 247 362 247 362 305 372 c 0,8,9
 335 377 335 377 363.5 386.5 c 128,-1,10
 392 396 392 396 414.5 411 c 128,-1,11
 437 426 437 426 450.5 449 c 128,-1,12
 464 472 464 472 464 504 c 0,13,14
 464 542 464 542 439 565 c 128,-1,15
 414 588 414 588 366 588 c 0,16,17
 307 588 307 588 267.5 553.5 c 128,-1,18
 228 519 228 519 215 458 c 2,19,-1
 206 414 l 1,20,-1
 74 414 l 1,21,-1
 86 470 l 2,22,23
 111 586 111 586 186.5 650 c 128,-1,24
 262 714 262 714 384 714 c 0,25,26
 434 714 434 714 474 698.5 c 128,-1,27
 514 683 514 683 541.5 656.5 c 128,-1,28
 569 630 569 630 584 595 c 128,-1,29
 599 560 599 560 599 522 c 0,30,31
 599 413 599 413 531.5 348.5 c 128,-1,32
 464 284 464 284 342 258 c 0,33,34
 288 247 288 247 254 235 c 128,-1,35
 220 223 220 223 200 209 c 128,-1,36
 180 195 180 195 170.5 177.5 c 128,-1,37
 161 160 161 160 155 138 c 2,38,-1
 152 126 l 1,39,-1
 498 126 l 1,0,-1
EndSplineSet
Substitution2: "Single Substitution lookup 35 subtable" uni2082
Substitution2: "'onum' Oldstyle Figures in Latin lookup 25 subtable" two.tosn
Substitution2: "'onum' Oldstyle Figures in Latin lookup 24 subtable" two.tosn
Substitution2: "'dnom' Denominators in Latin lookup 23 subtable" uni2082
Substitution2: "'dnom' Denominators in Latin lookup 22 subtable" uni2082
Substitution2: "'numr' Numerators in Latin lookup 21 subtable" twosuperior
Substitution2: "'numr' Numerators in Latin lookup 20 subtable" twosuperior
Substitution2: "'sinf' Scientific Inferiors in Latin lookup 19 subtable" uni2082
Substitution2: "'sinf' Scientific Inferiors in Latin lookup 18 subtable" uni2082
Substitution2: "'sups' Superscript in Latin lookup 17 subtable" twosuperior
Substitution2: "'sups' Superscript in Latin lookup 16 subtable" twosuperior
Substitution2: "'subs' Subscript in Latin lookup 15 subtable" uni2082
Substitution2: "'subs' Subscript in Latin lookup 14 subtable" uni2082
AlternateSubs2: "'aalt' Access All Alternates in Latin lookup 1 subtable" two.tosn twosuperior uni2082
EndChar

StartChar: three
Encoding: 51 51 59
Width: 612
Flags: W
LayerCount: 2
Fore
SplineSet
244 300 m 1,0,-1
 244 508 l 1,1,-1
 453 556 l 1,2,-1
 453 574 l 1,3,-1
 133 574 l 1,4,-1
 133 700 l 1,5,-1
 561 700 l 1,6,-1
 561 480 l 1,7,-1
 342 426 l 1,8,-1
 342 408 l 1,9,-1
 365 408 l 2,10,11
 398 408 398 408 428.5 397 c 128,-1,12
 459 386 459 386 483 364 c 128,-1,13
 507 342 507 342 521.5 309 c 128,-1,14
 536 276 536 276 536 232 c 0,15,16
 536 177 536 177 516 132 c 128,-1,17
 496 87 496 87 459.5 54.5 c 128,-1,18
 423 22 423 22 370.5 4 c 128,-1,19
 318 -14 318 -14 254 -14 c 0,20,21
 202 -14 202 -14 159.5 1 c 128,-1,22
 117 16 117 16 87 43 c 128,-1,23
 57 70 57 70 40.5 107 c 128,-1,24
 24 144 24 144 24 188 c 0,25,26
 24 214 24 214 30 241 c 2,27,-1
 35 266 l 1,28,-1
 167 266 l 1,29,-1
 163 245 l 2,30,31
 161 233 161 233 160 225.5 c 128,-1,32
 159 218 159 218 159 210 c 0,33,34
 159 165 159 165 186.5 138.5 c 128,-1,35
 214 112 214 112 268 112 c 0,36,37
 325 112 325 112 362 139.5 c 128,-1,38
 399 167 399 167 399 218 c 0,39,40
 399 256 399 256 373.5 278 c 128,-1,41
 348 300 348 300 304 300 c 2,42,-1
 244 300 l 1,0,-1
EndSplineSet
Substitution2: "Single Substitution lookup 35 subtable" uni2083
Substitution2: "'onum' Oldstyle Figures in Latin lookup 25 subtable" three.tosn
Substitution2: "'onum' Oldstyle Figures in Latin lookup 24 subtable" three.tosn
Substitution2: "'dnom' Denominators in Latin lookup 23 subtable" uni2083
Substitution2: "'dnom' Denominators in Latin lookup 22 subtable" uni2083
Substitution2: "'numr' Numerators in Latin lookup 21 subtable" threesuperior
Substitution2: "'numr' Numerators in Latin lookup 20 subtable" threesuperior
Substitution2: "'sinf' Scientific Inferiors in Latin lookup 19 subtable" uni2083
Substitution2: "'sinf' Scientific Inferiors in Latin lookup 18 subtable" uni2083
Substitution2: "'sups' Superscript in Latin lookup 17 subtable" threesuperior
Substitution2: "'sups' Superscript in Latin lookup 16 subtable" threesuperior
Substitution2: "'subs' Subscript in Latin lookup 15 subtable" uni2083
Substitution2: "'subs' Subscript in Latin lookup 14 subtable" uni2083
AlternateSubs2: "'aalt' Access All Alternates in Latin lookup 1 subtable" three.tosn threesuperior uni2083
EndChar

StartChar: four
Encoding: 52 52 60
Width: 612
Flags: W
LayerCount: 2
Fore
SplineSet
314 700 m 1,0,-1
 568 700 l 1,1,-1
 474 258 l 1,2,-1
 562 258 l 1,3,-1
 562 132 l 1,4,-1
 447 132 l 1,5,-1
 419 0 l 1,6,-1
 287 0 l 1,7,-1
 315 132 l 1,8,-1
 11 132 l 1,9,-1
 11 318 l 1,10,-1
 314 700 l 1,0,-1
122 276 m 1,11,-1
 122 258 l 1,12,-1
 342 258 l 1,13,-1
 422 634 l 1,14,-1
 404 634 l 1,15,-1
 122 276 l 1,11,-1
EndSplineSet
Substitution2: "Single Substitution lookup 35 subtable" uni2084
Substitution2: "'onum' Oldstyle Figures in Latin lookup 25 subtable" four.tosn
Substitution2: "'onum' Oldstyle Figures in Latin lookup 24 subtable" four.tosn
Substitution2: "'dnom' Denominators in Latin lookup 23 subtable" uni2084
Substitution2: "'dnom' Denominators in Latin lookup 22 subtable" uni2084
Substitution2: "'numr' Numerators in Latin lookup 21 subtable" uni2074
Substitution2: "'numr' Numerators in Latin lookup 20 subtable" uni2074
Substitution2: "'sinf' Scientific Inferiors in Latin lookup 19 subtable" uni2084
Substitution2: "'sinf' Scientific Inferiors in Latin lookup 18 subtable" uni2084
Substitution2: "'sups' Superscript in Latin lookup 17 subtable" uni2074
Substitution2: "'sups' Superscript in Latin lookup 16 subtable" uni2074
Substitution2: "'subs' Subscript in Latin lookup 15 subtable" uni2084
Substitution2: "'subs' Subscript in Latin lookup 14 subtable" uni2084
AlternateSubs2: "'aalt' Access All Alternates in Latin lookup 1 subtable" four.tosn uni2074 uni2084
EndChar

StartChar: five
Encoding: 53 53 61
Width: 612
Flags: W
LayerCount: 2
Fore
SplineSet
49 312 m 1,0,-1
 131 700 l 1,1,-1
 579 700 l 1,2,-1
 579 574 l 1,3,-1
 237 574 l 1,4,-1
 196 384 l 1,5,-1
 214 384 l 1,6,7
 236 428 236 428 275 454 c 128,-1,8
 314 480 314 480 379 480 c 0,9,10
 419 480 419 480 452 466 c 128,-1,11
 485 452 485 452 509 426.5 c 128,-1,12
 533 401 533 401 546 364 c 128,-1,13
 559 327 559 327 559 281 c 0,14,15
 559 221 559 221 538.5 167 c 128,-1,16
 518 113 518 113 479 73 c 128,-1,17
 440 33 440 33 382.5 9.5 c 128,-1,18
 325 -14 325 -14 251 -14 c 0,19,20
 197 -14 197 -14 153 0 c 128,-1,21
 109 14 109 14 78 39 c 128,-1,22
 47 64 47 64 30 99.5 c 128,-1,23
 13 135 13 135 13 177 c 0,24,25
 13 197 13 197 18 222 c 2,26,-1
 23 246 l 1,27,-1
 155 246 l 1,28,-1
 152 232 l 2,29,30
 150 222 150 222 149 216.5 c 128,-1,31
 148 211 148 211 148 203 c 0,32,33
 148 163 148 163 178 137.5 c 128,-1,34
 208 112 208 112 271 112 c 0,35,36
 304 112 304 112 332 123 c 128,-1,37
 360 134 360 134 380 153.5 c 128,-1,38
 400 173 400 173 411 199 c 128,-1,39
 422 225 422 225 422 256 c 0,40,41
 422 309 422 309 398 331.5 c 128,-1,42
 374 354 374 354 338 354 c 0,43,44
 309 354 309 354 291.5 341.5 c 128,-1,45
 274 329 274 329 265 312 c 1,46,-1
 49 312 l 1,0,-1
EndSplineSet
Substitution2: "Single Substitution lookup 35 subtable" uni2085
Substitution2: "'onum' Oldstyle Figures in Latin lookup 25 subtable" five.tosn
Substitution2: "'onum' Oldstyle Figures in Latin lookup 24 subtable" five.tosn
Substitution2: "'dnom' Denominators in Latin lookup 23 subtable" uni2085
Substitution2: "'dnom' Denominators in Latin lookup 22 subtable" uni2085
Substitution2: "'numr' Numerators in Latin lookup 21 subtable" uni2075
Substitution2: "'numr' Numerators in Latin lookup 20 subtable" uni2075
Substitution2: "'sinf' Scientific Inferiors in Latin lookup 19 subtable" uni2085
Substitution2: "'sinf' Scientific Inferiors in Latin lookup 18 subtable" uni2085
Substitution2: "'sups' Superscript in Latin lookup 17 subtable" uni2075
Substitution2: "'sups' Superscript in Latin lookup 16 subtable" uni2075
Substitution2: "'subs' Subscript in Latin lookup 15 subtable" uni2085
Substitution2: "'subs' Subscript in Latin lookup 14 subtable" uni2085
AlternateSubs2: "'aalt' Access All Alternates in Latin lookup 1 subtable" five.tosn uni2075 uni2085
EndChar

StartChar: six
Encoding: 54 54 62
Width: 612
Flags: W
LayerCount: 2
Fore
SplineSet
446 502 m 1,0,1
 447 507 447 507 447 509.5 c 128,-1,2
 447 512 447 512 447 516 c 0,3,4
 447 544 447 544 426.5 566 c 128,-1,5
 406 588 406 588 359 588 c 0,6,7
 299 588 299 588 264 556.5 c 128,-1,8
 229 525 229 525 218 474 c 2,9,-1
 199 384 l 1,10,-1
 217 384 l 1,11,12
 240 423 240 423 278.5 442.5 c 128,-1,13
 317 462 317 462 361 462 c 0,14,15
 398 462 398 462 430.5 449 c 128,-1,16
 463 436 463 436 487.5 412 c 128,-1,17
 512 388 512 388 526 352.5 c 128,-1,18
 540 317 540 317 540 272 c 0,19,20
 540 213 540 213 521 161 c 128,-1,21
 502 109 502 109 465.5 70 c 128,-1,22
 429 31 429 31 374.5 8.5 c 128,-1,23
 320 -14 320 -14 249 -14 c 0,24,25
 201 -14 201 -14 161 -0.5 c 128,-1,26
 121 13 121 13 92 38 c 128,-1,27
 63 63 63 63 47 99.5 c 128,-1,28
 31 136 31 136 31 182 c 0,29,30
 31 209 31 209 37 241 c 2,31,-1
 89 491 l 2,32,33
 99 541 99 541 123.5 582 c 128,-1,34
 148 623 148 623 184 652.5 c 128,-1,35
 220 682 220 682 266 698 c 128,-1,36
 312 714 312 714 366 714 c 0,37,38
 419 714 419 714 459 700 c 128,-1,39
 499 686 499 686 526 661.5 c 128,-1,40
 553 637 553 637 567 604.5 c 128,-1,41
 581 572 581 572 581 536 c 0,42,43
 581 520 581 520 578 502 c 1,44,-1
 446 502 l 1,0,1
269 112 m 0,45,46
 292 112 292 112 316 120 c 128,-1,47
 340 128 340 128 359 144 c 128,-1,48
 378 160 378 160 390 184.5 c 128,-1,49
 402 209 402 209 402 242 c 0,50,51
 402 281 402 281 375 308.5 c 128,-1,52
 348 336 348 336 297 336 c 0,53,54
 268 336 268 336 243.5 327 c 128,-1,55
 219 318 219 318 201 301.5 c 128,-1,56
 183 285 183 285 172.5 260.5 c 128,-1,57
 162 236 162 236 162 205 c 0,58,59
 162 160 162 160 192 136 c 128,-1,60
 222 112 222 112 269 112 c 0,45,46
EndSplineSet
Substitution2: "Single Substitution lookup 35 subtable" uni2086
Substitution2: "'onum' Oldstyle Figures in Latin lookup 25 subtable" six.tosn
Substitution2: "'onum' Oldstyle Figures in Latin lookup 24 subtable" six.tosn
Substitution2: "'dnom' Denominators in Latin lookup 23 subtable" uni2086
Substitution2: "'dnom' Denominators in Latin lookup 22 subtable" uni2086
Substitution2: "'numr' Numerators in Latin lookup 21 subtable" uni2076
Substitution2: "'numr' Numerators in Latin lookup 20 subtable" uni2076
Substitution2: "'sinf' Scientific Inferiors in Latin lookup 19 subtable" uni2086
Substitution2: "'sinf' Scientific Inferiors in Latin lookup 18 subtable" uni2086
Substitution2: "'sups' Superscript in Latin lookup 17 subtable" uni2076
Substitution2: "'sups' Superscript in Latin lookup 16 subtable" uni2076
Substitution2: "'subs' Subscript in Latin lookup 15 subtable" uni2086
Substitution2: "'subs' Subscript in Latin lookup 14 subtable" uni2086
AlternateSubs2: "'aalt' Access All Alternates in Latin lookup 1 subtable" six.tosn uni2076 uni2086
EndChar

StartChar: seven
Encoding: 55 55 63
Width: 612
Flags: W
LayerCount: 2
Fore
SplineSet
107 700 m 1,0,-1
 606 700 l 1,1,-1
 606 501 l 1,2,-1
 266 124 l 2,3,4
 239 95 239 95 223.5 73 c 128,-1,5
 208 51 208 51 202 24 c 2,6,-1
 197 0 l 1,7,-1
 39 0 l 1,8,-1
 45 30 l 2,9,10
 49 48 49 48 54 63 c 128,-1,11
 59 78 59 78 69 94 c 128,-1,12
 79 110 79 110 94 129 c 128,-1,13
 109 148 109 148 133 174 c 2,14,-1
 476 556 l 1,15,-1
 476 574 l 1,16,-1
 107 574 l 1,17,-1
 107 700 l 1,0,-1
EndSplineSet
Substitution2: "Single Substitution lookup 35 subtable" uni2087
Substitution2: "'onum' Oldstyle Figures in Latin lookup 25 subtable" seven.tosn
Substitution2: "'onum' Oldstyle Figures in Latin lookup 24 subtable" seven.tosn
Substitution2: "'dnom' Denominators in Latin lookup 23 subtable" uni2087
Substitution2: "'dnom' Denominators in Latin lookup 22 subtable" uni2087
Substitution2: "'numr' Numerators in Latin lookup 21 subtable" uni2077
Substitution2: "'numr' Numerators in Latin lookup 20 subtable" uni2077
Substitution2: "'sinf' Scientific Inferiors in Latin lookup 19 subtable" uni2087
Substitution2: "'sinf' Scientific Inferiors in Latin lookup 18 subtable" uni2087
Substitution2: "'sups' Superscript in Latin lookup 17 subtable" uni2077
Substitution2: "'sups' Superscript in Latin lookup 16 subtable" uni2077
Substitution2: "'subs' Subscript in Latin lookup 15 subtable" uni2087
Substitution2: "'subs' Subscript in Latin lookup 14 subtable" uni2087
AlternateSubs2: "'aalt' Access All Alternates in Latin lookup 1 subtable" seven.tosn uni2077 uni2087
EndChar

StartChar: eight
Encoding: 56 56 64
Width: 612
Flags: W
LayerCount: 2
Fore
SplineSet
242 -14 m 0,0,1
 185 -14 185 -14 142 1 c 128,-1,2
 99 16 99 16 70 41 c 128,-1,3
 41 66 41 66 26 99 c 128,-1,4
 11 132 11 132 11 169 c 0,5,6
 11 244 11 244 57 292 c 128,-1,7
 103 340 103 340 179 354 c 1,8,-1
 179 372 l 1,9,10
 166 379 166 379 152 389 c 128,-1,11
 138 399 138 399 127 414 c 128,-1,12
 116 429 116 429 108.5 450 c 128,-1,13
 101 471 101 471 101 500 c 0,14,15
 101 549 101 549 121.5 588.5 c 128,-1,16
 142 628 142 628 178 656 c 128,-1,17
 214 684 214 684 263 699 c 128,-1,18
 312 714 312 714 369 714 c 0,19,20
 410 714 410 714 449 703.5 c 128,-1,21
 488 693 488 693 518 672 c 128,-1,22
 548 651 548 651 566.5 618 c 128,-1,23
 585 585 585 585 585 540 c 0,24,25
 585 471 585 471 543 428.5 c 128,-1,26
 501 386 501 386 437 372 c 1,27,-1
 437 354 l 1,28,29
 477 339 477 339 504 305 c 128,-1,30
 531 271 531 271 531 212 c 0,31,32
 531 164 531 164 512.5 122.5 c 128,-1,33
 494 81 494 81 457 51 c 128,-1,34
 420 21 420 21 366 3.5 c 128,-1,35
 312 -14 312 -14 242 -14 c 0,0,1
256 112 m 0,36,37
 286 112 286 112 312 118.5 c 128,-1,38
 338 125 338 125 357.5 138 c 128,-1,39
 377 151 377 151 388.5 171.5 c 128,-1,40
 400 192 400 192 400 219 c 0,41,42
 400 252 400 252 372.5 276 c 128,-1,43
 345 300 345 300 288 300 c 0,44,45
 261 300 261 300 236 293 c 128,-1,46
 211 286 211 286 192 272.5 c 128,-1,47
 173 259 173 259 161.5 238.5 c 128,-1,48
 150 218 150 218 150 190 c 0,49,50
 150 157 150 157 177.5 134.5 c 128,-1,51
 205 112 205 112 256 112 c 0,36,37
354 588 m 0,52,53
 330 588 330 588 308 582.5 c 128,-1,54
 286 577 286 577 269 565 c 128,-1,55
 252 553 252 553 242 535.5 c 128,-1,56
 232 518 232 518 232 494 c 0,57,58
 232 465 232 465 256.5 445.5 c 128,-1,59
 281 426 281 426 322 426 c 0,60,61
 346 426 346 426 368.5 432 c 128,-1,62
 391 438 391 438 408.5 449.5 c 128,-1,63
 426 461 426 461 436 478 c 128,-1,64
 446 495 446 495 446 517 c 0,65,66
 446 549 446 549 421 568.5 c 128,-1,67
 396 588 396 588 354 588 c 0,52,53
EndSplineSet
Substitution2: "Single Substitution lookup 35 subtable" uni2088
Substitution2: "'onum' Oldstyle Figures in Latin lookup 25 subtable" eight.tosn
Substitution2: "'onum' Oldstyle Figures in Latin lookup 24 subtable" eight.tosn
Substitution2: "'dnom' Denominators in Latin lookup 23 subtable" uni2088
Substitution2: "'dnom' Denominators in Latin lookup 22 subtable" uni2088
Substitution2: "'numr' Numerators in Latin lookup 21 subtable" uni2078
Substitution2: "'numr' Numerators in Latin lookup 20 subtable" uni2078
Substitution2: "'sinf' Scientific Inferiors in Latin lookup 19 subtable" uni2088
Substitution2: "'sinf' Scientific Inferiors in Latin lookup 18 subtable" uni2088
Substitution2: "'sups' Superscript in Latin lookup 17 subtable" uni2078
Substitution2: "'sups' Superscript in Latin lookup 16 subtable" uni2078
Substitution2: "'subs' Subscript in Latin lookup 15 subtable" uni2088
Substitution2: "'subs' Subscript in Latin lookup 14 subtable" uni2088
AlternateSubs2: "'aalt' Access All Alternates in Latin lookup 1 subtable" eight.tosn uni2078 uni2088
EndChar

StartChar: nine
Encoding: 57 57 65
Width: 612
Flags: W
LayerCount: 2
Fore
SplineSet
166 198 m 1,0,1
 164 190 164 190 164 181 c 0,2,3
 164 153 164 153 184.5 132.5 c 128,-1,4
 205 112 205 112 253 112 c 0,5,6
 313 112 313 112 348 143.5 c 128,-1,7
 383 175 383 175 394 226 c 2,8,-1
 413 316 l 1,9,-1
 395 316 l 1,10,11
 359 238 359 238 253 238 c 0,12,13
 219 238 219 238 186.5 250.5 c 128,-1,14
 154 263 154 263 128.5 287 c 128,-1,15
 103 311 103 311 87.5 347.5 c 128,-1,16
 72 384 72 384 72 432 c 0,17,18
 72 493 72 493 91.5 544.5 c 128,-1,19
 111 596 111 596 148 633.5 c 128,-1,20
 185 671 185 671 239 692.5 c 128,-1,21
 293 714 293 714 361 714 c 0,22,23
 408 714 408 714 448.5 699.5 c 128,-1,24
 489 685 489 685 518.5 658.5 c 128,-1,25
 548 632 548 632 564.5 594.5 c 128,-1,26
 581 557 581 557 581 512 c 0,27,28
 581 499 581 499 579.5 487 c 128,-1,29
 578 475 578 475 575 459 c 2,30,-1
 523 209 l 2,31,32
 512 158 512 158 488.5 116.5 c 128,-1,33
 465 75 465 75 429.5 46 c 128,-1,34
 394 17 394 17 347.5 1.5 c 128,-1,35
 301 -14 301 -14 246 -14 c 0,36,37
 193 -14 193 -14 153 -0.5 c 128,-1,38
 113 13 113 13 86 37 c 128,-1,39
 59 61 59 61 45 93 c 128,-1,40
 31 125 31 125 31 162 c 0,41,42
 31 180 31 180 34 198 c 1,43,-1
 166 198 l 1,0,1
345 588 m 0,44,45
 319 588 319 588 295 580 c 128,-1,46
 271 572 271 572 252 555.5 c 128,-1,47
 233 539 233 539 221.5 515 c 128,-1,48
 210 491 210 491 210 458 c 0,49,50
 210 418 210 418 236.5 391 c 128,-1,51
 263 364 263 364 313 364 c 0,52,53
 341 364 341 364 366 373.5 c 128,-1,54
 391 383 391 383 409.5 400.5 c 128,-1,55
 428 418 428 418 439 442 c 128,-1,56
 450 466 450 466 450 495 c 0,57,58
 450 541 450 541 420 564.5 c 128,-1,59
 390 588 390 588 345 588 c 0,44,45
EndSplineSet
Substitution2: "Single Substitution lookup 35 subtable" uni2089
Substitution2: "'onum' Oldstyle Figures in Latin lookup 25 subtable" nine.tosn
Substitution2: "'onum' Oldstyle Figures in Latin lookup 24 subtable" nine.tosn
Substitution2: "'dnom' Denominators in Latin lookup 23 subtable" uni2089
Substitution2: "'dnom' Denominators in Latin lookup 22 subtable" uni2089
Substitution2: "'numr' Numerators in Latin lookup 21 subtable" uni2079
Substitution2: "'numr' Numerators in Latin lookup 20 subtable" uni2079
Substitution2: "'sinf' Scientific Inferiors in Latin lookup 19 subtable" uni2089
Substitution2: "'sinf' Scientific Inferiors in Latin lookup 18 subtable" uni2089
Substitution2: "'sups' Superscript in Latin lookup 17 subtable" uni2079
Substitution2: "'sups' Superscript in Latin lookup 16 subtable" uni2079
Substitution2: "'subs' Subscript in Latin lookup 15 subtable" uni2089
Substitution2: "'subs' Subscript in Latin lookup 14 subtable" uni2089
AlternateSubs2: "'aalt' Access All Alternates in Latin lookup 1 subtable" nine.tosn uni2079 uni2089
EndChar

StartChar: bracketleft
Encoding: 91 91 66
Width: 612
Flags: W
LayerCount: 2
Fore
SplineSet
326 754 m 2,0,1
 336 799 336 799 370.5 827.5 c 128,-1,2
 405 856 405 856 450 856 c 2,3,-1
 569 856 l 1,4,-1
 569 736 l 1,5,-1
 476 736 l 2,6,7
 448 736 448 736 442 706 c 2,8,-1
 291 -6 l 2,9,10
 290 -9 290 -9 290 -13 c 2,11,-1
 290 -16 l 2,12,13
 290 -36 290 -36 313 -36 c 2,14,-1
 385 -36 l 1,15,-1
 385 -156 l 1,16,-1
 252 -156 l 2,17,18
 207 -156 207 -156 180.5 -134 c 128,-1,19
 154 -112 154 -112 154 -70 c 0,20,21
 154 -62 154 -62 155 -54 c 128,-1,22
 156 -46 156 -46 158 -39 c 2,23,-1
 326 754 l 2,0,1
EndSplineSet
EndChar

StartChar: bracketright
Encoding: 93 93 67
Width: 612
Flags: W
LayerCount: 2
Fore
SplineSet
293 -54 m 2,0,1
 283 -99 283 -99 248.5 -127.5 c 128,-1,2
 214 -156 214 -156 169 -156 c 2,3,-1
 50 -156 l 1,4,-1
 50 -36 l 1,5,-1
 143 -36 l 2,6,7
 171 -36 171 -36 177 -6 c 2,8,-1
 328 706 l 2,9,10
 328 708 328 708 328.5 709.5 c 128,-1,11
 329 711 329 711 329 713 c 2,12,-1
 329 716 l 2,13,14
 329 736 329 736 306 736 c 2,15,-1
 234 736 l 1,16,-1
 234 856 l 1,17,-1
 367 856 l 2,18,19
 412 856 412 856 438.5 834 c 128,-1,20
 465 812 465 812 465 770 c 0,21,22
 465 762 465 762 464 754 c 128,-1,23
 463 746 463 746 461 739 c 2,24,-1
 293 -54 l 2,0,1
EndSplineSet
EndChar

StartChar: braceleft
Encoding: 123 123 68
Width: 612
Flags: W
LayerCount: 2
Fore
SplineSet
234 249 m 2,0,1
 235 254 235 254 235 255 c 128,-1,2
 235 256 235 256 235 258 c 0,3,4
 235 278 235 278 212 278 c 2,5,-1
 162 278 l 1,6,-1
 162 422 l 1,7,-1
 244 422 l 2,8,9
 271 422 271 422 277 451 c 2,10,-1
 341 754 l 2,11,12
 351 799 351 799 385.5 827.5 c 128,-1,13
 420 856 420 856 465 856 c 2,14,-1
 584 856 l 1,15,-1
 584 736 l 1,16,-1
 491 736 l 2,17,18
 463 736 463 736 457 706 c 2,19,-1
 400 437 l 2,20,21
 392 403 392 403 366 381 c 128,-1,22
 340 359 340 359 305 359 c 2,23,-1
 296 359 l 1,24,-1
 296 341 l 1,25,-1
 302 341 l 2,26,27
 332 341 332 341 348.5 324 c 128,-1,28
 365 307 365 307 365 281 c 0,29,30
 365 276 365 276 364.5 272 c 128,-1,31
 364 268 364 268 363 263 c 2,32,-1
 306 -6 l 2,33,34
 305 -11 305 -11 305 -12.5 c 128,-1,35
 305 -14 305 -14 305 -16 c 0,36,37
 305 -36 305 -36 328 -36 c 2,38,-1
 400 -36 l 1,39,-1
 400 -156 l 1,40,-1
 267 -156 l 2,41,42
 222 -156 222 -156 195.5 -134 c 128,-1,43
 169 -112 169 -112 169 -70 c 0,44,45
 169 -62 169 -62 170 -54.5 c 128,-1,46
 171 -47 171 -47 173 -39 c 2,47,-1
 234 249 l 2,0,1
EndSplineSet
EndChar

StartChar: braceright
Encoding: 125 125 69
Width: 612
Flags: W
LayerCount: 2
Fore
SplineSet
378 451 m 2,0,1
 377 446 377 446 377 445 c 128,-1,2
 377 444 377 444 377 442 c 0,3,4
 377 422 377 422 400 422 c 2,5,-1
 450 422 l 1,6,-1
 450 278 l 1,7,-1
 368 278 l 2,8,9
 341 278 341 278 335 249 c 2,10,-1
 271 -54 l 2,11,12
 261 -99 261 -99 226.5 -127.5 c 128,-1,13
 192 -156 192 -156 147 -156 c 2,14,-1
 28 -156 l 1,15,-1
 28 -36 l 1,16,-1
 121 -36 l 2,17,18
 149 -36 149 -36 155 -6 c 2,19,-1
 212 263 l 2,20,21
 220 297 220 297 246 319 c 128,-1,22
 272 341 272 341 307 341 c 2,23,-1
 316 341 l 1,24,-1
 316 359 l 1,25,-1
 310 359 l 2,26,27
 280 359 280 359 263.5 376 c 128,-1,28
 247 393 247 393 247 419 c 0,29,30
 247 424 247 424 247.5 428 c 128,-1,31
 248 432 248 432 249 437 c 2,32,-1
 306 706 l 2,33,34
 307 711 307 711 307 712.5 c 128,-1,35
 307 714 307 714 307 716 c 0,36,37
 307 736 307 736 284 736 c 2,38,-1
 212 736 l 1,39,-1
 212 856 l 1,40,-1
 345 856 l 2,41,42
 390 856 390 856 416.5 834 c 128,-1,43
 443 812 443 812 443 770 c 0,44,45
 443 762 443 762 442 754.5 c 128,-1,46
 441 747 441 747 439 739 c 2,47,-1
 378 451 l 2,0,1
EndSplineSet
EndChar

StartChar: parenleft
Encoding: 40 40 70
Width: 612
Flags: W
LayerCount: 2
Fore
SplineSet
436 -30 m 1,0,-1
 436 -156 l 1,1,-1
 355 -156 l 2,2,3
 295 -156 295 -156 243.5 -136.5 c 128,-1,4
 192 -117 192 -117 153.5 -80.5 c 128,-1,5
 115 -44 115 -44 93.5 10 c 128,-1,6
 72 64 72 64 72 133 c 0,7,8
 72 180 72 180 84 236 c 2,9,-1
 139 494 l 2,10,11
 160 593 160 593 198.5 662 c 128,-1,12
 237 731 237 731 291.5 774 c 128,-1,13
 346 817 346 817 415.5 836.5 c 128,-1,14
 485 856 485 856 568 856 c 2,15,-1
 612 856 l 1,16,-1
 612 730 l 1,17,-1
 554 730 l 2,18,19
 432 730 432 730 362 668 c 128,-1,20
 292 606 292 606 264 472 c 2,21,-1
 213 228 l 2,22,23
 204 184 204 184 204 149 c 0,24,25
 204 95 204 95 221.5 60.5 c 128,-1,26
 239 26 239 26 266 6 c 128,-1,27
 293 -14 293 -14 325.5 -22 c 128,-1,28
 358 -30 358 -30 388 -30 c 2,29,-1
 436 -30 l 1,0,-1
EndSplineSet
EndChar

StartChar: parenright
Encoding: 41 41 71
Width: 612
Flags: W
LayerCount: 2
Fore
SplineSet
176 730 m 1,0,-1
 176 856 l 1,1,-1
 257 856 l 2,2,3
 317 856 317 856 368.5 836.5 c 128,-1,4
 420 817 420 817 458.5 780.5 c 128,-1,5
 497 744 497 744 518.5 690 c 128,-1,6
 540 636 540 636 540 567 c 0,7,8
 540 519 540 519 528 464 c 2,9,-1
 473 206 l 2,10,11
 452 107 452 107 413.5 38 c 128,-1,12
 375 -31 375 -31 320.5 -74 c 128,-1,13
 266 -117 266 -117 196.5 -136.5 c 128,-1,14
 127 -156 127 -156 44 -156 c 2,15,-1
 0 -156 l 1,16,-1
 0 -30 l 1,17,-1
 58 -30 l 2,18,19
 180 -30 180 -30 250 32 c 128,-1,20
 320 94 320 94 348 228 c 2,21,-1
 399 472 l 2,22,23
 408 515 408 515 408 551 c 0,24,25
 408 605 408 605 390.5 639.5 c 128,-1,26
 373 674 373 674 346 694 c 128,-1,27
 319 714 319 714 286.5 722 c 128,-1,28
 254 730 254 730 224 730 c 2,29,-1
 176 730 l 1,0,-1
EndSplineSet
EndChar

StartChar: slash
Encoding: 47 47 72
Width: 612
Flags: W
LayerCount: 2
Fore
SplineSet
514 825 m 1,0,-1
 618 766 l 1,1,-1
 99 -125 l 1,2,-1
 -6 -66 l 1,3,-1
 514 825 l 1,0,-1
EndSplineSet
Substitution2: "Single Substitution lookup 32 subtable" fraction
Substitution2: "'aalt' Access All Alternates in Latin lookup 0 subtable" fraction
EndChar

StartChar: bar
Encoding: 124 124 73
Width: 612
Flags: W
LayerCount: 2
Fore
SplineSet
262 -156 m 1,0,-1
 142 -156 l 1,1,-1
 357 856 l 1,2,-1
 477 856 l 1,3,-1
 262 -156 l 1,0,-1
EndSplineSet
EndChar

StartChar: brokenbar
Encoding: 166 166 74
Width: 612
Flags: W
LayerCount: 2
Fore
SplineSet
357 290 m 1,0,-1
 262 -156 l 1,1,-1
 142 -156 l 1,2,-1
 237 290 l 1,3,-1
 357 290 l 1,0,-1
262 410 m 1,4,-1
 357 856 l 1,5,-1
 477 856 l 1,6,-1
 382 410 l 1,7,-1
 262 410 l 1,4,-1
EndSplineSet
EndChar

StartChar: backslash
Encoding: 92 92 75
Width: 612
Flags: W
LayerCount: 2
Fore
SplineSet
416 -113 m 1,0,-1
 296 -125 l 1,1,-1
 196 813 l 1,2,-1
 315 825 l 1,3,-1
 416 -113 l 1,0,-1
EndSplineSet
EndChar

StartChar: quotesingle
Encoding: 39 39 76
Width: 612
Flags: W
LayerCount: 2
Fore
SplineSet
300 542 m 1,0,1
 282 556 282 556 271 576.5 c 128,-1,2
 260 597 260 597 260 620 c 0,3,4
 260 639 260 639 267.5 656.5 c 128,-1,5
 275 674 275 674 288 686.5 c 128,-1,6
 301 699 301 699 318 706.5 c 128,-1,7
 335 714 335 714 355 714 c 0,8,9
 374 714 374 714 391.5 706.5 c 128,-1,10
 409 699 409 699 421.5 686.5 c 128,-1,11
 434 674 434 674 441.5 656.5 c 128,-1,12
 449 639 449 639 449 620 c 0,13,14
 449 588 449 588 429.5 561.5 c 128,-1,15
 410 535 410 535 375 526 c 1,16,-1
 349 405 l 1,17,-1
 273 420 l 1,18,-1
 300 542 l 1,0,1
EndSplineSet
EndChar

StartChar: quotedbl
Encoding: 34 34 77
Width: 612
Flags: W
LayerCount: 2
Fore
SplineSet
190 542 m 1,0,1
 172 556 172 556 161 576.5 c 128,-1,2
 150 597 150 597 150 620 c 0,3,4
 150 639 150 639 157.5 656.5 c 128,-1,5
 165 674 165 674 178 686.5 c 128,-1,6
 191 699 191 699 208 706.5 c 128,-1,7
 225 714 225 714 245 714 c 0,8,9
 264 714 264 714 281.5 706.5 c 128,-1,10
 299 699 299 699 311.5 686.5 c 128,-1,11
 324 674 324 674 331.5 656.5 c 128,-1,12
 339 639 339 639 339 620 c 0,13,14
 339 588 339 588 319.5 561.5 c 128,-1,15
 300 535 300 535 265 526 c 1,16,-1
 239 405 l 1,17,-1
 163 420 l 1,18,-1
 190 542 l 1,0,1
415 542 m 1,19,20
 397 556 397 556 386 576.5 c 128,-1,21
 375 597 375 597 375 620 c 0,22,23
 375 639 375 639 382.5 656.5 c 128,-1,24
 390 674 390 674 403 686.5 c 128,-1,25
 416 699 416 699 433 706.5 c 128,-1,26
 450 714 450 714 470 714 c 0,27,28
 509 714 509 714 536.5 686.5 c 128,-1,29
 564 659 564 659 564 620 c 0,30,31
 564 588 564 588 544.5 561.5 c 128,-1,32
 525 535 525 535 490 526 c 1,33,-1
 464 405 l 1,34,-1
 388 420 l 1,35,-1
 415 542 l 1,19,20
EndSplineSet
EndChar

StartChar: quoteleft
Encoding: 8216 8216 78
Width: 612
Flags: W
LayerCount: 2
Fore
SplineSet
430 502 m 0,0,1
 430 482 430 482 422.5 464.5 c 128,-1,2
 415 447 415 447 402 434.5 c 128,-1,3
 389 422 389 422 371.5 415 c 128,-1,4
 354 408 354 408 335 408 c 0,5,6
 315 408 315 408 298 415.5 c 128,-1,7
 281 423 281 423 268 435.5 c 128,-1,8
 255 448 255 448 247.5 465.5 c 128,-1,9
 240 483 240 483 240 503 c 0,10,11
 240 508 240 508 240.5 513 c 128,-1,12
 241 518 241 518 242 523 c 2,13,-1
 267 641 l 2,14,15
 275 679 275 679 303 696.5 c 128,-1,16
 331 714 331 714 372 714 c 2,17,-1
 448 714 l 1,18,-1
 448 636 l 1,19,-1
 378 636 l 2,20,21
 347 636 347 636 341 608 c 2,22,-1
 338 592 l 1,23,24
 355 592 355 592 371.5 586.5 c 128,-1,25
 388 581 388 581 401 570 c 128,-1,26
 414 559 414 559 422 542 c 128,-1,27
 430 525 430 525 430 502 c 0,0,1
EndSplineSet
EndChar

StartChar: quoteright
Encoding: 8217 8217 79
Width: 612
Flags: W
LayerCount: 2
Fore
SplineSet
258 620 m 0,0,1
 258 640 258 640 265.5 657.5 c 128,-1,2
 273 675 273 675 286 687.5 c 128,-1,3
 299 700 299 700 316 707 c 128,-1,4
 333 714 333 714 353 714 c 0,5,6
 372 714 372 714 389.5 706.5 c 128,-1,7
 407 699 407 699 420 686.5 c 128,-1,8
 433 674 433 674 440.5 656.5 c 128,-1,9
 448 639 448 639 448 619 c 0,10,11
 448 614 448 614 447.5 609 c 128,-1,12
 447 604 447 604 446 599 c 2,13,-1
 421 481 l 2,14,15
 413 443 413 443 385 425.5 c 128,-1,16
 357 408 357 408 316 408 c 2,17,-1
 240 408 l 1,18,-1
 240 486 l 1,19,-1
 310 486 l 2,20,21
 341 486 341 486 347 514 c 2,22,-1
 350 530 l 1,23,24
 333 530 333 530 316.5 535.5 c 128,-1,25
 300 541 300 541 287 552 c 128,-1,26
 274 563 274 563 266 580 c 128,-1,27
 258 597 258 597 258 620 c 0,0,1
EndSplineSet
EndChar

StartChar: quotedblleft
Encoding: 8220 8220 80
Width: 612
Flags: W
LayerCount: 2
Fore
SplineSet
548 502 m 0,0,1
 548 482 548 482 540.5 464.5 c 128,-1,2
 533 447 533 447 520 434.5 c 128,-1,3
 507 422 507 422 489.5 415 c 128,-1,4
 472 408 472 408 453 408 c 0,5,6
 433 408 433 408 416 415.5 c 128,-1,7
 399 423 399 423 386 435.5 c 128,-1,8
 373 448 373 448 365.5 465.5 c 128,-1,9
 358 483 358 483 358 503 c 0,10,11
 358 508 358 508 358.5 513 c 128,-1,12
 359 518 359 518 360 523 c 2,13,-1
 385 641 l 2,14,15
 393 679 393 679 421 696.5 c 128,-1,16
 449 714 449 714 490 714 c 2,17,-1
 566 714 l 1,18,-1
 566 636 l 1,19,-1
 496 636 l 2,20,21
 465 636 465 636 459 608 c 2,22,-1
 456 592 l 1,23,24
 473 592 473 592 489.5 586.5 c 128,-1,25
 506 581 506 581 519 570 c 128,-1,26
 532 559 532 559 540 542 c 128,-1,27
 548 525 548 525 548 502 c 0,0,1
322 502 m 0,28,29
 322 482 322 482 314.5 464.5 c 128,-1,30
 307 447 307 447 294 434.5 c 128,-1,31
 281 422 281 422 263.5 415 c 128,-1,32
 246 408 246 408 227 408 c 0,33,34
 207 408 207 408 190 415.5 c 128,-1,35
 173 423 173 423 160 435.5 c 128,-1,36
 147 448 147 448 139.5 465.5 c 128,-1,37
 132 483 132 483 132 503 c 0,38,39
 132 508 132 508 132.5 513 c 128,-1,40
 133 518 133 518 134 523 c 2,41,-1
 159 641 l 2,42,43
 167 679 167 679 195 696.5 c 128,-1,44
 223 714 223 714 264 714 c 2,45,-1
 340 714 l 1,46,-1
 340 636 l 1,47,-1
 270 636 l 2,48,49
 239 636 239 636 233 608 c 2,50,-1
 230 592 l 1,51,52
 247 592 247 592 263.5 586.5 c 128,-1,53
 280 581 280 581 293 570 c 128,-1,54
 306 559 306 559 314 542 c 128,-1,55
 322 525 322 525 322 502 c 0,28,29
EndSplineSet
EndChar

StartChar: quotedblright
Encoding: 8221 8221 81
Width: 612
Flags: W
LayerCount: 2
Fore
SplineSet
148 620 m 0,0,1
 148 640 148 640 155.5 657.5 c 128,-1,2
 163 675 163 675 176 687.5 c 128,-1,3
 189 700 189 700 206 707 c 128,-1,4
 223 714 223 714 243 714 c 0,5,6
 262 714 262 714 279.5 706.5 c 128,-1,7
 297 699 297 699 310 686.5 c 128,-1,8
 323 674 323 674 330.5 656.5 c 128,-1,9
 338 639 338 639 338 619 c 0,10,11
 338 614 338 614 337.5 609 c 128,-1,12
 337 604 337 604 336 599 c 2,13,-1
 311 481 l 2,14,15
 303 443 303 443 275 425.5 c 128,-1,16
 247 408 247 408 206 408 c 2,17,-1
 130 408 l 1,18,-1
 130 486 l 1,19,-1
 200 486 l 2,20,21
 231 486 231 486 237 514 c 2,22,-1
 240 530 l 1,23,24
 223 530 223 530 206.5 535.5 c 128,-1,25
 190 541 190 541 177 552 c 128,-1,26
 164 563 164 563 156 580 c 128,-1,27
 148 597 148 597 148 620 c 0,0,1
374 620 m 0,28,29
 374 640 374 640 381.5 657.5 c 128,-1,30
 389 675 389 675 402 687.5 c 128,-1,31
 415 700 415 700 432 707 c 128,-1,32
 449 714 449 714 469 714 c 0,33,34
 488 714 488 714 505.5 706.5 c 128,-1,35
 523 699 523 699 536 686.5 c 128,-1,36
 549 674 549 674 556.5 656.5 c 128,-1,37
 564 639 564 639 564 619 c 0,38,39
 564 614 564 614 563.5 609 c 128,-1,40
 563 604 563 604 562 599 c 2,41,-1
 537 481 l 2,42,43
 529 443 529 443 501 425.5 c 128,-1,44
 473 408 473 408 432 408 c 2,45,-1
 356 408 l 1,46,-1
 356 486 l 1,47,-1
 426 486 l 2,48,49
 457 486 457 486 463 514 c 2,50,-1
 466 530 l 1,51,52
 449 530 449 530 432.5 535.5 c 128,-1,53
 416 541 416 541 403 552 c 128,-1,54
 390 563 390 563 382 580 c 128,-1,55
 374 597 374 597 374 620 c 0,28,29
EndSplineSet
EndChar

StartChar: quotesinglbase
Encoding: 8218 8218 82
Width: 612
Flags: W
LayerCount: 2
Fore
SplineSet
182 95 m 0,0,1
 182 115 182 115 189.5 132.5 c 128,-1,2
 197 150 197 150 210 162.5 c 128,-1,3
 223 175 223 175 240 182 c 128,-1,4
 257 189 257 189 277 189 c 0,5,6
 296 189 296 189 313.5 181.5 c 128,-1,7
 331 174 331 174 344 161.5 c 128,-1,8
 357 149 357 149 364.5 131.5 c 128,-1,9
 372 114 372 114 372 94 c 0,10,11
 372 89 372 89 371.5 84 c 128,-1,12
 371 79 371 79 370 74 c 2,13,-1
 345 -44 l 2,14,15
 337 -82 337 -82 309 -99.5 c 128,-1,16
 281 -117 281 -117 240 -117 c 2,17,-1
 164 -117 l 1,18,-1
 164 -39 l 1,19,-1
 234 -39 l 2,20,21
 265 -39 265 -39 271 -11 c 2,22,-1
 274 5 l 1,23,24
 257 5 257 5 240.5 10.5 c 128,-1,25
 224 16 224 16 211 27 c 128,-1,26
 198 38 198 38 190 55 c 128,-1,27
 182 72 182 72 182 95 c 0,0,1
EndSplineSet
EndChar

StartChar: quotedblbase
Encoding: 8222 8222 83
Width: 612
Flags: W
LayerCount: 2
Fore
SplineSet
54 95 m 0,0,1
 54 115 54 115 61.5 132.5 c 128,-1,2
 69 150 69 150 82 162.5 c 128,-1,3
 95 175 95 175 112 182 c 128,-1,4
 129 189 129 189 149 189 c 0,5,6
 168 189 168 189 185.5 181.5 c 128,-1,7
 203 174 203 174 216 161.5 c 128,-1,8
 229 149 229 149 236.5 131.5 c 128,-1,9
 244 114 244 114 244 94 c 0,10,11
 244 89 244 89 243.5 84 c 128,-1,12
 243 79 243 79 242 74 c 2,13,-1
 217 -44 l 2,14,15
 209 -82 209 -82 181 -99.5 c 128,-1,16
 153 -117 153 -117 112 -117 c 2,17,-1
 36 -117 l 1,18,-1
 36 -39 l 1,19,-1
 106 -39 l 2,20,21
 137 -39 137 -39 143 -11 c 2,22,-1
 146 5 l 1,23,24
 129 5 129 5 112.5 10.5 c 128,-1,25
 96 16 96 16 83 27 c 128,-1,26
 70 38 70 38 62 55 c 128,-1,27
 54 72 54 72 54 95 c 0,0,1
280 95 m 0,28,29
 280 115 280 115 287.5 132.5 c 128,-1,30
 295 150 295 150 308 162.5 c 128,-1,31
 321 175 321 175 338 182 c 128,-1,32
 355 189 355 189 375 189 c 0,33,34
 394 189 394 189 411.5 181.5 c 128,-1,35
 429 174 429 174 442 161.5 c 128,-1,36
 455 149 455 149 462.5 131.5 c 128,-1,37
 470 114 470 114 470 94 c 0,38,39
 470 89 470 89 469.5 84 c 128,-1,40
 469 79 469 79 468 74 c 2,41,-1
 443 -44 l 2,42,43
 435 -82 435 -82 407 -99.5 c 128,-1,44
 379 -117 379 -117 338 -117 c 2,45,-1
 262 -117 l 1,46,-1
 262 -39 l 1,47,-1
 332 -39 l 2,48,49
 363 -39 363 -39 369 -11 c 2,50,-1
 372 5 l 1,51,52
 355 5 355 5 338.5 10.5 c 128,-1,53
 322 16 322 16 309 27 c 128,-1,54
 296 38 296 38 288 55 c 128,-1,55
 280 72 280 72 280 95 c 0,28,29
EndSplineSet
EndChar

StartChar: period
Encoding: 46 46 84
Width: 612
Flags: W
LayerCount: 2
Fore
SplineSet
401 81 m 256,0,1
 401 61 401 61 393.5 43.5 c 128,-1,2
 386 26 386 26 373 13.5 c 128,-1,3
 360 1 360 1 342.5 -6.5 c 128,-1,4
 325 -14 325 -14 306 -14 c 0,5,6
 286 -14 286 -14 269 -6.5 c 128,-1,7
 252 1 252 1 239 13.5 c 128,-1,8
 226 26 226 26 218.5 43.5 c 128,-1,9
 211 61 211 61 211 81 c 256,10,11
 211 101 211 101 218.5 118.5 c 128,-1,12
 226 136 226 136 239 148.5 c 128,-1,13
 252 161 252 161 269 168.5 c 128,-1,14
 286 176 286 176 306 176 c 0,15,16
 325 176 325 176 342.5 168.5 c 128,-1,17
 360 161 360 161 373 148.5 c 128,-1,18
 386 136 386 136 393.5 118.5 c 128,-1,19
 401 101 401 101 401 81 c 256,0,1
EndSplineSet
EndChar

StartChar: comma
Encoding: 44 44 85
Width: 612
Flags: W
LayerCount: 2
Fore
SplineSet
174 82 m 0,0,1
 174 102 174 102 181.5 119.5 c 128,-1,2
 189 137 189 137 202 149.5 c 128,-1,3
 215 162 215 162 232 169 c 128,-1,4
 249 176 249 176 269 176 c 0,5,6
 288 176 288 176 305.5 168.5 c 128,-1,7
 323 161 323 161 336 148.5 c 128,-1,8
 349 136 349 136 356.5 118.5 c 128,-1,9
 364 101 364 101 364 81 c 0,10,11
 364 76 364 76 363.5 71 c 128,-1,12
 363 66 363 66 362 61 c 2,13,-1
 337 -58 l 2,14,15
 329 -96 329 -96 301 -113.5 c 128,-1,16
 273 -131 273 -131 232 -131 c 2,17,-1
 150 -131 l 1,18,-1
 150 -53 l 1,19,-1
 226 -53 l 2,20,21
 257 -53 257 -53 263 -25 c 2,22,-1
 266 -8 l 1,23,24
 249 -8 249 -8 232.5 -2.5 c 128,-1,25
 216 3 216 3 203 14.5 c 128,-1,26
 190 26 190 26 182 42.5 c 128,-1,27
 174 59 174 59 174 82 c 0,0,1
EndSplineSet
EndChar

StartChar: colon
Encoding: 58 58 86
Width: 612
Flags: W
LayerCount: 2
Fore
SplineSet
354 81 m 256,0,1
 354 61 354 61 346.5 43.5 c 128,-1,2
 339 26 339 26 326 13.5 c 128,-1,3
 313 1 313 1 295.5 -6.5 c 128,-1,4
 278 -14 278 -14 259 -14 c 0,5,6
 239 -14 239 -14 222 -6.5 c 128,-1,7
 205 1 205 1 192 13.5 c 128,-1,8
 179 26 179 26 171.5 43.5 c 128,-1,9
 164 61 164 61 164 81 c 256,10,11
 164 101 164 101 171.5 118.5 c 128,-1,12
 179 136 179 136 192 148.5 c 128,-1,13
 205 161 205 161 222 168.5 c 128,-1,14
 239 176 239 176 259 176 c 0,15,16
 278 176 278 176 295.5 168.5 c 128,-1,17
 313 161 313 161 326 148.5 c 128,-1,18
 339 136 339 136 346.5 118.5 c 128,-1,19
 354 101 354 101 354 81 c 256,0,1
420 415 m 256,20,21
 420 395 420 395 412.5 377.5 c 128,-1,22
 405 360 405 360 392 347.5 c 128,-1,23
 379 335 379 335 361.5 327.5 c 128,-1,24
 344 320 344 320 325 320 c 0,25,26
 305 320 305 320 288 327.5 c 128,-1,27
 271 335 271 335 258 347.5 c 128,-1,28
 245 360 245 360 237.5 377.5 c 128,-1,29
 230 395 230 395 230 415 c 256,30,31
 230 435 230 435 237.5 452.5 c 128,-1,32
 245 470 245 470 258 482.5 c 128,-1,33
 271 495 271 495 288 502.5 c 128,-1,34
 305 510 305 510 325 510 c 0,35,36
 344 510 344 510 361.5 502.5 c 128,-1,37
 379 495 379 495 392 482.5 c 128,-1,38
 405 470 405 470 412.5 452.5 c 128,-1,39
 420 435 420 435 420 415 c 256,20,21
EndSplineSet
EndChar

StartChar: semicolon
Encoding: 59 59 87
Width: 612
Flags: W
LayerCount: 2
Fore
SplineSet
420 415 m 256,0,1
 420 395 420 395 412.5 377.5 c 128,-1,2
 405 360 405 360 392 347.5 c 128,-1,3
 379 335 379 335 361.5 327.5 c 128,-1,4
 344 320 344 320 325 320 c 0,5,6
 305 320 305 320 288 327.5 c 128,-1,7
 271 335 271 335 258 347.5 c 128,-1,8
 245 360 245 360 237.5 377.5 c 128,-1,9
 230 395 230 395 230 415 c 256,10,11
 230 435 230 435 237.5 452.5 c 128,-1,12
 245 470 245 470 258 482.5 c 128,-1,13
 271 495 271 495 288 502.5 c 128,-1,14
 305 510 305 510 325 510 c 0,15,16
 344 510 344 510 361.5 502.5 c 128,-1,17
 379 495 379 495 392 482.5 c 128,-1,18
 405 470 405 470 412.5 452.5 c 128,-1,19
 420 435 420 435 420 415 c 256,0,1
164 82 m 0,20,21
 164 102 164 102 171.5 119.5 c 128,-1,22
 179 137 179 137 192 149.5 c 128,-1,23
 205 162 205 162 222 169 c 128,-1,24
 239 176 239 176 259 176 c 0,25,26
 278 176 278 176 295.5 168.5 c 128,-1,27
 313 161 313 161 326 148.5 c 128,-1,28
 339 136 339 136 346.5 118.5 c 128,-1,29
 354 101 354 101 354 81 c 0,30,31
 354 76 354 76 353.5 71 c 128,-1,32
 353 66 353 66 352 61 c 2,33,-1
 327 -58 l 2,34,35
 319 -96 319 -96 291 -113.5 c 128,-1,36
 263 -131 263 -131 222 -131 c 2,37,-1
 140 -131 l 1,38,-1
 140 -53 l 1,39,-1
 216 -53 l 2,40,41
 247 -53 247 -53 253 -25 c 2,42,-1
 256 -8 l 1,43,44
 239 -8 239 -8 222.5 -2.5 c 128,-1,45
 206 3 206 3 193 14.5 c 128,-1,46
 180 26 180 26 172 42.5 c 128,-1,47
 164 59 164 59 164 82 c 0,20,21
EndSplineSet
EndChar

StartChar: ellipsis
Encoding: 8230 8230 88
Width: 612
Flags: W
LayerCount: 2
Fore
SplineSet
591 81 m 256,0,1
 591 61 591 61 583.5 43.5 c 128,-1,2
 576 26 576 26 563 13.5 c 128,-1,3
 550 1 550 1 532.5 -6.5 c 128,-1,4
 515 -14 515 -14 496 -14 c 0,5,6
 476 -14 476 -14 459 -6.5 c 128,-1,7
 442 1 442 1 429 13.5 c 128,-1,8
 416 26 416 26 408.5 43.5 c 128,-1,9
 401 61 401 61 401 81 c 256,10,11
 401 101 401 101 408.5 118.5 c 128,-1,12
 416 136 416 136 429 148.5 c 128,-1,13
 442 161 442 161 459 168.5 c 128,-1,14
 476 176 476 176 496 176 c 0,15,16
 515 176 515 176 532.5 168.5 c 128,-1,17
 550 161 550 161 563 148.5 c 128,-1,18
 576 136 576 136 583.5 118.5 c 128,-1,19
 591 101 591 101 591 81 c 256,0,1
401 81 m 256,20,21
 401 61 401 61 393.5 43.5 c 128,-1,22
 386 26 386 26 373 13.5 c 128,-1,23
 360 1 360 1 342.5 -6.5 c 128,-1,24
 325 -14 325 -14 306 -14 c 0,25,26
 286 -14 286 -14 269 -6.5 c 128,-1,27
 252 1 252 1 239 13.5 c 128,-1,28
 226 26 226 26 218.5 43.5 c 128,-1,29
 211 61 211 61 211 81 c 1,30,31
 211 61 211 61 203.5 43.5 c 128,-1,32
 196 26 196 26 183 13.5 c 128,-1,33
 170 1 170 1 152.5 -6.5 c 128,-1,34
 135 -14 135 -14 116 -14 c 0,35,36
 96 -14 96 -14 79 -6.5 c 128,-1,37
 62 1 62 1 49 13.5 c 128,-1,38
 36 26 36 26 28.5 43.5 c 128,-1,39
 21 61 21 61 21 81 c 256,40,41
 21 101 21 101 28.5 118.5 c 128,-1,42
 36 136 36 136 49 148.5 c 128,-1,43
 62 161 62 161 79 168.5 c 128,-1,44
 96 176 96 176 116 176 c 0,45,46
 135 176 135 176 152.5 168.5 c 128,-1,47
 170 161 170 161 183 148.5 c 128,-1,48
 196 136 196 136 203.5 118.5 c 128,-1,49
 211 101 211 101 211 81 c 1,50,51
 211 101 211 101 218.5 118.5 c 128,-1,52
 226 136 226 136 239 148.5 c 128,-1,53
 252 161 252 161 269 168.5 c 128,-1,54
 286 176 286 176 306 176 c 0,55,56
 325 176 325 176 342.5 168.5 c 128,-1,57
 360 161 360 161 373 148.5 c 128,-1,58
 386 136 386 136 393.5 118.5 c 128,-1,59
 401 101 401 101 401 81 c 256,20,21
EndSplineSet
EndChar

StartChar: exclam
Encoding: 33 33 89
Width: 612
Flags: W
LayerCount: 2
Fore
SplineSet
454 700 m 1,0,-1
 350 218 l 1,1,-1
 218 218 l 1,2,-1
 322 700 l 1,3,-1
 454 700 l 1,0,-1
356 81 m 256,4,5
 356 61 356 61 348.5 43.5 c 128,-1,6
 341 26 341 26 328 13.5 c 128,-1,7
 315 1 315 1 297.5 -6.5 c 128,-1,8
 280 -14 280 -14 261 -14 c 0,9,10
 241 -14 241 -14 224 -6.5 c 128,-1,11
 207 1 207 1 194 13.5 c 128,-1,12
 181 26 181 26 173.5 43.5 c 128,-1,13
 166 61 166 61 166 81 c 256,14,15
 166 101 166 101 173.5 118.5 c 128,-1,16
 181 136 181 136 194 148.5 c 128,-1,17
 207 161 207 161 224 168.5 c 128,-1,18
 241 176 241 176 261 176 c 0,19,20
 280 176 280 176 297.5 168.5 c 128,-1,21
 315 161 315 161 328 148.5 c 128,-1,22
 341 136 341 136 348.5 118.5 c 128,-1,23
 356 101 356 101 356 81 c 256,4,5
EndSplineSet
EndChar

StartChar: exclamdown
Encoding: 161 161 90
Width: 612
Flags: W
LayerCount: 2
Fore
SplineSet
134 -200 m 1,0,-1
 238 282 l 1,1,-1
 370 282 l 1,2,-1
 266 -200 l 1,3,-1
 134 -200 l 1,0,-1
232 419 m 256,4,5
 232 439 232 439 239.5 456.5 c 128,-1,6
 247 474 247 474 260 486.5 c 128,-1,7
 273 499 273 499 290 506.5 c 128,-1,8
 307 514 307 514 327 514 c 0,9,10
 346 514 346 514 363.5 506.5 c 128,-1,11
 381 499 381 499 394 486.5 c 128,-1,12
 407 474 407 474 414.5 456.5 c 128,-1,13
 422 439 422 439 422 419 c 256,14,15
 422 399 422 399 414.5 381.5 c 128,-1,16
 407 364 407 364 394 351.5 c 128,-1,17
 381 339 381 339 363.5 331.5 c 128,-1,18
 346 324 346 324 327 324 c 0,19,20
 307 324 307 324 290 331.5 c 128,-1,21
 273 339 273 339 260 351.5 c 128,-1,22
 247 364 247 364 239.5 381.5 c 128,-1,23
 232 399 232 399 232 419 c 256,4,5
EndSplineSet
EndChar

StartChar: question
Encoding: 63 63 91
Width: 612
Flags: W
LayerCount: 2
Fore
SplineSet
334 390 m 2,0,1
 387 390 387 390 417 424 c 128,-1,2
 447 458 447 458 447 508 c 0,3,4
 447 541 447 541 423 564.5 c 128,-1,5
 399 588 399 588 354 588 c 0,6,7
 326 588 326 588 303 578.5 c 128,-1,8
 280 569 280 569 263 553 c 128,-1,9
 246 537 246 537 234.5 515.5 c 128,-1,10
 223 494 223 494 219 470 c 2,11,-1
 212 434 l 1,12,-1
 80 434 l 1,13,-1
 90 482 l 2,14,15
 101 534 101 534 124 576.5 c 128,-1,16
 147 619 147 619 182 649.5 c 128,-1,17
 217 680 217 680 264 697 c 128,-1,18
 311 714 311 714 370 714 c 0,19,20
 418 714 418 714 457 698.5 c 128,-1,21
 496 683 496 683 524 656.5 c 128,-1,22
 552 630 552 630 567 595 c 128,-1,23
 582 560 582 560 582 520 c 0,24,25
 582 475 582 475 566 431 c 128,-1,26
 550 387 550 387 520.5 352.5 c 128,-1,27
 491 318 491 318 448.5 296.5 c 128,-1,28
 406 275 406 275 354 275 c 0,29,30
 322 275 322 275 316 244 c 2,31,-1
 310 218 l 1,32,-1
 184 218 l 1,33,-1
 201 298 l 2,34,35
 210 340 210 340 239 365 c 128,-1,36
 268 390 268 390 312 390 c 2,37,-1
 334 390 l 2,0,1
324 81 m 256,38,39
 324 61 324 61 316.5 43.5 c 128,-1,40
 309 26 309 26 296 13.5 c 128,-1,41
 283 1 283 1 265.5 -6.5 c 128,-1,42
 248 -14 248 -14 229 -14 c 0,43,44
 209 -14 209 -14 192 -6.5 c 128,-1,45
 175 1 175 1 162 13.5 c 128,-1,46
 149 26 149 26 141.5 43.5 c 128,-1,47
 134 61 134 61 134 81 c 256,48,49
 134 101 134 101 141.5 118.5 c 128,-1,50
 149 136 149 136 162 148.5 c 128,-1,51
 175 161 175 161 192 168.5 c 128,-1,52
 209 176 209 176 229 176 c 0,53,54
 248 176 248 176 265.5 168.5 c 128,-1,55
 283 161 283 161 296 148.5 c 128,-1,56
 309 136 309 136 316.5 118.5 c 128,-1,57
 324 101 324 101 324 81 c 256,38,39
EndSplineSet
EndChar

StartChar: questiondown
Encoding: 191 191 92
Width: 612
Flags: W
LayerCount: 2
Fore
SplineSet
252 110 m 2,0,1
 199 110 199 110 169 76 c 128,-1,2
 139 42 139 42 139 -8 c 0,3,4
 139 -41 139 -41 163 -64.5 c 128,-1,5
 187 -88 187 -88 232 -88 c 0,6,7
 260 -88 260 -88 282.5 -78.5 c 128,-1,8
 305 -69 305 -69 322.5 -53 c 128,-1,9
 340 -37 340 -37 351 -15.5 c 128,-1,10
 362 6 362 6 367 30 c 2,11,-1
 374 66 l 1,12,-1
 506 66 l 1,13,-1
 496 18 l 2,14,15
 485 -34 485 -34 462 -76.5 c 128,-1,16
 439 -119 439 -119 404 -149.5 c 128,-1,17
 369 -180 369 -180 322 -197 c 128,-1,18
 275 -214 275 -214 216 -214 c 0,19,20
 168 -214 168 -214 129 -198.5 c 128,-1,21
 90 -183 90 -183 62 -156.5 c 128,-1,22
 34 -130 34 -130 19 -95 c 128,-1,23
 4 -60 4 -60 4 -20 c 0,24,25
 4 25 4 25 20 69 c 128,-1,26
 36 113 36 113 65.5 147.5 c 128,-1,27
 95 182 95 182 137 203.5 c 128,-1,28
 179 225 179 225 232 225 c 0,29,30
 264 225 264 225 270 256 c 2,31,-1
 276 282 l 1,32,-1
 402 282 l 1,33,-1
 385 202 l 2,34,35
 376 160 376 160 347 135 c 128,-1,36
 318 110 318 110 274 110 c 2,37,-1
 252 110 l 2,0,1
262 419 m 256,38,39
 262 439 262 439 269.5 456.5 c 128,-1,40
 277 474 277 474 290 486.5 c 128,-1,41
 303 499 303 499 320 506.5 c 128,-1,42
 337 514 337 514 357 514 c 0,43,44
 376 514 376 514 393.5 506.5 c 128,-1,45
 411 499 411 499 424 486.5 c 128,-1,46
 437 474 437 474 444.5 456.5 c 128,-1,47
 452 439 452 439 452 419 c 256,48,49
 452 399 452 399 444.5 381.5 c 128,-1,50
 437 364 437 364 424 351.5 c 128,-1,51
 411 339 411 339 393.5 331.5 c 128,-1,52
 376 324 376 324 357 324 c 0,53,54
 337 324 337 324 320 331.5 c 128,-1,55
 303 339 303 339 290 351.5 c 128,-1,56
 277 364 277 364 269.5 381.5 c 128,-1,57
 262 399 262 399 262 419 c 256,38,39
EndSplineSet
EndChar

StartChar: guilsinglleft
Encoding: 8249 8249 93
Width: 612
Flags: W
LayerCount: 2
Fore
SplineSet
343 0 m 1,0,-1
 149 162 l 1,1,-1
 149 330 l 1,2,-1
 448 496 l 1,3,-1
 454 496 l 1,4,-1
 454 372 l 1,5,-1
 239 252 l 1,6,-1
 239 234 l 1,7,-1
 349 146 l 1,8,-1
 349 0 l 1,9,-1
 343 0 l 1,0,-1
EndSplineSet
EndChar

StartChar: guilsinglright
Encoding: 8250 8250 94
Width: 612
Flags: W
LayerCount: 2
Fore
SplineSet
234 496 m 1,0,-1
 428 334 l 1,1,-1
 428 166 l 1,2,-1
 129 0 l 1,3,-1
 123 0 l 1,4,-1
 123 124 l 1,5,-1
 338 244 l 1,6,-1
 338 262 l 1,7,-1
 228 350 l 1,8,-1
 228 496 l 1,9,-1
 234 496 l 1,0,-1
EndSplineSet
EndChar

StartChar: guillemotleft
Encoding: 171 171 95
Width: 612
Flags: W
LayerCount: 2
Fore
SplineSet
475 0 m 1,0,-1
 281 162 l 1,1,-1
 281 330 l 1,2,-1
 580 496 l 1,3,-1
 586 496 l 1,4,-1
 586 372 l 1,5,-1
 371 252 l 1,6,-1
 371 234 l 1,7,-1
 481 146 l 1,8,-1
 481 0 l 1,9,-1
 475 0 l 1,0,-1
223 0 m 1,10,-1
 29 162 l 1,11,-1
 29 330 l 1,12,-1
 328 496 l 1,13,-1
 334 496 l 1,14,-1
 334 372 l 1,15,-1
 119 252 l 1,16,-1
 119 234 l 1,17,-1
 229 146 l 1,18,-1
 229 0 l 1,19,-1
 223 0 l 1,10,-1
EndSplineSet
EndChar

StartChar: guillemotright
Encoding: 187 187 96
Width: 612
Flags: W
LayerCount: 2
Fore
SplineSet
111 496 m 1,0,-1
 305 334 l 1,1,-1
 305 166 l 1,2,-1
 6 0 l 1,3,-1
 0 0 l 1,4,-1
 0 124 l 1,5,-1
 215 244 l 1,6,-1
 215 262 l 1,7,-1
 105 350 l 1,8,-1
 105 496 l 1,9,-1
 111 496 l 1,0,-1
363 496 m 1,10,-1
 557 334 l 1,11,-1
 557 166 l 1,12,-1
 258 0 l 1,13,-1
 252 0 l 1,14,-1
 252 124 l 1,15,-1
 467 244 l 1,16,-1
 467 262 l 1,17,-1
 357 350 l 1,18,-1
 357 496 l 1,19,-1
 363 496 l 1,10,-1
EndSplineSet
EndChar

StartChar: hyphen
Encoding: 45 45 97
Width: 612
Flags: W
LayerCount: 2
Fore
SplineSet
150 332 m 1,0,-1
 462 332 l 1,1,-1
 462 218 l 1,2,-1
 150 218 l 1,3,-1
 150 332 l 1,0,-1
EndSplineSet
EndChar

StartChar: endash
Encoding: 8211 8211 98
Width: 612
Flags: W
LayerCount: 2
Fore
SplineSet
67 332 m 1,0,-1
 545 332 l 1,1,-1
 545 218 l 1,2,-1
 67 218 l 1,3,-1
 67 332 l 1,0,-1
EndSplineSet
EndChar

StartChar: emdash
Encoding: 8212 8212 99
Width: 612
Flags: W
LayerCount: 2
Fore
SplineSet
0 332 m 1,0,-1
 600 332 l 1,1,-1
 600 218 l 1,2,-1
 0 218 l 1,3,-1
 0 332 l 1,0,-1
EndSplineSet
EndChar

StartChar: periodcentered
Encoding: 183 183 100
Width: 612
Flags: W
LayerCount: 2
Fore
SplineSet
401 350 m 256,0,1
 401 330 401 330 393.5 312.5 c 128,-1,2
 386 295 386 295 373 282.5 c 128,-1,3
 360 270 360 270 342.5 262.5 c 128,-1,4
 325 255 325 255 306 255 c 0,5,6
 286 255 286 255 269 262.5 c 128,-1,7
 252 270 252 270 239 282.5 c 128,-1,8
 226 295 226 295 218.5 312.5 c 128,-1,9
 211 330 211 330 211 350 c 256,10,11
 211 370 211 370 218.5 387.5 c 128,-1,12
 226 405 226 405 239 417.5 c 128,-1,13
 252 430 252 430 269 437.5 c 128,-1,14
 286 445 286 445 306 445 c 0,15,16
 325 445 325 445 342.5 437.5 c 128,-1,17
 360 430 360 430 373 417.5 c 128,-1,18
 386 405 386 405 393.5 387.5 c 128,-1,19
 401 370 401 370 401 350 c 256,0,1
EndSplineSet
Substitution2: "Single Substitution lookup 37 subtable" periodcentered
Substitution2: "'aalt' Access All Alternates in Latin lookup 0 subtable" periodcentered
EndChar

StartChar: bullet
Encoding: 8226 8226 101
Width: 612
Flags: W
LayerCount: 2
Fore
SplineSet
162 350 m 256,0,1
 162 380 162 380 173.5 406 c 128,-1,2
 185 432 185 432 204.5 451.5 c 128,-1,3
 224 471 224 471 250 482.5 c 128,-1,4
 276 494 276 494 306 494 c 256,5,6
 336 494 336 494 362 482.5 c 128,-1,7
 388 471 388 471 407.5 451.5 c 128,-1,8
 427 432 427 432 438.5 406 c 128,-1,9
 450 380 450 380 450 350 c 256,10,11
 450 320 450 320 438.5 294 c 128,-1,12
 427 268 427 268 407.5 248.5 c 128,-1,13
 388 229 388 229 362 217.5 c 128,-1,14
 336 206 336 206 306 206 c 256,15,16
 276 206 276 206 250 217.5 c 128,-1,17
 224 229 224 229 204.5 248.5 c 128,-1,18
 185 268 185 268 173.5 294 c 128,-1,19
 162 320 162 320 162 350 c 256,0,1
EndSplineSet
EndChar

StartChar: underscore
Encoding: 95 95 102
Width: 612
Flags: W
LayerCount: 2
Fore
SplineSet
0 -48 m 1,0,-1
 490 -48 l 1,1,-1
 490 -162 l 1,2,-1
 0 -162 l 1,3,-1
 0 -48 l 1,0,-1
EndSplineSet
EndChar

StartChar: at
Encoding: 64 64 103
Width: 612
Flags: W
LayerCount: 2
Fore
SplineSet
112 510 m 1,0,-1
 112 630 l 1,1,-1
 398 630 l 2,2,3
 441 630 441 630 477.5 618.5 c 128,-1,4
 514 607 514 607 540.5 584.5 c 128,-1,5
 567 562 567 562 581.5 529.5 c 128,-1,6
 596 497 596 497 596 454 c 0,7,8
 596 427 596 427 590 396 c 2,9,-1
 523 82 l 2,10,11
 513 35 513 35 482.5 10.5 c 128,-1,12
 452 -14 452 -14 408 -14 c 2,13,-1
 298 -14 l 2,14,15
 265 -14 265 -14 249.5 4 c 128,-1,16
 234 22 234 22 234 48 c 1,17,-1
 216 48 l 1,18,19
 205 22 205 22 182.5 4 c 128,-1,20
 160 -14 160 -14 118 -14 c 0,21,22
 67 -14 67 -14 32.5 26.5 c 128,-1,23
 -2 67 -2 67 -2 148 c 0,24,25
 -2 197 -2 197 9 248.5 c 128,-1,26
 20 300 20 300 44 342 c 128,-1,27
 68 384 68 384 106 411 c 128,-1,28
 144 438 144 438 198 438 c 0,29,30
 239 438 239 438 256 422 c 128,-1,31
 273 406 273 406 277 388 c 1,32,-1
 295 388 l 1,33,-1
 302 424 l 1,34,-1
 422 424 l 1,35,-1
 360 132 l 2,36,37
 359 127 359 127 359 124 c 0,38,39
 359 113 359 113 365.5 106.5 c 128,-1,40
 372 100 372 100 384 100 c 0,41,42
 407 100 407 100 413 128 c 2,43,-1
 468 386 l 2,44,45
 473 411 473 411 473 427 c 0,46,47
 473 468 473 468 449 489 c 128,-1,48
 425 510 425 510 374 510 c 2,49,-1
 112 510 l 1,0,-1
174 100 m 0,50,51
 199 100 199 100 216 114.5 c 128,-1,52
 233 129 233 129 243.5 151.5 c 128,-1,53
 254 174 254 174 258.5 201 c 128,-1,54
 263 228 263 228 263 254 c 0,55,56
 263 283 263 283 251.5 303.5 c 128,-1,57
 240 324 240 324 214 324 c 0,58,59
 189 324 189 324 171.5 310.5 c 128,-1,60
 154 297 154 297 143 275.5 c 128,-1,61
 132 254 132 254 127 227 c 128,-1,62
 122 200 122 200 122 172 c 0,63,64
 122 137 122 137 135 118.5 c 128,-1,65
 148 100 148 100 174 100 c 0,50,51
EndSplineSet
Substitution2: "'case' Case-Sensitive Forms in Latin lookup 31 subtable" at.cap
Substitution2: "'case' Case-Sensitive Forms in Latin lookup 30 subtable" at.cap
Substitution2: "'aalt' Access All Alternates in Latin lookup 0 subtable" at.cap
EndChar

StartChar: ampersand
Encoding: 38 38 104
Width: 612
Flags: W
LayerCount: 2
Fore
SplineSet
355 294 m 1,0,-1
 250 294 l 2,1,2
 227 294 227 294 206 286.5 c 128,-1,3
 185 279 185 279 169 265.5 c 128,-1,4
 153 252 153 252 143.5 232.5 c 128,-1,5
 134 213 134 213 134 188 c 0,6,7
 134 153 134 153 156.5 136.5 c 128,-1,8
 179 120 179 120 214 120 c 2,9,-1
 318 120 l 1,10,-1
 355 294 l 1,0,-1
524 496 m 1,11,-1
 506 414 l 1,12,-1
 586 414 l 1,13,-1
 586 288 l 1,14,-1
 479 288 l 1,15,-1
 418 0 l 1,16,-1
 176 0 l 2,17,18
 96 0 96 0 49 40.5 c 128,-1,19
 2 81 2 81 2 150 c 0,20,21
 2 224 2 224 44.5 275.5 c 128,-1,22
 87 327 87 327 162 342 c 1,23,-1
 162 360 l 1,24,25
 126 375 126 375 98.5 404.5 c 128,-1,26
 71 434 71 434 71 488 c 0,27,28
 71 534 71 534 87.5 572.5 c 128,-1,29
 104 611 104 611 135 639.5 c 128,-1,30
 166 668 166 668 211 684 c 128,-1,31
 256 700 256 700 314 700 c 2,32,-1
 418 700 l 1,33,-1
 418 580 l 1,34,-1
 310 580 l 2,35,36
 287 580 287 580 266.5 574 c 128,-1,37
 246 568 246 568 230 555.5 c 128,-1,38
 214 543 214 543 205 523.5 c 128,-1,39
 196 504 196 504 196 478 c 0,40,41
 196 445 196 445 219.5 429.5 c 128,-1,42
 243 414 243 414 278 414 c 2,43,-1
 380 414 l 1,44,-1
 398 496 l 1,45,-1
 524 496 l 1,11,-1
EndSplineSet
EndChar

StartChar: asterisk
Encoding: 42 42 105
Width: 612
Flags: W
LayerCount: 2
Fore
SplineSet
401 116 m 1,0,-1
 345 203 l 1,1,-1
 328 282 l 1,2,-1
 311 278 l 1,3,-1
 323 201 l 1,4,-1
 301 97 l 1,5,-1
 207 117 l 1,6,-1
 230 221 l 1,7,-1
 272 287 l 1,8,-1
 258 297 l 1,9,-1
 210 231 l 1,10,-1
 124 175 l 1,11,-1
 72 255 l 1,12,-1
 159 311 l 1,13,-1
 238 328 l 1,14,-1
 234 345 l 1,15,-1
 157 333 l 1,16,-1
 53 355 l 1,17,-1
 73 449 l 1,18,-1
 177 426 l 1,19,-1
 243 384 l 1,20,-1
 253 398 l 1,21,-1
 187 446 l 1,22,-1
 131 532 l 1,23,-1
 211 584 l 1,24,-1
 267 497 l 1,25,-1
 284 418 l 1,26,-1
 301 422 l 1,27,-1
 289 499 l 1,28,-1
 311 603 l 1,29,-1
 405 583 l 1,30,-1
 382 479 l 1,31,-1
 340 413 l 1,32,-1
 354 403 l 1,33,-1
 402 469 l 1,34,-1
 488 525 l 1,35,-1
 540 445 l 1,36,-1
 453 389 l 1,37,-1
 374 372 l 1,38,-1
 378 355 l 1,39,-1
 455 367 l 1,40,-1
 559 345 l 1,41,-1
 539 251 l 1,42,-1
 435 274 l 1,43,-1
 369 316 l 1,44,-1
 359 302 l 1,45,-1
 425 254 l 1,46,-1
 481 168 l 1,47,-1
 401 116 l 1,0,-1
EndSplineSet
Substitution2: "'case' Case-Sensitive Forms in Latin lookup 31 subtable" asterisk.cap
Substitution2: "'case' Case-Sensitive Forms in Latin lookup 30 subtable" asterisk.cap
Substitution2: "'aalt' Access All Alternates in Latin lookup 0 subtable" asterisk.cap
EndChar

StartChar: Aogonek
Encoding: 260 260 115
Width: 612
Flags: W
LayerCount: 2
Fore
SplineSet
475 0 m 1,0,-1
 450 -56 l 2,1,2
 447 -64 447 -64 447 -70 c 0,3,4
 447 -86 447 -86 466 -86 c 2,5,-1
 503 -86 l 1,6,-1
 503 -170 l 1,7,-1
 421 -170 l 2,8,9
 389 -170 389 -170 370 -154 c 128,-1,10
 351 -138 351 -138 351 -109 c 0,11,12
 351 -89 351 -89 361 -66 c 2,13,-1
 390 0 l 1,14,-1
 388 150 l 1,15,-1
 157 150 l 1,16,-1
 93 0 l 1,17,-1
 -48 0 l 1,18,-1
 260 700 l 1,19,-1
 504 700 l 1,20,-1
 521 0 l 1,21,-1
 475 0 l 1,0,-1
210 276 m 1,22,-1
 386 276 l 1,23,-1
 381 634 l 1,24,-1
 363 634 l 1,25,-1
 210 276 l 1,22,-1
EndSplineSet
EndChar

StartChar: AE
Encoding: 198 198 128
Width: 612
Flags: W
LayerCount: 2
Fore
SplineSet
214 12 m 1,0,-1
 243 150 l 1,1,-1
 129 150 l 1,2,-1
 63 0 l 1,3,-1
 -68 0 l 1,4,-1
 -68 12 l 1,5,-1
 241 700 l 1,6,-1
 628 700 l 1,7,-1
 628 574 l 1,8,-1
 465 574 l 1,9,-1
 431 414 l 1,10,-1
 567 414 l 1,11,-1
 567 288 l 1,12,-1
 404 288 l 1,13,-1
 370 126 l 1,14,-1
 518 126 l 1,15,-1
 518 0 l 1,16,-1
 214 0 l 1,17,-1
 214 12 l 1,0,-1
184 276 m 1,18,-1
 270 276 l 1,19,-1
 333 574 l 1,20,-1
 315 574 l 1,21,-1
 184 276 l 1,18,-1
EndSplineSet
EndChar

StartChar: uni0243
Encoding: 579 579 129
Width: 612
Flags: W
LayerCount: 2
Fore
SplineSet
27 258 m 1,0,-1
 100 258 l 1,1,-1
 167 574 l 1,2,-1
 101 574 l 1,3,-1
 101 700 l 1,4,-1
 400 700 l 2,5,6
 450 700 450 700 487 687.5 c 128,-1,7
 524 675 524 675 548 653 c 128,-1,8
 572 631 572 631 583.5 601 c 128,-1,9
 595 571 595 571 595 537 c 0,10,11
 595 499 595 499 582.5 469.5 c 128,-1,12
 570 440 570 440 548 418 c 128,-1,13
 526 396 526 396 497.5 381 c 128,-1,14
 469 366 469 366 436 358 c 1,15,-1
 436 340 l 1,16,17
 476 328 476 328 501 297 c 128,-1,18
 526 266 526 266 526 210 c 0,19,20
 526 166 526 166 507.5 128 c 128,-1,21
 489 90 489 90 456 61.5 c 128,-1,22
 423 33 423 33 377.5 16.5 c 128,-1,23
 332 0 332 0 278 0 c 2,24,-1
 6 0 l 1,25,-1
 6 126 l 1,26,-1
 72 126 l 1,27,-1
 78 156 l 1,28,-1
 27 156 l 1,29,-1
 27 258 l 1,0,-1
263 414 m 1,30,-1
 349 414 l 2,31,32
 401 414 401 414 431.5 437.5 c 128,-1,33
 462 461 462 461 462 507 c 0,34,35
 462 540 462 540 441 557 c 128,-1,36
 420 574 420 574 383 574 c 2,37,-1
 297 574 l 1,38,-1
 263 414 l 1,30,-1
229 258 m 1,39,-1
 288 258 l 1,40,-1
 288 156 l 1,41,-1
 208 156 l 1,42,-1
 202 126 l 1,43,-1
 288 126 l 2,44,45
 337 126 337 126 369.5 150 c 128,-1,46
 402 174 402 174 402 219 c 0,47,48
 402 256 402 256 380.5 272 c 128,-1,49
 359 288 359 288 322 288 c 2,50,-1
 236 288 l 1,51,-1
 229 258 l 1,39,-1
EndSplineSet
Substitution2: "'ss01' Style Set 1 in Latin lookup 2 subtable" uni0243.alt
Substitution2: "'aalt' Access All Alternates in Latin lookup 0 subtable" uni0243.alt
EndChar

StartChar: Ccedilla
Encoding: 199 199 130
Width: 612
Flags: W
LayerCount: 2
Fore
SplineSet
255 106 m 0,0,1
 292 106 292 106 318.5 118 c 128,-1,2
 345 130 345 130 363 149.5 c 128,-1,3
 381 169 381 169 391.5 194.5 c 128,-1,4
 402 220 402 220 408 246 c 2,5,-1
 412 264 l 1,6,-1
 544 264 l 1,7,-1
 540 246 l 2,8,9
 526 184 526 184 504 137 c 128,-1,10
 482 90 482 90 448.5 58 c 128,-1,11
 415 26 415 26 369 8 c 128,-1,12
 323 -10 323 -10 261 -13 c 1,13,-1
 247 -46 l 1,14,-1
 259 -46 l 1,15,16
 267 -37 267 -37 279 -30.5 c 128,-1,17
 291 -24 291 -24 310 -24 c 0,18,19
 339 -24 339 -24 358 -44 c 128,-1,20
 377 -64 377 -64 377 -102 c 0,21,22
 377 -153 377 -153 345.5 -182.5 c 128,-1,23
 314 -212 314 -212 256 -212 c 0,24,25
 222 -212 222 -212 200 -206.5 c 128,-1,26
 178 -201 178 -201 163 -192 c 1,27,-1
 200 -123 l 1,28,29
 210 -130 210 -130 222.5 -134 c 128,-1,30
 235 -138 235 -138 251 -138 c 0,31,32
 268 -138 268 -138 279.5 -130.5 c 128,-1,33
 291 -123 291 -123 291 -109 c 0,34,35
 291 -90 291 -90 273 -90 c 0,36,37
 259 -90 259 -90 252 -104 c 1,38,-1
 155 -104 l 1,39,-1
 155 -92 l 1,40,-1
 184 -10 l 1,41,42
 109 3 109 3 65 55.5 c 128,-1,43
 21 108 21 108 21 195 c 0,44,45
 21 213 21 213 23 231 c 128,-1,46
 25 249 25 249 30 272 c 2,47,-1
 63 428 l 2,48,49
 94 573 94 573 173 643.5 c 128,-1,50
 252 714 252 714 379 714 c 0,51,52
 429 714 429 714 468.5 698 c 128,-1,53
 508 682 508 682 535.5 654.5 c 128,-1,54
 563 627 563 627 577.5 590 c 128,-1,55
 592 553 592 553 592 511 c 0,56,57
 592 497 592 497 590 483 c 128,-1,58
 588 469 588 469 585 454 c 2,59,-1
 581 436 l 1,60,-1
 449 436 l 1,61,-1
 453 454 l 2,62,63
 459 478 459 478 459 500 c 0,64,65
 459 539 459 539 436.5 566.5 c 128,-1,66
 414 594 414 594 358 594 c 0,67,68
 325 594 325 594 298 581.5 c 128,-1,69
 271 569 271 569 251 547.5 c 128,-1,70
 231 526 231 526 217.5 497.5 c 128,-1,71
 204 469 204 469 197 438 c 2,72,-1
 160 262 l 2,73,74
 157 247 157 247 155 232.5 c 128,-1,75
 153 218 153 218 153 205 c 0,76,77
 153 160 153 160 176.5 133 c 128,-1,78
 200 106 200 106 255 106 c 0,0,1
EndSplineSet
EndChar

StartChar: Eth
Encoding: 208 208 135
Width: 612
Flags: W
LayerCount: 2
Fore
SplineSet
51 410 m 1,0,-1
 134 410 l 1,1,-1
 169 574 l 1,2,-1
 103 574 l 1,3,-1
 103 700 l 1,4,-1
 368 700 l 2,5,6
 470 700 470 700 526 648.5 c 128,-1,7
 582 597 582 597 582 512 c 0,8,9
 582 498 582 498 580 483 c 128,-1,10
 578 468 578 468 575 452 c 2,11,-1
 531 242 l 2,12,13
 517 178 517 178 493 132.5 c 128,-1,14
 469 87 469 87 431.5 57.5 c 128,-1,15
 394 28 394 28 342.5 14 c 128,-1,16
 291 0 291 0 223 0 c 2,17,-1
 2 0 l 1,18,-1
 2 126 l 1,19,-1
 74 126 l 1,20,-1
 109 290 l 1,21,-1
 51 290 l 1,22,-1
 51 410 l 1,0,-1
250 126 m 2,23,24
 319 126 319 126 353.5 158.5 c 128,-1,25
 388 191 388 191 402 260 c 2,26,-1
 443 452 l 2,27,28
 445 460 445 460 446.5 470.5 c 128,-1,29
 448 481 448 481 448 490 c 0,30,31
 448 531 448 531 423 552.5 c 128,-1,32
 398 574 398 574 345 574 c 2,33,-1
 301 574 l 1,34,-1
 266 410 l 1,35,-1
 339 410 l 1,36,-1
 339 290 l 1,37,-1
 241 290 l 1,38,-1
 206 126 l 1,39,-1
 250 126 l 2,23,24
EndSplineSet
Substitution2: "'ss01' Style Set 1 in Latin lookup 2 subtable" Eth.alt
Substitution2: "'aalt' Access All Alternates in Latin lookup 0 subtable" Eth.alt
EndChar

StartChar: Dcroat
Encoding: 272 272 139
Width: 612
Flags: W
LayerCount: 2
Fore
SplineSet
51 410 m 1,0,-1
 134 410 l 1,1,-1
 169 574 l 1,2,-1
 103 574 l 1,3,-1
 103 700 l 1,4,-1
 368 700 l 2,5,6
 470 700 470 700 526 648.5 c 128,-1,7
 582 597 582 597 582 512 c 0,8,9
 582 498 582 498 580 483 c 128,-1,10
 578 468 578 468 575 452 c 2,11,-1
 531 242 l 2,12,13
 517 178 517 178 493 132.5 c 128,-1,14
 469 87 469 87 431.5 57.5 c 128,-1,15
 394 28 394 28 342.5 14 c 128,-1,16
 291 0 291 0 223 0 c 2,17,-1
 2 0 l 1,18,-1
 2 126 l 1,19,-1
 74 126 l 1,20,-1
 109 290 l 1,21,-1
 51 290 l 1,22,-1
 51 410 l 1,0,-1
250 126 m 2,23,24
 319 126 319 126 353.5 158.5 c 128,-1,25
 388 191 388 191 402 260 c 2,26,-1
 443 452 l 2,27,28
 445 460 445 460 446.5 470.5 c 128,-1,29
 448 481 448 481 448 490 c 0,30,31
 448 531 448 531 423 552.5 c 128,-1,32
 398 574 398 574 345 574 c 2,33,-1
 301 574 l 1,34,-1
 266 410 l 1,35,-1
 339 410 l 1,36,-1
 339 290 l 1,37,-1
 241 290 l 1,38,-1
 206 126 l 1,39,-1
 250 126 l 2,23,24
EndSplineSet
Substitution2: "'ss01' Style Set 1 in Latin lookup 2 subtable" Dcroat.alt
Substitution2: "'aalt' Access All Alternates in Latin lookup 0 subtable" Dcroat.alt
EndChar

StartChar: Eogonek
Encoding: 280 280 148
Width: 612
Flags: W
LayerCount: 2
Fore
SplineSet
18 12 m 1,0,-1
 164 700 l 1,1,-1
 579 700 l 1,2,-1
 579 574 l 1,3,-1
 269 574 l 1,4,-1
 235 414 l 1,5,-1
 506 414 l 1,6,-1
 506 288 l 1,7,-1
 208 288 l 1,8,-1
 174 126 l 1,9,-1
 469 126 l 1,10,-1
 469 0 l 1,11,-1
 443 -56 l 2,12,13
 441 -60 441 -60 440.5 -62.5 c 128,-1,14
 440 -65 440 -65 440 -70 c 0,15,16
 440 -86 440 -86 459 -86 c 2,17,-1
 496 -86 l 1,18,-1
 496 -170 l 1,19,-1
 414 -170 l 2,20,21
 382 -170 382 -170 363 -154 c 128,-1,22
 344 -138 344 -138 344 -109 c 0,23,24
 344 -89 344 -89 354 -66 c 2,25,-1
 383 0 l 1,26,-1
 18 0 l 1,27,-1
 18 12 l 1,0,-1
EndSplineSet
EndChar

StartChar: uni0122
Encoding: 290 290 160
Width: 612
Flags: W
LayerCount: 2
Fore
SplineSet
105 -134 m 0,0,1
 105 -115 105 -115 112 -98.5 c 128,-1,2
 119 -82 119 -82 131.5 -70 c 128,-1,3
 144 -58 144 -58 160.5 -51 c 128,-1,4
 177 -44 177 -44 196 -44 c 0,5,6
 214 -44 214 -44 230.5 -51 c 128,-1,7
 247 -58 247 -58 259.5 -70.5 c 128,-1,8
 272 -83 272 -83 279.5 -99.5 c 128,-1,9
 287 -116 287 -116 287 -135 c 0,10,11
 287 -140 287 -140 286.5 -145 c 128,-1,12
 286 -150 286 -150 285 -155 c 2,13,-1
 261 -269 l 2,14,15
 253 -304 253 -304 226 -321 c 128,-1,16
 199 -338 199 -338 160 -338 c 2,17,-1
 112 -338 l 1,18,-1
 112 -260 l 1,19,-1
 154 -260 l 2,20,21
 171 -260 171 -260 179.5 -255.5 c 128,-1,22
 188 -251 188 -251 190 -237 c 2,23,-1
 193 -218 l 1,24,25
 177 -218 177 -218 161 -213 c 128,-1,26
 145 -208 145 -208 132.5 -197.5 c 128,-1,27
 120 -187 120 -187 112.5 -171.5 c 128,-1,28
 105 -156 105 -156 105 -134 c 0,0,1
252 354 m 1,29,-1
 561 354 l 1,30,-1
 561 342 l 1,31,-1
 489 0 l 1,32,-1
 369 0 l 1,33,-1
 386 78 l 1,34,-1
 368 78 l 1,35,36
 348 39 348 39 308 12.5 c 128,-1,37
 268 -14 268 -14 200 -14 c 0,38,39
 161 -14 161 -14 128 -1.5 c 128,-1,40
 95 11 95 11 71 36 c 128,-1,41
 47 61 47 61 33.5 97.5 c 128,-1,42
 20 134 20 134 20 182 c 0,43,44
 20 221 20 221 30 268 c 2,45,-1
 65 432 l 2,46,47
 96 577 96 577 175.5 645.5 c 128,-1,48
 255 714 255 714 382 714 c 0,49,50
 432 714 432 714 471.5 698.5 c 128,-1,51
 511 683 511 683 538 656 c 128,-1,52
 565 629 565 629 579.5 593.5 c 128,-1,53
 594 558 594 558 594 518 c 0,54,55
 594 504 594 504 592 488.5 c 128,-1,56
 590 473 590 473 587 460 c 2,57,-1
 584 448 l 1,58,-1
 452 448 l 1,59,-1
 455 460 l 2,60,61
 458 472 458 472 459 481 c 128,-1,62
 460 490 460 490 460 499 c 0,63,64
 460 541 460 541 434 564.5 c 128,-1,65
 408 588 408 588 358 588 c 0,66,67
 330 588 330 588 305 579 c 128,-1,68
 280 570 280 570 258.5 550.5 c 128,-1,69
 237 531 237 531 221 499.5 c 128,-1,70
 205 468 205 468 195 422 c 2,71,-1
 163 274 l 2,72,73
 159 256 159 256 158 244 c 128,-1,74
 157 232 157 232 157 220 c 0,75,76
 157 166 157 166 185 139 c 128,-1,77
 213 112 213 112 261 112 c 0,78,79
 320 112 320 112 357.5 143.5 c 128,-1,80
 395 175 395 175 406 228 c 1,81,-1
 252 228 l 1,82,-1
 252 354 l 1,29,-1
EndSplineSet
EndChar

StartChar: Hbar
Encoding: 294 294 166
Width: 612
Flags: W
LayerCount: 2
Fore
SplineSet
50 616 m 1,0,-1
 130 616 l 1,1,-1
 148 700 l 1,2,-1
 280 700 l 1,3,-1
 262 616 l 1,4,-1
 456 616 l 1,5,-1
 474 700 l 1,6,-1
 606 700 l 1,7,-1
 588 616 l 1,8,-1
 643 616 l 1,9,-1
 643 496 l 1,10,-1
 562 496 l 1,11,-1
 457 0 l 1,12,-1
 325 0 l 1,13,-1
 386 288 l 1,14,-1
 192 288 l 1,15,-1
 131 0 l 1,16,-1
 0 0 l 1,17,-1
 105 496 l 1,18,-1
 50 496 l 1,19,-1
 50 616 l 1,0,-1
413 414 m 1,20,-1
 430 496 l 1,21,-1
 236 496 l 1,22,-1
 219 414 l 1,23,-1
 413 414 l 1,20,-1
EndSplineSet
EndChar

StartChar: Iogonek
Encoding: 302 302 175
Width: 612
Flags: W
LayerCount: 2
Fore
SplineSet
125 700 m 1,0,-1
 581 700 l 1,1,-1
 581 574 l 1,2,-1
 419 574 l 1,3,-1
 324 126 l 1,4,-1
 486 126 l 1,5,-1
 486 0 l 1,6,-1
 460 -56 l 2,7,8
 458 -60 458 -60 457.5 -62.5 c 128,-1,9
 457 -65 457 -65 457 -70 c 0,10,11
 457 -86 457 -86 476 -86 c 2,12,-1
 513 -86 l 1,13,-1
 513 -170 l 1,14,-1
 431 -170 l 2,15,16
 399 -170 399 -170 380 -154 c 128,-1,17
 361 -138 361 -138 361 -109 c 0,18,19
 361 -89 361 -89 371 -66 c 2,20,-1
 400 0 l 1,21,-1
 30 0 l 1,22,-1
 30 126 l 1,23,-1
 192 126 l 1,24,-1
 287 574 l 1,25,-1
 125 574 l 1,26,-1
 125 700 l 1,0,-1
EndSplineSet
EndChar

StartChar: uni0136
Encoding: 310 310 180
Width: 612
Flags: W
LayerCount: 2
Fore
SplineSet
146 -134 m 0,0,1
 146 -115 146 -115 153 -98.5 c 128,-1,2
 160 -82 160 -82 172.5 -70 c 128,-1,3
 185 -58 185 -58 201.5 -51 c 128,-1,4
 218 -44 218 -44 237 -44 c 0,5,6
 255 -44 255 -44 271.5 -51 c 128,-1,7
 288 -58 288 -58 300.5 -70.5 c 128,-1,8
 313 -83 313 -83 320.5 -99.5 c 128,-1,9
 328 -116 328 -116 328 -135 c 0,10,11
 328 -140 328 -140 327.5 -145 c 128,-1,12
 327 -150 327 -150 326 -155 c 2,13,-1
 302 -269 l 2,14,15
 294 -304 294 -304 267 -321 c 128,-1,16
 240 -338 240 -338 201 -338 c 2,17,-1
 146 -338 l 1,18,-1
 146 -260 l 1,19,-1
 195 -260 l 2,20,21
 212 -260 212 -260 220.5 -255.5 c 128,-1,22
 229 -251 229 -251 231 -237 c 2,23,-1
 234 -218 l 1,24,25
 218 -218 218 -218 202 -213 c 128,-1,26
 186 -208 186 -208 173.5 -197.5 c 128,-1,27
 161 -187 161 -187 153.5 -171.5 c 128,-1,28
 146 -156 146 -156 146 -134 c 0,0,1
128 0 m 1,29,-1
 -4 0 l 1,30,-1
 145 700 l 1,31,-1
 277 700 l 1,32,-1
 216 413 l 1,33,-1
 240 413 l 1,34,-1
 466 700 l 1,35,-1
 620 700 l 1,36,-1
 620 688 l 1,37,-1
 354 356 l 1,38,-1
 354 338 l 1,39,-1
 522 6 l 1,40,-1
 522 0 l 1,41,-1
 376 0 l 1,42,-1
 230 287 l 1,43,-1
 188 287 l 1,44,-1
 128 0 l 1,29,-1
EndSplineSet
EndChar

StartChar: Lcaron
Encoding: 317 317 182
Width: 612
Flags: W
LayerCount: 2
Fore
SplineSet
15 12 m 1,0,-1
 161 700 l 1,1,-1
 293 700 l 1,2,-1
 171 126 l 1,3,-1
 475 126 l 1,4,-1
 475 0 l 1,5,-1
 15 0 l 1,6,-1
 15 12 l 1,0,-1
415 610 m 0,7,8
 415 649 415 649 441.5 674.5 c 128,-1,9
 468 700 468 700 506 700 c 0,10,11
 524 700 524 700 540.5 693 c 128,-1,12
 557 686 557 686 569.5 673.5 c 128,-1,13
 582 661 582 661 589.5 644.5 c 128,-1,14
 597 628 597 628 597 609 c 0,15,16
 597 604 597 604 596.5 599.5 c 128,-1,17
 596 595 596 595 595 590 c 2,18,-1
 571 476 l 2,19,20
 563 440 563 440 536 423 c 128,-1,21
 509 406 509 406 470 406 c 2,22,-1
 392 406 l 1,23,-1
 392 484 l 1,24,-1
 467 484 l 2,25,26
 496 484 496 484 500 508 c 2,27,-1
 503 523 l 1,28,29
 470 523 470 523 442.5 544 c 128,-1,30
 415 565 415 565 415 610 c 0,7,8
EndSplineSet
EndChar

StartChar: uni013B
Encoding: 315 315 183
Width: 612
Flags: W
LayerCount: 2
Fore
SplineSet
140 -134 m 0,0,1
 140 -115 140 -115 147 -98.5 c 128,-1,2
 154 -82 154 -82 166.5 -70 c 128,-1,3
 179 -58 179 -58 195.5 -51 c 128,-1,4
 212 -44 212 -44 231 -44 c 0,5,6
 249 -44 249 -44 265.5 -51 c 128,-1,7
 282 -58 282 -58 294.5 -70.5 c 128,-1,8
 307 -83 307 -83 314.5 -99.5 c 128,-1,9
 322 -116 322 -116 322 -135 c 0,10,11
 322 -140 322 -140 321.5 -145 c 128,-1,12
 321 -150 321 -150 320 -155 c 2,13,-1
 296 -269 l 2,14,15
 288 -304 288 -304 261 -321 c 128,-1,16
 234 -338 234 -338 195 -338 c 2,17,-1
 140 -338 l 1,18,-1
 140 -260 l 1,19,-1
 189 -260 l 2,20,21
 206 -260 206 -260 214.5 -255.5 c 128,-1,22
 223 -251 223 -251 225 -237 c 2,23,-1
 228 -218 l 1,24,25
 212 -218 212 -218 196 -213 c 128,-1,26
 180 -208 180 -208 167.5 -197.5 c 128,-1,27
 155 -187 155 -187 147.5 -171.5 c 128,-1,28
 140 -156 140 -156 140 -134 c 0,0,1
15 12 m 1,29,-1
 161 700 l 1,30,-1
 293 700 l 1,31,-1
 171 126 l 1,32,-1
 475 126 l 1,33,-1
 475 0 l 1,34,-1
 15 0 l 1,35,-1
 15 12 l 1,29,-1
EndSplineSet
EndChar

StartChar: Lslash
Encoding: 321 321 187
Width: 612
Flags: W
LayerCount: 2
Fore
SplineSet
15 12 m 1,0,-1
 67 257 l 1,1,-1
 14 243 l 1,2,-1
 -13 350 l 1,3,-1
 93 379 l 1,4,-1
 161 700 l 1,5,-1
 293 700 l 1,6,-1
 233 418 l 1,7,-1
 308 439 l 1,8,-1
 337 332 l 1,9,-1
 207 296 l 1,10,-1
 171 126 l 1,11,-1
 475 126 l 1,12,-1
 475 0 l 1,13,-1
 15 0 l 1,14,-1
 15 12 l 1,0,-1
EndSplineSet
EndChar

StartChar: uni0145
Encoding: 325 325 193
Width: 612
Flags: W
LayerCount: 2
Fore
SplineSet
76 -134 m 0,0,1
 76 -115 76 -115 83 -98.5 c 128,-1,2
 90 -82 90 -82 102.5 -70 c 128,-1,3
 115 -58 115 -58 131.5 -51 c 128,-1,4
 148 -44 148 -44 167 -44 c 0,5,6
 185 -44 185 -44 201.5 -51 c 128,-1,7
 218 -58 218 -58 230.5 -70.5 c 128,-1,8
 243 -83 243 -83 250.5 -99.5 c 128,-1,9
 258 -116 258 -116 258 -135 c 0,10,11
 258 -140 258 -140 257.5 -145 c 128,-1,12
 257 -150 257 -150 256 -155 c 2,13,-1
 232 -269 l 2,14,15
 224 -304 224 -304 197 -321 c 128,-1,16
 170 -338 170 -338 131 -338 c 2,17,-1
 83 -338 l 1,18,-1
 83 -260 l 1,19,-1
 125 -260 l 2,20,21
 142 -260 142 -260 150.5 -255.5 c 128,-1,22
 159 -251 159 -251 161 -237 c 2,23,-1
 164 -218 l 1,24,25
 148 -218 148 -218 132 -213 c 128,-1,26
 116 -208 116 -208 103.5 -197.5 c 128,-1,27
 91 -187 91 -187 83.5 -171.5 c 128,-1,28
 76 -156 76 -156 76 -134 c 0,0,1
340 66 m 1,29,-1
 358 66 l 1,30,-1
 493 700 l 1,31,-1
 619 700 l 1,32,-1
 470 0 l 1,33,-1
 224 0 l 1,34,-1
 271 634 l 1,35,-1
 253 634 l 1,36,-1
 118 0 l 1,37,-1
 -7 0 l 1,38,-1
 141 700 l 1,39,-1
 387 700 l 1,40,-1
 340 66 l 1,29,-1
EndSplineSet
EndChar

StartChar: uni01EA
Encoding: 490 490 206
Width: 612
Flags: W
LayerCount: 2
Fore
SplineSet
65 428 m 2,0,1
 96 576 96 576 168.5 645 c 128,-1,2
 241 714 241 714 368 714 c 0,3,4
 421 714 421 714 462 697.5 c 128,-1,5
 503 681 503 681 531 651.5 c 128,-1,6
 559 622 559 622 573.5 582 c 128,-1,7
 588 542 588 542 588 496 c 0,8,9
 588 479 588 479 586.5 462 c 128,-1,10
 585 445 585 445 581 428 c 2,11,-1
 548 272 l 2,12,13
 539 228 539 228 527 192.5 c 128,-1,14
 515 157 515 157 499 128 c 128,-1,15
 483 99 483 99 461.5 75 c 128,-1,16
 440 51 440 51 411 29 c 2,17,-1
 295 -58 l 2,18,19
 287 -65 287 -65 287 -72 c 0,20,21
 287 -77 287 -77 291.5 -81.5 c 128,-1,22
 296 -86 296 -86 304 -86 c 2,23,-1
 367 -86 l 1,24,-1
 367 -170 l 1,25,-1
 243 -170 l 2,26,27
 208 -170 208 -170 188 -149 c 128,-1,28
 168 -128 168 -128 168 -99 c 0,29,30
 168 -79 168 -79 178 -59.5 c 128,-1,31
 188 -40 188 -40 210 -23 c 2,32,-1
 222 -13 l 1,33,34
 174 -10 174 -10 137.5 8 c 128,-1,35
 101 26 101 26 76 55 c 128,-1,36
 51 84 51 84 38 122 c 128,-1,37
 25 160 25 160 25 204 c 0,38,39
 25 221 25 221 26.5 238 c 128,-1,40
 28 255 28 255 32 272 c 2,41,-1
 65 428 l 2,0,1
257 106 m 0,42,43
 291 106 291 106 317 118.5 c 128,-1,44
 343 131 343 131 362.5 152 c 128,-1,45
 382 173 382 173 394.5 202 c 128,-1,46
 407 231 407 231 414 264 c 2,47,-1
 451 436 l 2,48,49
 454 452 454 452 455.5 463.5 c 128,-1,50
 457 475 457 475 457 486 c 0,51,52
 457 537 457 537 430.5 565.5 c 128,-1,53
 404 594 404 594 356 594 c 0,54,55
 322 594 322 594 296 581.5 c 128,-1,56
 270 569 270 569 250.5 548 c 128,-1,57
 231 527 231 527 218.5 498 c 128,-1,58
 206 469 206 469 199 436 c 2,59,-1
 162 264 l 2,60,61
 156 237 156 237 156 214 c 0,62,63
 156 163 156 163 182.5 134.5 c 128,-1,64
 209 106 209 106 257 106 c 0,42,43
EndSplineSet
EndChar

StartChar: uni01A0
Encoding: 416 416 214
Width: 612
Flags: W
LayerCount: 2
Fore
SplineSet
464 610 m 0,0,1
 464 647 464 647 490.5 673.5 c 128,-1,2
 517 700 517 700 554 700 c 256,3,4
 591 700 591 700 613 676.5 c 128,-1,5
 635 653 635 653 635 617 c 0,6,7
 635 605 635 605 632 592 c 2,8,-1
 609 484 l 2,9,10
 600 441 600 441 573 421.5 c 128,-1,11
 546 402 546 402 501 402 c 2,12,-1
 422 402 l 1,13,-1
 374 171 l 2,14,15
 366 131 366 131 349 97 c 128,-1,16
 332 63 332 63 305.5 38.5 c 128,-1,17
 279 14 279 14 242.5 0 c 128,-1,18
 206 -14 206 -14 158 -14 c 0,19,20
 116 -14 116 -14 84 -2 c 128,-1,21
 52 10 52 10 30 31 c 128,-1,22
 8 52 8 52 -3.5 80.5 c 128,-1,23
 -15 109 -15 109 -15 142 c 0,24,25
 -15 153 -15 153 -13.5 163.5 c 128,-1,26
 -12 174 -12 174 -10 185 c 2,27,-1
 62 529 l 2,28,29
 70 569 70 569 87 603 c 128,-1,30
 104 637 104 637 130.5 661.5 c 128,-1,31
 157 686 157 686 193.5 700 c 128,-1,32
 230 714 230 714 278 714 c 0,33,34
 320 714 320 714 352 702 c 128,-1,35
 384 690 384 690 406 669 c 128,-1,36
 428 648 428 648 439.5 619.5 c 128,-1,37
 451 591 451 591 451 558 c 0,38,39
 451 547 451 547 449.5 536.5 c 128,-1,40
 448 526 448 526 446 515 c 2,41,-1
 438 480 l 1,42,-1
 502 480 l 2,43,44
 531 480 531 480 537 510 c 2,45,-1
 540 526 l 1,46,47
 526 526 526 526 512.5 532 c 128,-1,48
 499 538 499 538 488.5 549 c 128,-1,49
 478 560 478 560 471 575.5 c 128,-1,50
 464 591 464 591 464 610 c 0,0,1
174 112 m 0,51,52
 208 112 208 112 223 132 c 128,-1,53
 238 152 238 152 244 181 c 2,54,-1
 315 515 l 2,55,56
 316 520 316 520 316.5 524 c 128,-1,57
 317 528 317 528 317 534 c 0,58,59
 317 559 317 559 302.5 573.5 c 128,-1,60
 288 588 288 588 262 588 c 0,61,62
 228 588 228 588 213 568 c 128,-1,63
 198 548 198 548 192 519 c 2,64,-1
 121 185 l 2,65,66
 120 180 120 180 119.5 176 c 128,-1,67
 119 172 119 172 119 166 c 0,68,69
 119 141 119 141 133.5 126.5 c 128,-1,70
 148 112 148 112 174 112 c 0,51,52
EndSplineSet
EndChar

StartChar: Oslash
Encoding: 216 216 220
Width: 612
Flags: W
LayerCount: 2
Fore
SplineSet
65 428 m 2,0,1
 96 576 96 576 168.5 645 c 128,-1,2
 241 714 241 714 368 714 c 0,3,4
 388 714 388 714 405.5 711.5 c 128,-1,5
 423 709 423 709 440 704 c 1,6,-1
 482 781 l 1,7,-1
 574 728 l 1,8,-1
 532 650 l 1,9,10
 559 621 559 621 573.5 581.5 c 128,-1,11
 588 542 588 542 588 496 c 0,12,13
 588 479 588 479 586.5 462 c 128,-1,14
 585 445 585 445 581 428 c 2,15,-1
 548 272 l 2,16,17
 517 124 517 124 444.5 55 c 128,-1,18
 372 -14 372 -14 245 -14 c 0,19,20
 210 -14 210 -14 178 -6 c 1,21,-1
 131 -93 l 1,22,-1
 40 -37 l 1,23,-1
 85 46 l 1,24,25
 25 106 25 106 25 204 c 0,26,27
 25 221 25 221 26.5 238 c 128,-1,28
 28 255 28 255 32 272 c 2,29,-1
 65 428 l 2,0,1
156 214 m 0,30,31
 156 196 156 196 159 183 c 1,32,-1
 380 592 l 1,33,34
 374 593 374 593 368 593.5 c 128,-1,35
 362 594 362 594 356 594 c 0,36,37
 322 594 322 594 296 581.5 c 128,-1,38
 270 569 270 569 250.5 548 c 128,-1,39
 231 527 231 527 218.5 498 c 128,-1,40
 206 469 206 469 199 436 c 2,41,-1
 162 264 l 2,42,43
 156 237 156 237 156 214 c 0,30,31
257 106 m 0,44,45
 291 106 291 106 317 118.5 c 128,-1,46
 343 131 343 131 362.5 152 c 128,-1,47
 382 173 382 173 394.5 202 c 128,-1,48
 407 231 407 231 414 264 c 2,49,-1
 451 436 l 2,50,51
 454 452 454 452 455.5 463.5 c 128,-1,52
 457 475 457 475 457 486 c 0,53,54
 457 492 457 492 456.5 497.5 c 128,-1,55
 456 503 456 503 455 508 c 2,56,-1
 239 107 l 2,57,58
 243 106 243 106 247.5 106 c 128,-1,59
 252 106 252 106 257 106 c 0,44,45
EndSplineSet
EndChar

StartChar: OE
Encoding: 338 338 221
Width: 612
Flags: W
LayerCount: 2
Fore
SplineSet
624 700 m 1,0,-1
 624 574 l 1,1,-1
 461 574 l 1,2,-1
 427 414 l 1,3,-1
 563 414 l 1,4,-1
 563 288 l 1,5,-1
 400 288 l 1,6,-1
 366 126 l 1,7,-1
 514 126 l 1,8,-1
 514 0 l 1,9,-1
 211 0 l 2,10,11
 164 0 164 0 125.5 13.5 c 128,-1,12
 87 27 87 27 59.5 53.5 c 128,-1,13
 32 80 32 80 16.5 118 c 128,-1,14
 1 156 1 156 1 205 c 0,15,16
 1 242 1 242 10 286 c 2,17,-1
 37 414 l 2,18,19
 69 566 69 566 147 633 c 128,-1,20
 225 700 225 700 356 700 c 2,21,-1
 624 700 l 1,0,-1
329 574 m 1,22,23
 295 574 295 574 269 561.5 c 128,-1,24
 243 549 243 549 223.5 528 c 128,-1,25
 204 507 204 507 190.5 478.5 c 128,-1,26
 177 450 177 450 170 416 c 2,27,-1
 141 284 l 2,28,29
 138 269 138 269 136 255 c 128,-1,30
 134 241 134 241 134 228 c 0,31,32
 134 182 134 182 157 154 c 128,-1,33
 180 126 180 126 234 126 c 1,34,-1
 329 574 l 1,22,23
EndSplineSet
EndChar

StartChar: uni0156
Encoding: 342 342 224
Width: 612
Flags: W
LayerCount: 2
Fore
SplineSet
121 -134 m 0,0,1
 121 -115 121 -115 128 -98.5 c 128,-1,2
 135 -82 135 -82 147.5 -70 c 128,-1,3
 160 -58 160 -58 176.5 -51 c 128,-1,4
 193 -44 193 -44 212 -44 c 0,5,6
 230 -44 230 -44 246.5 -51 c 128,-1,7
 263 -58 263 -58 275.5 -70.5 c 128,-1,8
 288 -83 288 -83 295.5 -99.5 c 128,-1,9
 303 -116 303 -116 303 -135 c 0,10,11
 303 -140 303 -140 302.5 -145 c 128,-1,12
 302 -150 302 -150 301 -155 c 2,13,-1
 277 -269 l 2,14,15
 269 -304 269 -304 242 -321 c 128,-1,16
 215 -338 215 -338 176 -338 c 2,17,-1
 121 -338 l 1,18,-1
 121 -260 l 1,19,-1
 170 -260 l 2,20,21
 187 -260 187 -260 195.5 -255.5 c 128,-1,22
 204 -251 204 -251 206 -237 c 2,23,-1
 209 -218 l 1,24,25
 193 -218 193 -218 177 -213 c 128,-1,26
 161 -208 161 -208 148.5 -197.5 c 128,-1,27
 136 -187 136 -187 128.5 -171.5 c 128,-1,28
 121 -156 121 -156 121 -134 c 0,0,1
463 0 m 1,29,-1
 329 0 l 1,30,-1
 374 210 l 2,31,32
 376 220 376 220 376 226 c 0,33,34
 376 243 376 243 365 253.5 c 128,-1,35
 354 264 354 264 331 264 c 2,36,-1
 186 264 l 1,37,-1
 130 0 l 1,38,-1
 -1 0 l 1,39,-1
 147 700 l 1,40,-1
 393 700 l 2,41,42
 442 700 442 700 479.5 686.5 c 128,-1,43
 517 673 517 673 542.5 650.5 c 128,-1,44
 568 628 568 628 580.5 597 c 128,-1,45
 593 566 593 566 593 532 c 0,46,47
 593 459 593 459 559.5 413.5 c 128,-1,48
 526 368 526 368 457 345 c 1,49,-1
 457 327 l 1,50,51
 486 324 486 324 501.5 306.5 c 128,-1,52
 517 289 517 289 517 262 c 0,53,54
 517 252 517 252 515 242 c 2,55,-1
 463 0 l 1,29,-1
213 390 m 1,56,-1
 333 390 l 2,57,58
 386 390 386 390 420 418 c 128,-1,59
 454 446 454 446 454 494 c 0,60,61
 454 532 454 532 433.5 553 c 128,-1,62
 413 574 413 574 371 574 c 2,63,-1
 252 574 l 1,64,-1
 213 390 l 1,56,-1
EndSplineSet
EndChar

StartChar: uni0218
Encoding: 536 536 231
Width: 612
Flags: W
LayerCount: 2
Fore
SplineSet
140 -134 m 0,0,1
 140 -115 140 -115 147 -98.5 c 128,-1,2
 154 -82 154 -82 166.5 -70 c 128,-1,3
 179 -58 179 -58 195.5 -51 c 128,-1,4
 212 -44 212 -44 231 -44 c 0,5,6
 249 -44 249 -44 265.5 -51 c 128,-1,7
 282 -58 282 -58 294.5 -70.5 c 128,-1,8
 307 -83 307 -83 314.5 -99.5 c 128,-1,9
 322 -116 322 -116 322 -135 c 0,10,11
 322 -140 322 -140 321.5 -145 c 128,-1,12
 321 -150 321 -150 320 -155 c 2,13,-1
 296 -269 l 2,14,15
 288 -304 288 -304 261 -321 c 128,-1,16
 234 -338 234 -338 195 -338 c 2,17,-1
 140 -338 l 1,18,-1
 140 -260 l 1,19,-1
 189 -260 l 2,20,21
 206 -260 206 -260 214.5 -255.5 c 128,-1,22
 223 -251 223 -251 225 -237 c 2,23,-1
 228 -218 l 1,24,25
 212 -218 212 -218 196 -213 c 128,-1,26
 180 -208 180 -208 167.5 -197.5 c 128,-1,27
 155 -187 155 -187 147.5 -171.5 c 128,-1,28
 140 -156 140 -156 140 -134 c 0,0,1
457 475 m 2,29,30
 460 490 460 490 460 502 c 0,31,32
 460 541 460 541 432 565.5 c 128,-1,33
 404 590 404 590 346 590 c 0,34,35
 323 590 323 590 301 585 c 128,-1,36
 279 580 279 580 262 569.5 c 128,-1,37
 245 559 245 559 235 543 c 128,-1,38
 225 527 225 527 225 506 c 0,39,40
 225 471 225 471 254.5 451 c 128,-1,41
 284 431 284 431 350 420 c 0,42,43
 443 405 443 405 496.5 360.5 c 128,-1,44
 550 316 550 316 550 231 c 0,45,46
 550 174 550 174 529.5 129 c 128,-1,47
 509 84 509 84 471.5 52 c 128,-1,48
 434 20 434 20 381 3 c 128,-1,49
 328 -14 328 -14 262 -14 c 0,50,51
 199 -14 199 -14 152 2.5 c 128,-1,52
 105 19 105 19 74.5 47.5 c 128,-1,53
 44 76 44 76 29 114 c 128,-1,54
 14 152 14 152 14 196 c 0,55,56
 14 209 14 209 15 222 c 128,-1,57
 16 235 16 235 19 249 c 2,58,-1
 24 272 l 1,59,-1
 156 272 l 1,60,-1
 152 255 l 2,61,62
 148 236 148 236 148 212 c 0,63,64
 148 164 148 164 178.5 137 c 128,-1,65
 209 110 209 110 270 110 c 0,66,67
 336 110 336 110 373 137.5 c 128,-1,68
 410 165 410 165 410 213 c 0,69,70
 410 251 410 251 378.5 272 c 128,-1,71
 347 293 347 293 273 304 c 0,72,73
 238 309 238 309 204.5 322 c 128,-1,74
 171 335 171 335 145 358 c 128,-1,75
 119 381 119 381 103 414.5 c 128,-1,76
 87 448 87 448 87 494 c 0,77,78
 87 541 87 541 104.5 581.5 c 128,-1,79
 122 622 122 622 156.5 651.5 c 128,-1,80
 191 681 191 681 241.5 697.5 c 128,-1,81
 292 714 292 714 358 714 c 0,82,83
 414 714 414 714 458 700 c 128,-1,84
 502 686 502 686 532.5 661 c 128,-1,85
 563 636 563 636 579 601.5 c 128,-1,86
 595 567 595 567 595 527 c 0,87,88
 595 516 595 516 594 505 c 128,-1,89
 593 494 593 494 590 480 c 2,90,-1
 586 462 l 1,91,-1
 454 462 l 1,92,-1
 457 475 l 2,29,30
EndSplineSet
EndChar

StartChar: Scedilla
Encoding: 350 350 232
Width: 612
Flags: W
LayerCount: 2
Fore
SplineSet
457 475 m 2,0,1
 460 490 460 490 460 502 c 0,2,3
 460 541 460 541 432 565.5 c 128,-1,4
 404 590 404 590 346 590 c 0,5,6
 323 590 323 590 301 585 c 128,-1,7
 279 580 279 580 262 569.5 c 128,-1,8
 245 559 245 559 235 543 c 128,-1,9
 225 527 225 527 225 506 c 0,10,11
 225 471 225 471 254.5 451 c 128,-1,12
 284 431 284 431 350 420 c 0,13,14
 443 405 443 405 496.5 360.5 c 128,-1,15
 550 316 550 316 550 231 c 0,16,17
 550 174 550 174 529.5 129 c 128,-1,18
 509 84 509 84 471.5 52 c 128,-1,19
 434 20 434 20 381 3 c 128,-1,20
 328 -14 328 -14 262 -14 c 2,21,-1
 252 -14 l 1,22,-1
 238 -46 l 1,23,-1
 250 -46 l 1,24,25
 258 -37 258 -37 270 -30.5 c 128,-1,26
 282 -24 282 -24 301 -24 c 0,27,28
 330 -24 330 -24 349 -44 c 128,-1,29
 368 -64 368 -64 368 -102 c 0,30,31
 368 -153 368 -153 336.5 -182.5 c 128,-1,32
 305 -212 305 -212 247 -212 c 0,33,34
 213 -212 213 -212 191 -206.5 c 128,-1,35
 169 -201 169 -201 154 -192 c 1,36,-1
 191 -123 l 1,37,38
 201 -130 201 -130 213.5 -134 c 128,-1,39
 226 -138 226 -138 242 -138 c 0,40,41
 259 -138 259 -138 270.5 -130.5 c 128,-1,42
 282 -123 282 -123 282 -109 c 0,43,44
 282 -90 282 -90 264 -90 c 0,45,46
 250 -90 250 -90 243 -104 c 1,47,-1
 146 -104 l 1,48,-1
 146 -92 l 1,49,-1
 177 -5 l 1,50,51
 93 15 93 15 53.5 69.5 c 128,-1,52
 14 124 14 124 14 196 c 0,53,54
 14 209 14 209 15 222 c 128,-1,55
 16 235 16 235 19 249 c 2,56,-1
 24 272 l 1,57,-1
 156 272 l 1,58,-1
 152 255 l 2,59,60
 148 236 148 236 148 212 c 0,61,62
 148 164 148 164 178.5 137 c 128,-1,63
 209 110 209 110 270 110 c 0,64,65
 336 110 336 110 373 137.5 c 128,-1,66
 410 165 410 165 410 213 c 0,67,68
 410 251 410 251 378.5 272 c 128,-1,69
 347 293 347 293 273 304 c 0,70,71
 238 309 238 309 204.5 322 c 128,-1,72
 171 335 171 335 145 358 c 128,-1,73
 119 381 119 381 103 414.5 c 128,-1,74
 87 448 87 448 87 494 c 0,75,76
 87 541 87 541 104.5 581.5 c 128,-1,77
 122 622 122 622 156.5 651.5 c 128,-1,78
 191 681 191 681 241.5 697.5 c 128,-1,79
 292 714 292 714 358 714 c 0,80,81
 414 714 414 714 458 700 c 128,-1,82
 502 686 502 686 532.5 661 c 128,-1,83
 563 636 563 636 579 601.5 c 128,-1,84
 595 567 595 567 595 527 c 0,85,86
 595 516 595 516 594 505 c 128,-1,87
 593 494 593 494 590 480 c 2,88,-1
 586 462 l 1,89,-1
 454 462 l 1,90,-1
 457 475 l 2,0,1
EndSplineSet
Substitution2: "'locl' Localized Forms in Latin lookup 12 subtable" uni0218
Substitution2: "'locl' Localized Forms in Latin lookup 11 subtable" uni0218
Substitution2: "'aalt' Access All Alternates in Latin lookup 0 subtable" uni0218
EndChar

StartChar: uni1E9E
Encoding: 7838 7838 235
Width: 612
Flags: W
LayerCount: 2
Fore
SplineSet
573 700 m 1,0,-1
 573 472 l 1,1,-1
 380 418 l 1,2,-1
 380 400 l 1,3,-1
 396 400 l 2,4,5
 429 400 429 400 457.5 387.5 c 128,-1,6
 486 375 486 375 507.5 352.5 c 128,-1,7
 529 330 529 330 541 298.5 c 128,-1,8
 553 267 553 267 553 229 c 0,9,10
 553 181 553 181 536.5 139.5 c 128,-1,11
 520 98 520 98 487.5 67 c 128,-1,12
 455 36 455 36 406.5 18 c 128,-1,13
 358 0 358 0 294 0 c 2,14,-1
 210 0 l 1,15,-1
 210 126 l 1,16,-1
 308 126 l 2,17,18
 328 126 328 126 347.5 131 c 128,-1,19
 367 136 367 136 382.5 147 c 128,-1,20
 398 158 398 158 407.5 175 c 128,-1,21
 417 192 417 192 417 216 c 0,22,23
 417 288 417 288 342 288 c 2,24,-1
 280 288 l 1,25,-1
 280 502 l 1,26,-1
 472 556 l 1,27,-1
 472 574 l 1,28,-1
 357 574 l 2,29,30
 315 574 315 574 285.5 556 c 128,-1,31
 256 538 256 538 245 490 c 2,32,-1
 141 0 l 1,33,-1
 9 0 l 1,34,-1
 89 376 l 1,35,-1
 41 376 l 1,36,-1
 41 496 l 1,37,-1
 115 496 l 1,38,-1
 115 500 l 1,39,40
 136 599 136 599 202.5 649.5 c 128,-1,41
 269 700 269 700 361 700 c 2,42,-1
 573 700 l 1,0,-1
EndSplineSet
EndChar

StartChar: uni0162
Encoding: 354 354 237
Width: 612
Flags: W
LayerCount: 2
Fore
SplineSet
100 700 m 1,0,-1
 604 700 l 1,1,-1
 604 574 l 1,2,-1
 418 574 l 1,3,-1
 296 0 l 1,4,-1
 233 0 l 1,5,-1
 223 -46 l 1,6,-1
 235 -46 l 1,7,8
 243 -37 243 -37 255 -30.5 c 128,-1,9
 267 -24 267 -24 286 -24 c 0,10,11
 315 -24 315 -24 334 -44 c 128,-1,12
 353 -64 353 -64 353 -102 c 0,13,14
 353 -153 353 -153 321.5 -182.5 c 128,-1,15
 290 -212 290 -212 232 -212 c 0,16,17
 198 -212 198 -212 176 -206.5 c 128,-1,18
 154 -201 154 -201 139 -192 c 1,19,-1
 176 -123 l 1,20,21
 186 -130 186 -130 198.5 -134 c 128,-1,22
 211 -138 211 -138 227 -138 c 0,23,24
 244 -138 244 -138 255.5 -130.5 c 128,-1,25
 267 -123 267 -123 267 -109 c 0,26,27
 267 -90 267 -90 249 -90 c 0,28,29
 235 -90 235 -90 228 -104 c 1,30,-1
 144 -104 l 1,31,-1
 144 -92 l 1,32,-1
 286 574 l 1,33,-1
 100 574 l 1,34,-1
 100 700 l 1,0,-1
EndSplineSet
Substitution2: "'locl' Localized Forms in Latin lookup 12 subtable" uni021A
Substitution2: "'locl' Localized Forms in Latin lookup 11 subtable" uni021A
Substitution2: "'aalt' Access All Alternates in Latin lookup 0 subtable" uni021A
EndChar

StartChar: uni021A
Encoding: 538 538 238
Width: 612
Flags: W
LayerCount: 2
Fore
SplineSet
112 -134 m 0,0,1
 112 -115 112 -115 119 -98.5 c 128,-1,2
 126 -82 126 -82 138.5 -70 c 128,-1,3
 151 -58 151 -58 167.5 -51 c 128,-1,4
 184 -44 184 -44 203 -44 c 0,5,6
 221 -44 221 -44 237.5 -51 c 128,-1,7
 254 -58 254 -58 266.5 -70.5 c 128,-1,8
 279 -83 279 -83 286.5 -99.5 c 128,-1,9
 294 -116 294 -116 294 -135 c 0,10,11
 294 -140 294 -140 293.5 -145 c 128,-1,12
 293 -150 293 -150 292 -155 c 2,13,-1
 268 -269 l 2,14,15
 260 -304 260 -304 233 -321 c 128,-1,16
 206 -338 206 -338 167 -338 c 2,17,-1
 112 -338 l 1,18,-1
 112 -260 l 1,19,-1
 161 -260 l 2,20,21
 178 -260 178 -260 186.5 -255.5 c 128,-1,22
 195 -251 195 -251 197 -237 c 2,23,-1
 200 -218 l 1,24,25
 184 -218 184 -218 168 -213 c 128,-1,26
 152 -208 152 -208 139.5 -197.5 c 128,-1,27
 127 -187 127 -187 119.5 -171.5 c 128,-1,28
 112 -156 112 -156 112 -134 c 0,0,1
100 700 m 1,29,-1
 604 700 l 1,30,-1
 604 574 l 1,31,-1
 418 574 l 1,32,-1
 296 0 l 1,33,-1
 164 0 l 1,34,-1
 286 574 l 1,35,-1
 100 574 l 1,36,-1
 100 700 l 1,29,-1
EndSplineSet
EndChar

StartChar: Tbar
Encoding: 358 358 241
Width: 612
Flags: W
LayerCount: 2
Fore
SplineSet
100 700 m 1,0,-1
 604 700 l 1,1,-1
 604 574 l 1,2,-1
 418 574 l 1,3,-1
 391 449 l 1,4,-1
 516 449 l 1,5,-1
 516 329 l 1,6,-1
 366 329 l 1,7,-1
 296 0 l 1,8,-1
 164 0 l 1,9,-1
 234 329 l 1,10,-1
 108 329 l 1,11,-1
 108 449 l 1,12,-1
 259 449 l 1,13,-1
 286 574 l 1,14,-1
 100 574 l 1,15,-1
 100 700 l 1,0,-1
EndSplineSet
EndChar

StartChar: Uogonek
Encoding: 370 370 252
Width: 612
Flags: W
LayerCount: 2
Fore
SplineSet
626 700 m 1,0,-1
 529 242 l 2,1,2
 498 93 498 93 417 33 c 2,3,-1
 295 -58 l 2,4,5
 287 -64 287 -64 287 -72 c 0,6,7
 287 -86 287 -86 304 -86 c 2,8,-1
 367 -86 l 1,9,-1
 367 -170 l 1,10,-1
 243 -170 l 2,11,12
 208 -170 208 -170 188 -149 c 128,-1,13
 168 -128 168 -128 168 -99 c 0,14,15
 168 -79 168 -79 178 -59.5 c 128,-1,16
 188 -40 188 -40 210 -23 c 2,17,-1
 222 -13 l 1,18,19
 181 -10 181 -10 146 4.5 c 128,-1,20
 111 19 111 19 86 44.5 c 128,-1,21
 61 70 61 70 47 106 c 128,-1,22
 33 142 33 142 33 187 c 0,23,24
 33 203 33 203 34 218.5 c 128,-1,25
 35 234 35 234 40 254 c 2,26,-1
 134 700 l 1,27,-1
 266 700 l 1,28,-1
 169 242 l 2,29,30
 167 231 167 231 165.5 221 c 128,-1,31
 164 211 164 211 164 201 c 0,32,33
 164 158 164 158 187.5 134 c 128,-1,34
 211 110 211 110 258 110 c 0,35,36
 318 110 318 110 350.5 142 c 128,-1,37
 383 174 383 174 397 242 c 2,38,-1
 494 700 l 1,39,-1
 626 700 l 1,0,-1
EndSplineSet
EndChar

StartChar: uni01AF
Encoding: 431 431 259
Width: 612
Flags: W
LayerCount: 2
Fore
SplineSet
490 610 m 0,0,1
 490 647 490 647 516.5 673.5 c 128,-1,2
 543 700 543 700 580 700 c 256,3,4
 617 700 617 700 639 676.5 c 128,-1,5
 661 653 661 653 661 617 c 0,6,7
 661 605 661 605 658 592 c 2,8,-1
 635 484 l 2,9,10
 626 441 626 441 599 421.5 c 128,-1,11
 572 402 572 402 527 402 c 2,12,-1
 414 402 l 1,13,-1
 368 182 l 2,14,15
 357 129 357 129 337 91.5 c 128,-1,16
 317 54 317 54 289.5 30.5 c 128,-1,17
 262 7 262 7 228 -3.5 c 128,-1,18
 194 -14 194 -14 155 -14 c 0,19,20
 76 -14 76 -14 30 28 c 128,-1,21
 -16 70 -16 70 -16 150 c 0,22,23
 -16 181 -16 181 -9 213 c 2,24,-1
 93 700 l 1,25,-1
 225 700 l 1,26,-1
 117 189 l 2,27,28
 114 175 114 175 114 165 c 0,29,30
 114 140 114 140 127.5 126 c 128,-1,31
 141 112 141 112 168 112 c 0,32,33
 192 112 192 112 210 128.5 c 128,-1,34
 228 145 228 145 236 184 c 2,35,-1
 345 700 l 1,36,-1
 477 700 l 1,37,-1
 431 480 l 1,38,-1
 528 480 l 2,39,40
 557 480 557 480 563 510 c 2,41,-1
 566 526 l 1,42,43
 552 526 552 526 538.5 532 c 128,-1,44
 525 538 525 538 514.5 549 c 128,-1,45
 504 560 504 560 497 575.5 c 128,-1,46
 490 591 490 591 490 610 c 0,0,1
EndSplineSet
EndChar

StartChar: Thorn
Encoding: 222 222 281
Width: 612
Flags: W
LayerCount: 2
Fore
SplineSet
159 132 m 1,0,-1
 131 0 l 1,1,-1
 0 0 l 1,2,-1
 148 700 l 1,3,-1
 280 700 l 1,4,-1
 252 568 l 1,5,-1
 388 568 l 2,6,7
 429 568 429 568 462.5 554.5 c 128,-1,8
 496 541 496 541 519.5 517.5 c 128,-1,9
 543 494 543 494 555.5 463 c 128,-1,10
 568 432 568 432 568 398 c 0,11,12
 568 344 568 344 551 295.5 c 128,-1,13
 534 247 534 247 500 211 c 128,-1,14
 466 175 466 175 416.5 153.5 c 128,-1,15
 367 132 367 132 301 132 c 2,16,-1
 159 132 l 1,0,-1
186 258 m 1,17,-1
 315 258 l 2,18,19
 339 258 339 258 360.5 266 c 128,-1,20
 382 274 382 274 398 289 c 128,-1,21
 414 304 414 304 423.5 324.5 c 128,-1,22
 433 345 433 345 433 370 c 0,23,24
 433 405 433 405 411 423.5 c 128,-1,25
 389 442 389 442 350 442 c 2,26,-1
 225 442 l 1,27,-1
 186 258 l 1,17,-1
EndSplineSet
EndChar

StartChar: uni018F
Encoding: 399 399 282
Width: 612
Flags: W
LayerCount: 2
Fore
SplineSet
56 380 m 1,0,-1
 440 380 l 1,1,-1
 452 438 l 2,2,3
 455 452 455 452 456 463.5 c 128,-1,4
 457 475 457 475 457 486 c 0,5,6
 457 534 457 534 432 564 c 128,-1,7
 407 594 407 594 352 594 c 0,8,9
 317 594 317 594 291 581.5 c 128,-1,10
 265 569 265 569 247 548.5 c 128,-1,11
 229 528 229 528 218 502 c 128,-1,12
 207 476 207 476 202 448 c 1,13,-1
 70 448 l 1,14,15
 99 584 99 584 174.5 649 c 128,-1,16
 250 714 250 714 372 714 c 0,17,18
 424 714 424 714 464.5 698 c 128,-1,19
 505 682 505 682 533 653 c 128,-1,20
 561 624 561 624 575.5 584.5 c 128,-1,21
 590 545 590 545 590 498 c 0,22,23
 590 481 590 481 587.5 462.5 c 128,-1,24
 585 444 585 444 582 428 c 2,25,-1
 549 272 l 2,26,27
 517 119 517 119 438 52.5 c 128,-1,28
 359 -14 359 -14 230 -14 c 0,29,30
 182 -14 182 -14 143.5 0 c 128,-1,31
 105 14 105 14 78 40.5 c 128,-1,32
 51 67 51 67 36.5 104 c 128,-1,33
 22 141 22 141 22 186 c 0,34,35
 22 220 22 220 29 252 c 2,36,-1
 56 380 l 1,0,-1
254 106 m 0,37,38
 289 106 289 106 316 117 c 128,-1,39
 343 128 343 128 362 147.5 c 128,-1,40
 381 167 381 167 393.5 194 c 128,-1,41
 406 221 406 221 413 254 c 1,42,-1
 161 254 l 1,43,-1
 159 246 l 2,44,45
 157 235 157 235 155 222 c 128,-1,46
 153 209 153 209 153 198 c 0,47,48
 153 179 153 179 158 162 c 128,-1,49
 163 145 163 145 174.5 132.5 c 128,-1,50
 186 120 186 120 205.5 113 c 128,-1,51
 225 106 225 106 254 106 c 0,37,38
EndSplineSet
EndChar

StartChar: Eng
Encoding: 330 330 283
Width: 612
Flags: W
LayerCount: 2
Fore
SplineSet
340 66 m 1,0,-1
 358 66 l 1,1,-1
 493 700 l 1,2,-1
 619 700 l 1,3,-1
 449 -98 l 2,4,5
 438 -150 438 -150 404.5 -175 c 128,-1,6
 371 -200 371 -200 326 -200 c 2,7,-1
 147 -200 l 1,8,-1
 147 -80 l 1,9,-1
 298 -80 l 2,10,11
 329 -80 329 -80 335 -47 c 2,12,-1
 345 0 l 1,13,-1
 224 0 l 1,14,-1
 271 634 l 1,15,-1
 253 634 l 1,16,-1
 118 0 l 1,17,-1
 -7 0 l 1,18,-1
 141 700 l 1,19,-1
 387 700 l 1,20,-1
 340 66 l 1,0,-1
EndSplineSet
EndChar

StartChar: IJ
Encoding: 306 306 284
Width: 612
Flags: W
LayerCount: 2
Fore
SplineSet
265 700 m 1,0,-1
 189 342 l 1,1,-1
 57 342 l 1,2,-1
 133 700 l 1,3,-1
 265 700 l 1,0,-1
479 210 m 2,4,5
 466 151 466 151 444.5 108.5 c 128,-1,6
 423 66 423 66 391 39 c 128,-1,7
 359 12 359 12 316 -1 c 128,-1,8
 273 -14 273 -14 218 -14 c 0,9,10
 176 -14 176 -14 141 -2 c 128,-1,11
 106 10 106 10 80.5 33 c 128,-1,12
 55 56 55 56 40.5 89.5 c 128,-1,13
 26 123 26 123 26 167 c 0,14,15
 26 198 26 198 33 229 c 2,16,-1
 43 276 l 1,17,-1
 175 276 l 1,18,-1
 161 210 l 2,19,20
 158 196 158 196 158 181 c 0,21,22
 158 147 158 147 178 128.5 c 128,-1,23
 198 110 198 110 236 110 c 0,24,25
 279 110 279 110 308 136 c 128,-1,26
 337 162 337 162 347 210 c 2,27,-1
 425 576 l 1,28,-1
 350 576 l 1,29,-1
 350 700 l 1,30,-1
 624 700 l 1,31,-1
 624 576 l 1,32,-1
 557 576 l 1,33,-1
 479 210 l 2,4,5
EndSplineSet
Substitution2: "'ss01' Style Set 1 in Latin lookup 2 subtable" IJ.alt
Substitution2: "'aalt' Access All Alternates in Latin lookup 0 subtable" IJ.alt
EndChar

StartChar: IJacute
Encoding: 65538 -1 285
Width: 612
Flags: W
LayerCount: 2
Fore
SplineSet
265 700 m 1,0,-1
 189 342 l 1,1,-1
 57 342 l 1,2,-1
 133 700 l 1,3,-1
 265 700 l 1,0,-1
479 210 m 2,4,5
 466 151 466 151 444.5 108.5 c 128,-1,6
 423 66 423 66 391 39 c 128,-1,7
 359 12 359 12 316 -1 c 128,-1,8
 273 -14 273 -14 218 -14 c 0,9,10
 176 -14 176 -14 141 -2 c 128,-1,11
 106 10 106 10 80.5 33 c 128,-1,12
 55 56 55 56 40.5 89.5 c 128,-1,13
 26 123 26 123 26 167 c 0,14,15
 26 198 26 198 33 229 c 2,16,-1
 43 276 l 1,17,-1
 175 276 l 1,18,-1
 161 210 l 2,19,20
 158 196 158 196 158 181 c 0,21,22
 158 147 158 147 178 128.5 c 128,-1,23
 198 110 198 110 236 110 c 0,24,25
 279 110 279 110 308 136 c 128,-1,26
 337 162 337 162 347 210 c 2,27,-1
 425 576 l 1,28,-1
 350 576 l 1,29,-1
 350 700 l 1,30,-1
 624 700 l 1,31,-1
 624 576 l 1,32,-1
 557 576 l 1,33,-1
 479 210 l 2,4,5
375 898 m 1,34,-1
 266 774 l 1,35,-1
 164 774 l 1,36,-1
 245 910 l 1,37,-1
 375 910 l 1,38,-1
 375 898 l 1,34,-1
672 898 m 1,39,-1
 563 774 l 1,40,-1
 461 774 l 1,41,-1
 542 910 l 1,42,-1
 672 910 l 1,43,-1
 672 898 l 1,39,-1
EndSplineSet
Ligature2: "Ligature Substitution lookup 36 subtable" IJ acutecomb
Substitution2: "'ss01' Style Set 1 in Latin lookup 2 subtable" IJacute.alt
Substitution2: "'aalt' Access All Alternates in Latin lookup 0 subtable" IJacute.alt
EndChar

StartChar: aogonek
Encoding: 261 261 295
Width: 612
Flags: W
LayerCount: 2
Fore
SplineSet
479 119 m 1,0,-1
 489 112 l 1,1,-1
 537 146 l 1,2,-1
 600 52 l 1,3,-1
 442 -58 l 2,4,5
 434 -64 434 -64 434 -72 c 0,6,7
 434 -77 434 -77 438.5 -81.5 c 128,-1,8
 443 -86 443 -86 451 -86 c 2,9,-1
 514 -86 l 1,10,-1
 514 -170 l 1,11,-1
 390 -170 l 2,12,13
 354 -170 354 -170 332.5 -147.5 c 128,-1,14
 311 -125 311 -125 311 -95 c 0,15,16
 311 -76 311 -76 321 -57.5 c 128,-1,17
 331 -39 331 -39 352 -23 c 2,18,-1
 392 6 l 1,19,20
 360 28 360 28 353 66 c 1,21,-1
 335 66 l 1,22,23
 326 49 326 49 314 34.5 c 128,-1,24
 302 20 302 20 284.5 9.5 c 128,-1,25
 267 -1 267 -1 243.5 -7.5 c 128,-1,26
 220 -14 220 -14 188 -14 c 0,27,28
 149 -14 149 -14 116 1.5 c 128,-1,29
 83 17 83 17 58.5 44.5 c 128,-1,30
 34 72 34 72 20 109 c 128,-1,31
 6 146 6 146 6 190 c 0,32,33
 6 257 6 257 24 315 c 128,-1,34
 42 373 42 373 76 416.5 c 128,-1,35
 110 460 110 460 159.5 485 c 128,-1,36
 209 510 209 510 271 510 c 0,37,38
 326 510 326 510 358 488 c 128,-1,39
 390 466 390 466 401 430 c 1,40,-1
 419 430 l 1,41,-1
 433 496 l 1,42,-1
 559 496 l 1,43,-1
 479 119 l 1,0,-1
237 106 m 0,44,45
 273 106 273 106 301 120.5 c 128,-1,46
 329 135 329 135 347.5 159 c 128,-1,47
 366 183 366 183 376 215.5 c 128,-1,48
 386 248 386 248 386 284 c 0,49,50
 386 331 386 331 359 360.5 c 128,-1,51
 332 390 332 390 287 390 c 0,52,53
 251 390 251 390 223 375.5 c 128,-1,54
 195 361 195 361 176 337 c 128,-1,55
 157 313 157 313 147 280.5 c 128,-1,56
 137 248 137 248 137 212 c 0,57,58
 137 170 137 170 161.5 138 c 128,-1,59
 186 106 186 106 237 106 c 0,44,45
EndSplineSet
Substitution2: "'ss02' Style Set 2 in Latin lookup 3 subtable" aogonek.alt
Substitution2: "'aalt' Access All Alternates in Latin lookup 0 subtable" aogonek.alt
EndChar

StartChar: ae
Encoding: 230 230 308
Width: 612
Flags: W
LayerCount: 2
Fore
SplineSet
195 188 m 2,0,1
 169 188 169 188 154 175 c 128,-1,2
 139 162 139 162 139 141 c 0,3,4
 139 123 139 123 151 114.5 c 128,-1,5
 163 106 163 106 177 106 c 2,6,-1
 189 106 l 1,7,-1
 207 188 l 1,8,-1
 195 188 l 2,0,1
424 308 m 1,9,10
 427 318 427 318 427 329 c 0,11,12
 427 353 427 353 413 367.5 c 128,-1,13
 399 382 399 382 375 386 c 1,14,-1
 358 308 l 1,15,-1
 424 308 l 1,9,10
310 510 m 0,16,17
 371 510 371 510 415.5 494.5 c 128,-1,18
 460 479 460 479 488.5 452 c 128,-1,19
 517 425 517 425 530.5 388 c 128,-1,20
 544 351 544 351 544 309 c 0,21,22
 544 278 544 278 537 243 c 2,23,-1
 525 188 l 1,24,-1
 333 188 l 1,25,-1
 316 110 l 1,26,27
 340 110 340 110 361.5 120.5 c 128,-1,28
 383 131 383 131 397 152 c 1,29,-1
 485 88 l 1,30,31
 443 34 443 34 382.5 10 c 128,-1,32
 322 -14 322 -14 237 -14 c 2,33,-1
 208 -14 l 2,34,35
 167 -14 167 -14 131 -6.5 c 128,-1,36
 95 1 95 1 68 18.5 c 128,-1,37
 41 36 41 36 25.5 63.5 c 128,-1,38
 10 91 10 91 10 131 c 0,39,40
 10 170 10 170 24.5 202.5 c 128,-1,41
 39 235 39 235 66 258.5 c 128,-1,42
 93 282 93 282 132.5 295 c 128,-1,43
 172 308 172 308 222 308 c 2,44,-1
 232 308 l 1,45,-1
 249 386 l 1,46,47
 222 386 222 386 200 372.5 c 128,-1,48
 178 359 178 359 164 336 c 1,49,-1
 82 406 l 1,50,51
 117 454 117 454 172 482 c 128,-1,52
 227 510 227 510 310 510 c 0,16,17
EndSplineSet
EndChar

StartChar: uni0180
Encoding: 384 384 309
Width: 612
Flags: W
LayerCount: 2
Fore
SplineSet
145 0 m 1,0,-1
 20 0 l 1,1,-1
 134 538 l 1,2,-1
 86 538 l 1,3,-1
 86 652 l 1,4,-1
 158 652 l 1,5,-1
 171 714 l 1,6,-1
 297 714 l 1,7,-1
 284 652 l 1,8,-1
 410 652 l 1,9,-1
 410 538 l 1,10,-1
 259 538 l 1,11,-1
 235 424 l 1,12,-1
 253 424 l 1,13,14
 305 510 305 510 410 510 c 0,15,16
 487 510 487 510 532 458 c 128,-1,17
 577 406 577 406 577 320 c 0,18,19
 577 243 577 243 555.5 181 c 128,-1,20
 534 119 534 119 497 75.5 c 128,-1,21
 460 32 460 32 410 9 c 128,-1,22
 360 -14 360 -14 304 -14 c 0,23,24
 271 -14 271 -14 248.5 -7 c 128,-1,25
 226 0 226 0 211.5 12 c 128,-1,26
 197 24 197 24 189 39.5 c 128,-1,27
 181 55 181 55 178 72 c 1,28,-1
 160 72 l 1,29,-1
 145 0 l 1,0,-1
288 106 m 0,30,31
 324 107 324 107 353 121.5 c 128,-1,32
 382 136 382 136 403 161 c 128,-1,33
 424 186 424 186 435 218.5 c 128,-1,34
 446 251 446 251 446 288 c 0,35,36
 446 335 446 335 418.5 362.5 c 128,-1,37
 391 390 391 390 344 390 c 0,38,39
 309 390 309 390 281.5 376 c 128,-1,40
 254 362 254 362 234 337.5 c 128,-1,41
 214 313 214 313 203.5 279.5 c 128,-1,42
 193 246 193 246 193 208 c 0,43,44
 193 160 193 160 218 133 c 128,-1,45
 243 106 243 106 288 106 c 0,30,31
EndSplineSet
EndChar

StartChar: ccedilla
Encoding: 231 231 310
Width: 612
Flags: W
LayerCount: 2
Fore
SplineSet
534 182 m 1,0,1
 507 96 507 96 440 43.5 c 128,-1,2
 373 -9 373 -9 261 -13 c 1,3,-1
 247 -46 l 1,4,-1
 259 -46 l 1,5,6
 267 -37 267 -37 279 -30.5 c 128,-1,7
 291 -24 291 -24 310 -24 c 0,8,9
 339 -24 339 -24 358 -44 c 128,-1,10
 377 -64 377 -64 377 -102 c 0,11,12
 377 -153 377 -153 345.5 -182.5 c 128,-1,13
 314 -212 314 -212 256 -212 c 0,14,15
 222 -212 222 -212 200 -206.5 c 128,-1,16
 178 -201 178 -201 163 -192 c 1,17,-1
 200 -123 l 1,18,19
 210 -130 210 -130 222.5 -134 c 128,-1,20
 235 -138 235 -138 251 -138 c 0,21,22
 268 -138 268 -138 279.5 -130.5 c 128,-1,23
 291 -123 291 -123 291 -109 c 0,24,25
 291 -90 291 -90 273 -90 c 0,26,27
 259 -90 259 -90 252 -104 c 1,28,-1
 155 -104 l 1,29,-1
 155 -92 l 1,30,-1
 185 -7 l 1,31,32
 117 8 117 8 73.5 62 c 128,-1,33
 30 116 30 116 30 208 c 0,34,35
 30 270 30 270 51.5 325 c 128,-1,36
 73 380 73 380 114 421 c 128,-1,37
 155 462 155 462 213 486 c 128,-1,38
 271 510 271 510 345 510 c 0,39,40
 399 510 399 510 440 494 c 128,-1,41
 481 478 481 478 508 450.5 c 128,-1,42
 535 423 535 423 549 386 c 128,-1,43
 563 349 563 349 563 308 c 1,44,-1
 435 283 l 1,45,46
 435 334 435 334 409.5 362 c 128,-1,47
 384 390 384 390 327 390 c 0,48,49
 291 390 291 390 260.5 376.5 c 128,-1,50
 230 363 230 363 207.5 339.5 c 128,-1,51
 185 316 185 316 172.5 284.5 c 128,-1,52
 160 253 160 253 160 217 c 0,53,54
 160 160 160 160 190 133 c 128,-1,55
 220 106 220 106 266 106 c 0,56,57
 329 106 329 106 364 134 c 128,-1,58
 399 162 399 162 417 213 c 1,59,-1
 534 182 l 1,0,1
EndSplineSet
EndChar

StartChar: eth
Encoding: 240 240 315
Width: 612
Flags: W
LayerCount: 2
Fore
SplineSet
427 464 m 1,0,1
 422 499 422 499 402 526 c 128,-1,2
 382 553 382 553 350 572 c 1,3,-1
 330 534 l 1,4,-1
 246 576 l 1,5,-1
 262 605 l 1,6,7
 230 611 230 611 197 614 c 1,8,-1
 241 728 l 1,9,10
 262 726 262 726 281.5 723 c 128,-1,11
 301 720 301 720 320 715 c 1,12,-1
 340 752 l 1,13,-1
 424 710 l 1,14,-1
 409 683 l 1,15,16
 481 645 481 645 520.5 573 c 128,-1,17
 560 501 560 501 560 388 c 0,18,19
 560 318 560 318 541.5 246.5 c 128,-1,20
 523 175 523 175 483.5 117 c 128,-1,21
 444 59 444 59 381 22.5 c 128,-1,22
 318 -14 318 -14 230 -14 c 0,23,24
 181 -14 181 -14 141 0 c 128,-1,25
 101 14 101 14 72.5 41 c 128,-1,26
 44 68 44 68 28 108 c 128,-1,27
 12 148 12 148 12 199 c 0,28,29
 12 257 12 257 32 313 c 128,-1,30
 52 369 52 369 88.5 412.5 c 128,-1,31
 125 456 125 456 176.5 483 c 128,-1,32
 228 510 228 510 292 510 c 0,33,34
 341 510 341 510 368.5 497.5 c 128,-1,35
 396 485 396 485 409 464 c 1,36,-1
 427 464 l 1,0,1
244 106 m 0,37,38
 280 106 280 106 310 121 c 128,-1,39
 340 136 340 136 362.5 161.5 c 128,-1,40
 385 187 385 187 397.5 220.5 c 128,-1,41
 410 254 410 254 410 290 c 0,42,43
 410 338 410 338 382 364 c 128,-1,44
 354 390 354 390 305 390 c 0,45,46
 269 390 269 390 238.5 374.5 c 128,-1,47
 208 359 208 359 186.5 333.5 c 128,-1,48
 165 308 165 308 152.5 275 c 128,-1,49
 140 242 140 242 140 206 c 0,50,51
 140 156 140 156 168 131 c 128,-1,52
 196 106 196 106 244 106 c 0,37,38
EndSplineSet
EndChar

StartChar: dcaron
Encoding: 271 271 316
Width: 612
Flags: W
LayerCount: 2
Fore
SplineSet
215 66 m 1,0,1
 198 19 198 19 168.5 2.5 c 128,-1,2
 139 -14 139 -14 98 -14 c 0,3,4
 75 -14 75 -14 54.5 -5.5 c 128,-1,5
 34 3 34 3 18.5 19.5 c 128,-1,6
 3 36 3 36 -6.5 61 c 128,-1,7
 -16 86 -16 86 -16 119 c 0,8,9
 -16 144 -16 144 -14 173 c 128,-1,10
 -12 202 -12 202 -4 235 c 2,11,-1
 17 330 l 2,12,13
 36 414 36 414 82.5 462 c 128,-1,14
 129 510 129 510 194 510 c 0,15,16
 229 510 229 510 250 495 c 128,-1,17
 271 480 271 480 275 454 c 1,18,-1
 293 454 l 1,19,-1
 348 714 l 1,20,-1
 474 714 l 1,21,-1
 349 119 l 1,22,-1
 359 112 l 1,23,-1
 422 156 l 1,24,-1
 485 62 l 1,25,-1
 411 12 l 2,26,27
 391 -2 391 -2 371 -8 c 128,-1,28
 351 -14 351 -14 332 -14 c 0,29,30
 296 -14 296 -14 268.5 7 c 128,-1,31
 241 28 241 28 233 66 c 1,32,-1
 215 66 l 1,0,1
632 496 m 2,33,34
 622 450 622 450 591.5 428 c 128,-1,35
 561 406 561 406 523 406 c 2,36,-1
 471 406 l 1,37,-1
 471 484 l 1,38,-1
 524 484 l 2,39,40
 552 484 552 484 558 514 c 2,41,-1
 560 526 l 1,42,43
 544 526 544 526 530 532.5 c 128,-1,44
 516 539 516 539 505.5 550.5 c 128,-1,45
 495 562 495 562 489 576.5 c 128,-1,46
 483 591 483 591 483 607 c 0,47,48
 483 648 483 648 510.5 674 c 128,-1,49
 538 700 538 700 578 700 c 0,50,51
 612 700 612 700 634.5 679 c 128,-1,52
 657 658 657 658 657 623 c 0,53,54
 657 618 657 618 657 614 c 128,-1,55
 657 610 657 610 655 602 c 2,56,-1
 632 496 l 2,33,34
218 390 m 0,57,58
 182 390 182 390 161 360 c 128,-1,59
 140 330 140 330 129 276 c 2,60,-1
 117 218 l 2,61,62
 111 191 111 191 111 169 c 0,63,64
 111 137 111 137 124 121.5 c 128,-1,65
 137 106 137 106 160 106 c 0,66,67
 193 106 193 106 211 129.5 c 128,-1,68
 229 153 229 153 238 194 c 2,69,-1
 261 302 l 2,70,71
 263 311 263 311 264 319.5 c 128,-1,72
 265 328 265 328 265 336 c 0,73,74
 265 360 265 360 253.5 375 c 128,-1,75
 242 390 242 390 218 390 c 0,57,58
EndSplineSet
EndChar

StartChar: dcroat
Encoding: 273 273 319
Width: 612
Flags: W
LayerCount: 2
Fore
SplineSet
479 119 m 1,0,-1
 489 112 l 1,1,-1
 543 150 l 1,2,-1
 606 56 l 1,3,-1
 541 12 l 2,4,5
 521 -2 521 -2 500 -8 c 128,-1,6
 479 -14 479 -14 459 -14 c 0,7,8
 421 -14 421 -14 391 7 c 128,-1,9
 361 28 361 28 353 66 c 1,10,-1
 335 66 l 1,11,12
 326 49 326 49 314 34.5 c 128,-1,13
 302 20 302 20 284.5 9.5 c 128,-1,14
 267 -1 267 -1 243.5 -7.5 c 128,-1,15
 220 -14 220 -14 188 -14 c 0,16,17
 149 -14 149 -14 116 1.5 c 128,-1,18
 83 17 83 17 58.5 44.5 c 128,-1,19
 34 72 34 72 20 109 c 128,-1,20
 6 146 6 146 6 190 c 0,21,22
 6 257 6 257 24 315 c 128,-1,23
 42 373 42 373 76 416.5 c 128,-1,24
 110 460 110 460 159.5 485 c 128,-1,25
 209 510 209 510 271 510 c 0,26,27
 324 510 324 510 357 486 c 128,-1,28
 390 462 390 462 400 424 c 1,29,-1
 418 424 l 1,30,-1
 442 538 l 1,31,-1
 271 538 l 1,32,-1
 271 652 l 1,33,-1
 466 652 l 1,34,-1
 479 714 l 1,35,-1
 606 714 l 1,36,-1
 593 652 l 1,37,-1
 640 652 l 1,38,-1
 640 538 l 1,39,-1
 568 538 l 1,40,-1
 544 424 l 1,41,-1
 479 119 l 1,0,-1
237 106 m 0,42,43
 273 106 273 106 301 120.5 c 128,-1,44
 329 135 329 135 347.5 159 c 128,-1,45
 366 183 366 183 376 215.5 c 128,-1,46
 386 248 386 248 386 284 c 0,47,48
 386 331 386 331 359 360.5 c 128,-1,49
 332 390 332 390 287 390 c 0,50,51
 251 390 251 390 223 375.5 c 128,-1,52
 195 361 195 361 176 337 c 128,-1,53
 157 313 157 313 147 280.5 c 128,-1,54
 137 248 137 248 137 212 c 0,55,56
 137 170 137 170 161.5 138 c 128,-1,57
 186 106 186 106 237 106 c 0,42,43
EndSplineSet
EndChar

StartChar: eogonek
Encoding: 281 281 327
Width: 612
Flags: W
LayerCount: 2
Fore
SplineSet
165 207 m 1,0,1
 163 199 163 199 163 190 c 0,2,3
 163 154 163 154 190.5 130 c 128,-1,4
 218 106 218 106 263 106 c 0,5,6
 310 106 310 106 338 123 c 128,-1,7
 366 140 366 140 381 163 c 1,8,-1
 481 100 l 1,9,10
 459 63 459 63 408 27 c 2,11,-1
 286 -58 l 2,12,13
 278 -64 278 -64 278 -72 c 0,14,15
 278 -77 278 -77 282.5 -81.5 c 128,-1,16
 287 -86 287 -86 295 -86 c 2,17,-1
 344 -86 l 1,18,-1
 344 -170 l 1,19,-1
 234 -170 l 2,20,21
 198 -170 198 -170 177.5 -148 c 128,-1,22
 157 -126 157 -126 157 -97 c 0,23,24
 157 -78 157 -78 166.5 -59 c 128,-1,25
 176 -40 176 -40 196 -23 c 2,26,-1
 211 -11 l 1,27,28
 172 -6 172 -6 140 10 c 128,-1,29
 108 26 108 26 84.5 50.5 c 128,-1,30
 61 75 61 75 48.5 108 c 128,-1,31
 36 141 36 141 36 180 c 0,32,33
 36 248 36 248 56.5 308 c 128,-1,34
 77 368 77 368 116 413 c 128,-1,35
 155 458 155 458 212 484 c 128,-1,36
 269 510 269 510 343 510 c 0,37,38
 395 510 395 510 433.5 493.5 c 128,-1,39
 472 477 472 477 497 449.5 c 128,-1,40
 522 422 522 422 534.5 387 c 128,-1,41
 547 352 547 352 547 315 c 0,42,43
 547 303 547 303 545.5 290.5 c 128,-1,44
 544 278 544 278 540 258 c 2,45,-1
 529 207 l 1,46,-1
 165 207 l 1,0,1
323 396 m 0,47,48
 276 396 276 396 241.5 372.5 c 128,-1,49
 207 349 207 349 190 315 c 1,50,-1
 424 315 l 1,51,52
 424 353 424 353 400.5 374.5 c 128,-1,53
 377 396 377 396 323 396 c 0,47,48
EndSplineSet
EndChar

StartChar: uni0123
Encoding: 291 291 340
Width: 612
Flags: W
LayerCount: 2
Fore
SplineSet
435 664 m 0,0,1
 435 625 435 625 408.5 599.5 c 128,-1,2
 382 574 382 574 345 574 c 0,3,4
 326 574 326 574 309.5 581 c 128,-1,5
 293 588 293 588 280.5 600.5 c 128,-1,6
 268 613 268 613 261 629.5 c 128,-1,7
 254 646 254 646 254 665 c 0,8,9
 254 670 254 670 254.5 674.5 c 128,-1,10
 255 679 255 679 256 684 c 2,11,-1
 279 798 l 2,12,13
 287 834 287 834 314 851 c 128,-1,14
 341 868 341 868 380 868 c 2,15,-1
 453 868 l 1,16,-1
 453 790 l 1,17,-1
 386 790 l 2,18,19
 370 790 370 790 361.5 785 c 128,-1,20
 353 780 353 780 350 766 c 2,21,-1
 347 748 l 1,22,23
 363 748 363 748 379 743.5 c 128,-1,24
 395 739 395 739 407.5 728.5 c 128,-1,25
 420 718 420 718 427.5 702 c 128,-1,26
 435 686 435 686 435 664 c 0,0,1
384 72 m 1,27,-1
 366 72 l 1,28,29
 355 55 355 55 341 39.5 c 128,-1,30
 327 24 327 24 307 12 c 128,-1,31
 287 0 287 0 259 -7 c 128,-1,32
 231 -14 231 -14 194 -14 c 0,33,34
 158 -14 158 -14 126.5 -2 c 128,-1,35
 95 10 95 10 72 34 c 128,-1,36
 49 58 49 58 35.5 94.5 c 128,-1,37
 22 131 22 131 22 180 c 0,38,39
 22 242 22 242 40.5 301.5 c 128,-1,40
 59 361 59 361 95 407.5 c 128,-1,41
 131 454 131 454 184.5 482 c 128,-1,42
 238 510 238 510 309 510 c 0,43,44
 370 510 370 510 401.5 486.5 c 128,-1,45
 433 463 433 463 441 424 c 1,46,-1
 459 424 l 1,47,-1
 474 496 l 1,48,-1
 600 496 l 1,49,-1
 469 -122 l 2,50,51
 461 -156 461 -156 435 -178 c 128,-1,52
 409 -200 409 -200 375 -200 c 2,53,-1
 67 -200 l 1,54,-1
 67 -80 l 1,55,-1
 325 -80 l 2,56,57
 352 -80 352 -80 358 -50 c 2,58,-1
 384 72 l 1,27,-1
259 106 m 0,59,60
 295 106 295 106 325.5 121 c 128,-1,61
 356 136 356 136 378.5 161 c 128,-1,62
 401 186 401 186 413.5 219 c 128,-1,63
 426 252 426 252 426 288 c 0,64,65
 426 336 426 336 398 363 c 128,-1,66
 370 390 370 390 319 390 c 0,67,68
 281 390 281 390 250 375 c 128,-1,69
 219 360 219 360 197.5 335.5 c 128,-1,70
 176 311 176 311 164 278.5 c 128,-1,71
 152 246 152 246 152 212 c 0,72,73
 152 159 152 159 181.5 132.5 c 128,-1,74
 211 106 211 106 259 106 c 0,59,60
EndSplineSet
Substitution2: "'ss02' Style Set 2 in Latin lookup 3 subtable" uni0123.alt
Substitution2: "'aalt' Access All Alternates in Latin lookup 0 subtable" uni0123.alt
EndChar

StartChar: hbar
Encoding: 295 295 346
Width: 612
Flags: W
LayerCount: 2
Fore
SplineSet
385 288 m 2,0,1
 387 299 387 299 388 305.5 c 128,-1,2
 389 312 389 312 389 320 c 0,3,4
 389 356 389 356 368 376 c 128,-1,5
 347 396 347 396 311 396 c 0,6,7
 260 396 260 396 227.5 360 c 128,-1,8
 195 324 195 324 182 264 c 2,9,-1
 126 0 l 1,10,-1
 0 0 l 1,11,-1
 114 538 l 1,12,-1
 66 538 l 1,13,-1
 66 652 l 1,14,-1
 139 652 l 1,15,-1
 152 714 l 1,16,-1
 278 714 l 1,17,-1
 265 652 l 1,18,-1
 381 652 l 1,19,-1
 381 538 l 1,20,-1
 240 538 l 1,21,-1
 217 428 l 1,22,-1
 235 428 l 1,23,24
 286 510 286 510 381 510 c 0,25,26
 443 510 443 510 482.5 473 c 128,-1,27
 522 436 522 436 522 365 c 0,28,29
 522 351 522 351 520 336.5 c 128,-1,30
 518 322 518 322 515 306 c 2,31,-1
 475 119 l 1,32,-1
 485 112 l 1,33,-1
 549 156 l 1,34,-1
 612 62 l 1,35,-1
 537 12 l 2,36,37
 499 -14 499 -14 456 -14 c 0,38,39
 434 -14 434 -14 414 -6.5 c 128,-1,40
 394 1 394 1 379 15 c 128,-1,41
 364 29 364 29 355 49 c 128,-1,42
 346 69 346 69 346 94 c 0,43,44
 346 107 346 107 350 126 c 2,45,-1
 385 288 l 2,0,1
EndSplineSet
EndChar

StartChar: iogonek
Encoding: 303 303 354
Width: 612
Flags: W
LayerCount: 2
Fore
SplineSet
228 -170 m 2,0,1
 192 -170 192 -170 170.5 -147.5 c 128,-1,2
 149 -125 149 -125 149 -95 c 0,3,4
 149 -76 149 -76 159 -57.5 c 128,-1,5
 169 -39 169 -39 190 -23 c 2,6,-1
 230 6 l 1,7,8
 211 20 211 20 200 41 c 128,-1,9
 189 62 189 62 189 91 c 0,10,11
 189 110 189 110 193 126 c 2,12,-1
 253 377 l 1,13,-1
 243 384 l 1,14,-1
 109 292 l 1,15,-1
 46 386 l 1,16,-1
 191 484 l 2,17,18
 211 498 211 498 232 504 c 128,-1,19
 253 510 253 510 273 510 c 0,20,21
 295 510 295 510 315 502.5 c 128,-1,22
 335 495 335 495 350 481.5 c 128,-1,23
 365 468 365 468 373.5 448.5 c 128,-1,24
 382 429 382 429 382 405 c 0,25,26
 382 386 382 386 378 370 c 2,27,-1
 318 119 l 1,28,-1
 328 112 l 1,29,-1
 462 204 l 1,30,-1
 525 110 l 1,31,-1
 280 -58 l 2,32,33
 272 -63 272 -63 272 -72 c 0,34,35
 272 -86 272 -86 289 -86 c 2,36,-1
 352 -86 l 1,37,-1
 352 -170 l 1,38,-1
 228 -170 l 2,0,1
467 643 m 256,39,40
 467 623 467 623 459.5 605.5 c 128,-1,41
 452 588 452 588 439 575.5 c 128,-1,42
 426 563 426 563 408.5 555.5 c 128,-1,43
 391 548 391 548 372 548 c 0,44,45
 352 548 352 548 335 555.5 c 128,-1,46
 318 563 318 563 305 575.5 c 128,-1,47
 292 588 292 588 284.5 605.5 c 128,-1,48
 277 623 277 623 277 643 c 256,49,50
 277 663 277 663 284.5 680.5 c 128,-1,51
 292 698 292 698 305 710.5 c 128,-1,52
 318 723 318 723 335 730.5 c 128,-1,53
 352 738 352 738 372 738 c 0,54,55
 391 738 391 738 408.5 730.5 c 128,-1,56
 426 723 426 723 439 710.5 c 128,-1,57
 452 698 452 698 459.5 680.5 c 128,-1,58
 467 663 467 663 467 643 c 256,39,40
EndSplineSet
Substitution2: "'ss02' Style Set 2 in Latin lookup 3 subtable" iogonek.alt
Substitution2: "'aalt' Access All Alternates in Latin lookup 0 subtable" iogonek.alt
EndChar

StartChar: dotlessi
Encoding: 305 305 358
Width: 612
Flags: W
LayerCount: 2
Fore
SplineSet
380 12 m 1,0,1
 360 -2 360 -2 339 -8 c 128,-1,2
 318 -14 318 -14 298 -14 c 0,3,4
 276 -14 276 -14 256 -6.5 c 128,-1,5
 236 1 236 1 221 14.5 c 128,-1,6
 206 28 206 28 197.5 47.5 c 128,-1,7
 189 67 189 67 189 91 c 0,8,9
 189 110 189 110 193 126 c 2,10,-1
 253 377 l 1,11,-1
 243 384 l 1,12,-1
 109 292 l 1,13,-1
 46 386 l 1,14,-1
 191 484 l 2,15,16
 211 498 211 498 232 504 c 128,-1,17
 253 510 253 510 273 510 c 0,18,19
 295 510 295 510 315 502.5 c 128,-1,20
 335 495 335 495 350 481.5 c 128,-1,21
 365 468 365 468 373.5 448.5 c 128,-1,22
 382 429 382 429 382 405 c 0,23,24
 382 386 382 386 378 370 c 2,25,-1
 318 119 l 1,26,-1
 328 112 l 1,27,-1
 462 204 l 1,28,-1
 525 110 l 1,29,-1
 380 12 l 1,30,-1
 380 12 l 1,0,1
EndSplineSet
Substitution2: "'ss02' Style Set 2 in Latin lookup 3 subtable" dotlessi.alt
Substitution2: "'aalt' Access All Alternates in Latin lookup 0 subtable" dotlessi.alt
EndChar

StartChar: jcircumflex
Encoding: 309 309 359
Width: 612
Flags: W
LayerCount: 2
Fore
SplineSet
357 -98 m 2,0,1
 346 -150 346 -150 313 -175 c 128,-1,2
 280 -200 280 -200 235 -200 c 2,3,-1
 0 -200 l 1,4,-1
 0 -80 l 1,5,-1
 205 -80 l 2,6,7
 234 -80 234 -80 242 -47 c 2,8,-1
 336 377 l 1,9,-1
 326 384 l 1,10,-1
 192 292 l 1,11,-1
 129 386 l 1,12,-1
 274 484 l 2,13,14
 313 510 313 510 356 510 c 0,15,16
 378 510 378 510 397.5 502.5 c 128,-1,17
 417 495 417 495 432 481.5 c 128,-1,18
 447 468 447 468 455.5 447.5 c 128,-1,19
 464 427 464 427 464 402 c 0,20,21
 464 386 464 386 461 370 c 2,22,-1
 357 -98 l 2,0,1
231 582 m 1,23,-1
 333 706 l 1,24,-1
 505 706 l 1,25,-1
 560 570 l 1,26,-1
 449 570 l 1,27,-1
 419 658 l 1,28,-1
 407 658 l 1,29,-1
 346 570 l 1,30,-1
 231 570 l 1,31,-1
 231 582 l 1,23,-1
EndSplineSet
Substitution2: "'ss02' Style Set 2 in Latin lookup 3 subtable" jcircumflex.alt
Substitution2: "'aalt' Access All Alternates in Latin lookup 0 subtable" jcircumflex.alt
EndChar

StartChar: uni0137
Encoding: 311 311 360
Width: 612
Flags: W
LayerCount: 2
Fore
SplineSet
165 -134 m 0,0,1
 165 -115 165 -115 172 -98.5 c 128,-1,2
 179 -82 179 -82 191.5 -70 c 128,-1,3
 204 -58 204 -58 220.5 -51 c 128,-1,4
 237 -44 237 -44 256 -44 c 0,5,6
 274 -44 274 -44 290.5 -51 c 128,-1,7
 307 -58 307 -58 319.5 -70.5 c 128,-1,8
 332 -83 332 -83 339.5 -99.5 c 128,-1,9
 347 -116 347 -116 347 -135 c 0,10,11
 347 -140 347 -140 346.5 -145 c 128,-1,12
 346 -150 346 -150 345 -155 c 2,13,-1
 321 -269 l 2,14,15
 313 -304 313 -304 286 -321 c 128,-1,16
 259 -338 259 -338 220 -338 c 2,17,-1
 172 -338 l 1,18,-1
 172 -260 l 1,19,-1
 214 -260 l 2,20,21
 231 -260 231 -260 239.5 -255.5 c 128,-1,22
 248 -251 248 -251 250 -237 c 2,23,-1
 253 -218 l 1,24,25
 237 -218 237 -218 221 -213 c 128,-1,26
 205 -208 205 -208 192.5 -197.5 c 128,-1,27
 180 -187 180 -187 172.5 -171.5 c 128,-1,28
 165 -156 165 -156 165 -134 c 0,0,1
30 0 m 1,29,-1
 182 714 l 1,30,-1
 308 714 l 1,31,-1
 223 314 l 1,32,-1
 247 314 l 1,33,-1
 448 510 l 1,34,-1
 526 426 l 1,35,-1
 342 254 l 1,36,-1
 342 236 l 1,37,-1
 422 104 l 1,38,-1
 434 104 l 1,39,-1
 489 142 l 1,40,-1
 550 54 l 1,41,-1
 505 20 l 2,42,43
 480 1 480 1 456.5 -6.5 c 128,-1,44
 433 -14 433 -14 411 -14 c 0,45,46
 379 -14 379 -14 353 1.5 c 128,-1,47
 327 17 327 17 310 46 c 2,48,-1
 220 194 l 1,49,-1
 197 194 l 1,50,-1
 156 0 l 1,51,-1
 30 0 l 1,29,-1
EndSplineSet
EndChar

StartChar: kgreenlandic
Encoding: 312 312 361
Width: 612
Flags: W
LayerCount: 2
Fore
SplineSet
256 496 m 1,0,-1
 217 314 l 1,1,-1
 241 314 l 1,2,-1
 442 510 l 1,3,-1
 520 426 l 1,4,-1
 336 254 l 1,5,-1
 336 236 l 1,6,-1
 416 104 l 1,7,-1
 428 104 l 1,8,-1
 483 142 l 1,9,-1
 544 54 l 1,10,-1
 499 20 l 2,11,12
 474 1 474 1 450.5 -6.5 c 128,-1,13
 427 -14 427 -14 405 -14 c 0,14,15
 373 -14 373 -14 347 1.5 c 128,-1,16
 321 17 321 17 304 46 c 2,17,-1
 214 194 l 1,18,-1
 191 194 l 1,19,-1
 150 0 l 1,20,-1
 24 0 l 1,21,-1
 130 496 l 1,22,-1
 256 496 l 1,0,-1
EndSplineSet
EndChar

StartChar: lcaron
Encoding: 318 318 363
Width: 612
Flags: W
LayerCount: 2
Fore
SplineSet
414 610 m 0,0,1
 414 649 414 649 440.5 674.5 c 128,-1,2
 467 700 467 700 505 700 c 0,3,4
 523 700 523 700 539.5 693 c 128,-1,5
 556 686 556 686 568.5 673.5 c 128,-1,6
 581 661 581 661 588.5 644.5 c 128,-1,7
 596 628 596 628 596 609 c 0,8,9
 596 604 596 604 595.5 599.5 c 128,-1,10
 595 595 595 595 594 590 c 2,11,-1
 570 476 l 2,12,13
 562 440 562 440 535 423 c 128,-1,14
 508 406 508 406 469 406 c 2,15,-1
 392 406 l 1,16,-1
 392 484 l 1,17,-1
 466 484 l 2,18,19
 495 484 495 484 499 508 c 2,20,-1
 502 523 l 1,21,22
 469 523 469 523 441.5 544 c 128,-1,23
 414 565 414 565 414 610 c 0,0,1
303 12 m 1,24,25
 283 -2 283 -2 262 -8 c 128,-1,26
 241 -14 241 -14 221 -14 c 0,27,28
 199 -14 199 -14 179 -6.5 c 128,-1,29
 159 1 159 1 144 14.5 c 128,-1,30
 129 28 129 28 120.5 47.5 c 128,-1,31
 112 67 112 67 112 91 c 0,32,33
 112 109 112 109 116 126 c 2,34,-1
 225 581 l 1,35,-1
 215 588 l 1,36,-1
 81 496 l 1,37,-1
 18 590 l 1,38,-1
 163 688 l 2,39,40
 183 702 183 702 204 708 c 128,-1,41
 225 714 225 714 245 714 c 0,42,43
 267 714 267 714 287 706.5 c 128,-1,44
 307 699 307 699 322 685.5 c 128,-1,45
 337 672 337 672 345.5 652.5 c 128,-1,46
 354 633 354 633 354 609 c 0,47,48
 354 593 354 593 350 574 c 2,49,-1
 241 119 l 1,50,-1
 251 112 l 1,51,-1
 385 204 l 1,52,-1
 448 110 l 1,53,-1
 303 12 l 1,54,-1
 303 12 l 1,24,25
EndSplineSet
Substitution2: "'ss02' Style Set 2 in Latin lookup 3 subtable" lcaron.alt
Substitution2: "'aalt' Access All Alternates in Latin lookup 0 subtable" lcaron.alt
EndChar

StartChar: uni013C
Encoding: 316 316 364
Width: 612
Flags: W
LayerCount: 2
Fore
SplineSet
142 -134 m 0,0,1
 142 -115 142 -115 149 -98.5 c 128,-1,2
 156 -82 156 -82 168.5 -70 c 128,-1,3
 181 -58 181 -58 197.5 -51 c 128,-1,4
 214 -44 214 -44 233 -44 c 0,5,6
 251 -44 251 -44 267.5 -51 c 128,-1,7
 284 -58 284 -58 296.5 -70.5 c 128,-1,8
 309 -83 309 -83 316.5 -99.5 c 128,-1,9
 324 -116 324 -116 324 -135 c 0,10,11
 324 -140 324 -140 323.5 -145 c 128,-1,12
 323 -150 323 -150 322 -155 c 2,13,-1
 298 -269 l 2,14,15
 290 -304 290 -304 263 -321 c 128,-1,16
 236 -338 236 -338 197 -338 c 2,17,-1
 149 -338 l 1,18,-1
 149 -260 l 1,19,-1
 191 -260 l 2,20,21
 208 -260 208 -260 216.5 -255.5 c 128,-1,22
 225 -251 225 -251 227 -237 c 2,23,-1
 230 -218 l 1,24,25
 214 -218 214 -218 198 -213 c 128,-1,26
 182 -208 182 -208 169.5 -197.5 c 128,-1,27
 157 -187 157 -187 149.5 -171.5 c 128,-1,28
 142 -156 142 -156 142 -134 c 0,0,1
373 12 m 1,29,30
 353 -2 353 -2 332 -8 c 128,-1,31
 311 -14 311 -14 291 -14 c 0,32,33
 269 -14 269 -14 249 -6.5 c 128,-1,34
 229 1 229 1 214 14.5 c 128,-1,35
 199 28 199 28 190.5 47.5 c 128,-1,36
 182 67 182 67 182 91 c 0,37,38
 182 109 182 109 186 126 c 2,39,-1
 295 581 l 1,40,-1
 285 588 l 1,41,-1
 151 496 l 1,42,-1
 88 590 l 1,43,-1
 233 688 l 2,44,45
 253 702 253 702 274 708 c 128,-1,46
 295 714 295 714 315 714 c 0,47,48
 337 714 337 714 357 706.5 c 128,-1,49
 377 699 377 699 392 685.5 c 128,-1,50
 407 672 407 672 415.5 652.5 c 128,-1,51
 424 633 424 633 424 609 c 0,52,53
 424 593 424 593 420 574 c 2,54,-1
 311 119 l 1,55,-1
 321 112 l 1,56,-1
 455 204 l 1,57,-1
 518 110 l 1,58,-1
 373 12 l 1,59,-1
 373 12 l 1,29,30
EndSplineSet
Substitution2: "'ss02' Style Set 2 in Latin lookup 3 subtable" uni013C.alt
Substitution2: "'aalt' Access All Alternates in Latin lookup 0 subtable" uni013C.alt
EndChar

StartChar: lslash
Encoding: 322 322 368
Width: 612
Flags: W
LayerCount: 2
Fore
SplineSet
115 354 m 1,0,-1
 248 388 l 1,1,-1
 295 581 l 1,2,-1
 285 588 l 1,3,-1
 151 496 l 1,4,-1
 88 590 l 1,5,-1
 233 688 l 2,6,7
 253 702 253 702 274 708 c 128,-1,8
 295 714 295 714 315 714 c 0,9,10
 337 714 337 714 357 706.5 c 128,-1,11
 377 699 377 699 392 685.5 c 128,-1,12
 407 672 407 672 415.5 652.5 c 128,-1,13
 424 633 424 633 424 609 c 0,14,15
 424 593 424 593 420 574 c 2,16,-1
 383 422 l 1,17,-1
 462 442 l 1,18,-1
 491 331 l 1,19,-1
 353 296 l 1,20,-1
 311 119 l 1,21,-1
 321 112 l 1,22,-1
 455 204 l 1,23,-1
 518 110 l 1,24,-1
 373 12 l 2,25,26
 353 -2 353 -2 332 -8 c 128,-1,27
 311 -14 311 -14 291 -14 c 0,28,29
 269 -14 269 -14 249 -6.5 c 128,-1,30
 229 1 229 1 214 14.5 c 128,-1,31
 199 28 199 28 190.5 47.5 c 128,-1,32
 182 67 182 67 182 91 c 0,33,34
 182 109 182 109 186 126 c 2,35,-1
 218 262 l 1,36,-1
 144 243 l 1,37,-1
 115 354 l 1,0,-1
EndSplineSet
Substitution2: "'ss02' Style Set 2 in Latin lookup 3 subtable" lslash.alt
Substitution2: "'aalt' Access All Alternates in Latin lookup 0 subtable" lslash.alt
EndChar

StartChar: napostrophe
Encoding: 329 329 378
Width: 612
Flags: W
LayerCount: 2
Fore
SplineSet
104 736 m 0,0,1
 104 775 104 775 130.5 800.5 c 128,-1,2
 157 826 157 826 195 826 c 0,3,4
 213 826 213 826 229.5 819 c 128,-1,5
 246 812 246 812 258.5 799.5 c 128,-1,6
 271 787 271 787 278.5 770.5 c 128,-1,7
 286 754 286 754 286 735 c 0,8,9
 286 730 286 730 285.5 725.5 c 128,-1,10
 285 721 285 721 284 715 c 2,11,-1
 261 607 l 2,12,13
 253 572 253 572 226 555 c 128,-1,14
 199 538 199 538 160 538 c 2,15,-1
 105 538 l 1,16,-1
 105 616 l 1,17,-1
 154 616 l 2,18,19
 171 616 171 616 179.5 620.5 c 128,-1,20
 188 625 188 625 190 639 c 2,21,-1
 192 652 l 1,22,23
 176 652 176 652 160 657 c 128,-1,24
 144 662 144 662 131.5 672.5 c 128,-1,25
 119 683 119 683 111.5 698.5 c 128,-1,26
 104 714 104 714 104 736 c 0,0,1
379 288 m 2,27,28
 383 307 383 307 383 320 c 0,29,30
 383 356 383 356 362 376 c 128,-1,31
 341 396 341 396 305 396 c 0,32,33
 260 396 260 396 228 364 c 128,-1,34
 196 332 196 332 185 278 c 2,35,-1
 126 0 l 1,36,-1
 0 0 l 1,37,-1
 105 496 l 1,38,-1
 226 496 l 1,39,-1
 209 416 l 1,40,-1
 227 416 l 1,41,42
 251 466 251 466 290.5 488 c 128,-1,43
 330 510 330 510 378 510 c 0,44,45
 441 510 441 510 478.5 472 c 128,-1,46
 516 434 516 434 516 365 c 0,47,48
 516 349 516 349 514 335.5 c 128,-1,49
 512 322 512 322 509 306 c 2,50,-1
 469 119 l 1,51,-1
 479 112 l 1,52,-1
 522 142 l 1,53,-1
 585 48 l 1,54,-1
 531 12 l 2,55,56
 493 -14 493 -14 450 -14 c 0,57,58
 428 -14 428 -14 408 -6.5 c 128,-1,59
 388 1 388 1 373 14.5 c 128,-1,60
 358 28 358 28 349 47.5 c 128,-1,61
 340 67 340 67 340 92 c 0,62,63
 340 105 340 105 343 122 c 2,64,-1
 379 288 l 2,27,28
EndSplineSet
EndChar

StartChar: uni01EB
Encoding: 491 491 387
Width: 612
Flags: W
LayerCount: 2
Fore
SplineSet
558 310 m 0,0,1
 558 216 558 216 525.5 147.5 c 128,-1,2
 493 79 493 79 435 39 c 2,3,-1
 295 -58 l 2,4,5
 287 -63 287 -63 287 -72 c 0,6,7
 287 -77 287 -77 291.5 -81.5 c 128,-1,8
 296 -86 296 -86 304 -86 c 2,9,-1
 351 -86 l 1,10,-1
 351 -170 l 1,11,-1
 243 -170 l 2,12,13
 207 -170 207 -170 185.5 -147.5 c 128,-1,14
 164 -125 164 -125 164 -95 c 0,15,16
 164 -76 164 -76 174 -57.5 c 128,-1,17
 184 -39 184 -39 205 -23 c 2,18,-1
 219 -13 l 1,19,20
 180 -9 180 -9 146 6 c 128,-1,21
 112 21 112 21 87 46 c 128,-1,22
 62 71 62 71 47.5 105.5 c 128,-1,23
 33 140 33 140 33 184 c 0,24,25
 33 261 33 261 57 321.5 c 128,-1,26
 81 382 81 382 122.5 424 c 128,-1,27
 164 466 164 466 220.5 488 c 128,-1,28
 277 510 277 510 342 510 c 0,29,30
 389 510 389 510 429 495.5 c 128,-1,31
 469 481 469 481 497.5 455 c 128,-1,32
 526 429 526 429 542 392 c 128,-1,33
 558 355 558 355 558 310 c 0,0,1
265 104 m 0,34,35
 301 105 301 105 331.5 120 c 128,-1,36
 362 135 362 135 383.5 159.5 c 128,-1,37
 405 184 405 184 417 217 c 128,-1,38
 429 250 429 250 429 287 c 0,39,40
 429 339 429 339 401 365.5 c 128,-1,41
 373 392 373 392 326 392 c 0,42,43
 290 392 290 392 260 376.5 c 128,-1,44
 230 361 230 361 208 335.5 c 128,-1,45
 186 310 186 310 174 277 c 128,-1,46
 162 244 162 244 162 208 c 0,47,48
 162 157 162 157 190 130.5 c 128,-1,49
 218 104 218 104 265 104 c 0,34,35
EndSplineSet
EndChar

StartChar: uni01A1
Encoding: 417 417 396
Width: 612
Flags: W
LayerCount: 2
Fore
SplineSet
460 406 m 0,0,1
 460 443 460 443 486.5 469.5 c 128,-1,2
 513 496 513 496 550 496 c 256,3,4
 587 496 587 496 609 472.5 c 128,-1,5
 631 449 631 449 631 413 c 0,6,7
 631 403 631 403 628 388 c 2,8,-1
 606 286 l 2,9,10
 597 243 597 243 570 223.5 c 128,-1,11
 543 204 543 204 498 204 c 2,12,-1
 411 204 l 1,13,14
 388 98 388 98 325 42 c 128,-1,15
 262 -14 262 -14 177 -14 c 0,16,17
 103 -14 103 -14 56.5 33.5 c 128,-1,18
 10 81 10 81 10 169 c 0,19,20
 10 186 10 186 12 204 c 128,-1,21
 14 222 14 222 18 242 c 2,22,-1
 21 254 l 1,23,24
 47 375 47 375 107.5 442.5 c 128,-1,25
 168 510 168 510 269 510 c 0,26,27
 350 510 350 510 391.5 465.5 c 128,-1,28
 433 421 433 421 433 340 c 0,29,30
 433 326 433 326 431.5 312 c 128,-1,31
 430 298 430 298 428 282 c 1,32,-1
 499 282 l 2,33,34
 528 282 528 282 534 312 c 2,35,-1
 536 322 l 1,36,37
 522 322 522 322 508.5 328 c 128,-1,38
 495 334 495 334 484.5 345 c 128,-1,39
 474 356 474 356 467 371.5 c 128,-1,40
 460 387 460 387 460 406 c 0,0,1
196 106 m 0,41,42
 265 106 265 106 288 212 c 2,43,-1
 299 266 l 2,44,45
 303 285 303 285 304.5 297.5 c 128,-1,46
 306 310 306 310 306 322 c 0,47,48
 306 358 306 358 289.5 374 c 128,-1,49
 273 390 273 390 247 390 c 0,50,51
 213 390 213 390 188.5 362.5 c 128,-1,52
 164 335 164 335 152 276 c 2,53,-1
 142 230 l 2,54,55
 136 201 136 201 136 180 c 0,56,57
 136 141 136 141 153 123.5 c 128,-1,58
 170 106 170 106 196 106 c 0,41,42
EndSplineSet
EndChar

StartChar: oslash
Encoding: 248 248 402
Width: 612
Flags: W
LayerCount: 2
Fore
SplineSet
558 310 m 0,0,1
 558 240 558 240 538 180.5 c 128,-1,2
 518 121 518 121 479 78 c 128,-1,3
 440 35 440 35 381.5 10.5 c 128,-1,4
 323 -14 323 -14 246 -14 c 0,5,6
 238 -14 238 -14 231 -13.5 c 128,-1,7
 224 -13 224 -13 216 -12 c 1,8,-1
 184 -73 l 1,9,-1
 93 -18 l 1,10,-1
 115 23 l 1,11,12
 77 48 77 48 55 88.5 c 128,-1,13
 33 129 33 129 33 184 c 0,14,15
 33 261 33 261 57 321.5 c 128,-1,16
 81 382 81 382 122.5 424 c 128,-1,17
 164 466 164 466 220.5 488 c 128,-1,18
 277 510 277 510 342 510 c 0,19,20
 359 510 359 510 377 507 c 1,21,-1
 408 565 l 1,22,-1
 502 515 l 1,23,-1
 478 470 l 1,24,25
 516 444 516 444 537 403 c 128,-1,26
 558 362 558 362 558 310 c 0,0,1
162 208 m 0,27,28
 162 168 162 168 179 142 c 1,29,-1
 314 391 l 1,30,31
 280 388 280 388 252 372 c 128,-1,32
 224 356 224 356 204 331 c 128,-1,33
 184 306 184 306 173 274 c 128,-1,34
 162 242 162 242 162 208 c 0,27,28
429 287 m 0,35,36
 429 324 429 324 413 350 c 1,37,-1
 280 105 l 1,38,39
 313 108 313 108 340.5 124 c 128,-1,40
 368 140 368 140 387.5 164.5 c 128,-1,41
 407 189 407 189 418 220.5 c 128,-1,42
 429 252 429 252 429 287 c 0,35,36
EndSplineSet
EndChar

StartChar: oe
Encoding: 339 339 403
Width: 612
Flags: W
LayerCount: 2
Fore
SplineSet
33 204 m 0,0,1
 33 271 33 271 58.5 327.5 c 128,-1,2
 84 384 84 384 127.5 424.5 c 128,-1,3
 171 465 171 465 228.5 487.5 c 128,-1,4
 286 510 286 510 350 510 c 0,5,6
 402 510 402 510 443 494 c 128,-1,7
 484 478 484 478 512.5 450.5 c 128,-1,8
 541 423 541 423 555.5 385 c 128,-1,9
 570 347 570 347 570 302 c 0,10,11
 570 287 570 287 568 270.5 c 128,-1,12
 566 254 566 254 563 240 c 2,13,-1
 552 188 l 1,14,-1
 360 188 l 1,15,-1
 343 110 l 1,16,17
 389 110 389 110 424 152 c 1,18,-1
 512 88 l 1,19,20
 465 35 465 35 406.5 10.5 c 128,-1,21
 348 -14 348 -14 263 -14 c 0,22,23
 218 -14 218 -14 176.5 0 c 128,-1,24
 135 14 135 14 103 41.5 c 128,-1,25
 71 69 71 69 52 110 c 128,-1,26
 33 151 33 151 33 204 c 0,0,1
275 382 m 1,27,28
 215 359 215 359 188.5 312 c 128,-1,29
 162 265 162 265 162 208 c 0,30,31
 162 174 162 174 177 151 c 128,-1,32
 192 128 192 128 218 116 c 1,33,-1
 275 382 l 1,27,28
451 308 m 1,34,35
 453 314 453 314 453 325 c 0,36,37
 453 349 453 349 439 366.5 c 128,-1,38
 425 384 425 384 402 386 c 1,39,-1
 385 308 l 1,40,-1
 451 308 l 1,34,35
EndSplineSet
EndChar

StartChar: uni0157
Encoding: 343 343 405
Width: 612
Flags: W
LayerCount: 2
Fore
SplineSet
48 -134 m 0,0,1
 48 -115 48 -115 55 -98.5 c 128,-1,2
 62 -82 62 -82 74.5 -70 c 128,-1,3
 87 -58 87 -58 103.5 -51 c 128,-1,4
 120 -44 120 -44 139 -44 c 0,5,6
 157 -44 157 -44 173.5 -51 c 128,-1,7
 190 -58 190 -58 202.5 -70.5 c 128,-1,8
 215 -83 215 -83 222.5 -99.5 c 128,-1,9
 230 -116 230 -116 230 -135 c 0,10,11
 230 -140 230 -140 229.5 -145 c 128,-1,12
 229 -150 229 -150 228 -155 c 2,13,-1
 204 -269 l 2,14,15
 196 -304 196 -304 169 -321 c 128,-1,16
 142 -338 142 -338 103 -338 c 2,17,-1
 55 -338 l 1,18,-1
 55 -260 l 1,19,-1
 97 -260 l 2,20,21
 114 -260 114 -260 122.5 -255.5 c 128,-1,22
 131 -251 131 -251 133 -237 c 2,23,-1
 136 -218 l 1,24,25
 120 -218 120 -218 104 -213 c 128,-1,26
 88 -208 88 -208 75.5 -197.5 c 128,-1,27
 63 -187 63 -187 55.5 -171.5 c 128,-1,28
 48 -156 48 -156 48 -134 c 0,0,1
178 378 m 1,29,-1
 168 384 l 1,30,-1
 89 326 l 1,31,-1
 22 416 l 1,32,-1
 102 476 l 2,33,34
 125 493 125 493 150.5 501.5 c 128,-1,35
 176 510 176 510 199 510 c 0,36,37
 239 510 239 510 269 488 c 128,-1,38
 299 466 299 466 305 426 c 1,39,-1
 323 426 l 1,40,41
 343 468 343 468 379 489 c 128,-1,42
 415 510 415 510 460 510 c 0,43,44
 517 510 517 510 552.5 474.5 c 128,-1,45
 588 439 588 439 588 376 c 0,46,47
 588 363 588 363 586.5 350.5 c 128,-1,48
 585 338 585 338 581 320 c 2,49,-1
 576 298 l 1,50,-1
 442 288 l 1,51,-1
 445 302 l 2,52,53
 448 317 448 317 448 329 c 0,54,55
 448 358 448 358 432 375 c 128,-1,56
 416 392 416 392 384 392 c 0,57,58
 344 392 344 392 320.5 365 c 128,-1,59
 297 338 297 338 286 288 c 2,60,-1
 250 120 l 1,61,-1
 370 120 l 1,62,-1
 370 0 l 1,63,-1
 28 0 l 1,64,-1
 28 120 l 1,65,-1
 124 120 l 1,66,-1
 178 378 l 1,29,-1
EndSplineSet
Substitution2: "'ss02' Style Set 2 in Latin lookup 3 subtable" uni0157.alt
Substitution2: "'aalt' Access All Alternates in Latin lookup 0 subtable" uni0157.alt
EndChar

StartChar: scedilla
Encoding: 351 351 414
Width: 612
Flags: W
LayerCount: 2
Fore
SplineSet
322 396 m 0,0,1
 311 396 311 396 299.5 393.5 c 128,-1,2
 288 391 288 391 278 386 c 128,-1,3
 268 381 268 381 261.5 372.5 c 128,-1,4
 255 364 255 364 255 352 c 0,5,6
 255 331 255 331 279 321 c 128,-1,7
 303 311 303 311 361 304 c 0,8,9
 426 296 426 296 466 264.5 c 128,-1,10
 506 233 506 233 506 174 c 0,11,12
 506 89 506 89 447 39 c 128,-1,13
 388 -11 388 -11 285 -14 c 1,14,-1
 271 -46 l 1,15,-1
 283 -46 l 1,16,17
 291 -37 291 -37 303 -30.5 c 128,-1,18
 315 -24 315 -24 334 -24 c 0,19,20
 363 -24 363 -24 382 -44 c 128,-1,21
 401 -64 401 -64 401 -102 c 0,22,23
 401 -153 401 -153 369.5 -182.5 c 128,-1,24
 338 -212 338 -212 280 -212 c 0,25,26
 246 -212 246 -212 224 -206.5 c 128,-1,27
 202 -201 202 -201 187 -192 c 1,28,-1
 224 -123 l 1,29,30
 234 -130 234 -130 246.5 -134 c 128,-1,31
 259 -138 259 -138 275 -138 c 0,32,33
 292 -138 292 -138 303.5 -130.5 c 128,-1,34
 315 -123 315 -123 315 -109 c 0,35,36
 315 -90 315 -90 297 -90 c 0,37,38
 283 -90 283 -90 276 -104 c 1,39,-1
 179 -104 l 1,40,-1
 179 -92 l 1,41,-1
 209 -7 l 1,42,43
 171 2 171 2 144 19 c 128,-1,44
 117 36 117 36 99 58 c 128,-1,45
 81 80 81 80 72 104 c 128,-1,46
 63 128 63 128 62 150 c 1,47,-1
 186 180 l 1,48,49
 189 147 189 147 214 123.5 c 128,-1,50
 239 100 239 100 290 100 c 0,51,52
 325 100 325 100 351 111 c 128,-1,53
 377 122 377 122 377 150 c 0,54,55
 377 171 377 171 357 183.5 c 128,-1,56
 337 196 337 196 283 201 c 0,57,58
 211 207 211 207 168.5 242 c 128,-1,59
 126 277 126 277 126 335 c 0,60,61
 126 377 126 377 143.5 410 c 128,-1,62
 161 443 161 443 190 465 c 128,-1,63
 219 487 219 487 257.5 498.5 c 128,-1,64
 296 510 296 510 338 510 c 0,65,66
 390 510 390 510 425 496 c 128,-1,67
 460 482 460 482 482 461 c 128,-1,68
 504 440 504 440 514.5 415.5 c 128,-1,69
 525 391 525 391 528 370 c 1,70,-1
 406 338 l 1,71,72
 402 365 402 365 381 380.5 c 128,-1,73
 360 396 360 396 322 396 c 0,0,1
EndSplineSet
Substitution2: "'locl' Localized Forms in Latin lookup 12 subtable" uni0219
Substitution2: "'locl' Localized Forms in Latin lookup 11 subtable" uni0219
Substitution2: "'aalt' Access All Alternates in Latin lookup 0 subtable" uni0219
EndChar

StartChar: germandbls
Encoding: 223 223 417
Width: 612
Flags: W
LayerCount: 2
Fore
SplineSet
350 346 m 1,0,-1
 377 346 l 2,1,2
 411 346 411 346 442 336 c 128,-1,3
 473 326 473 326 496.5 306 c 128,-1,4
 520 286 520 286 534 256.5 c 128,-1,5
 548 227 548 227 548 187 c 0,6,7
 548 145 548 145 535 108.5 c 128,-1,8
 522 72 522 72 496.5 45 c 128,-1,9
 471 18 471 18 432.5 2 c 128,-1,10
 394 -14 394 -14 343 -14 c 0,11,12
 303 -14 303 -14 273 -2 c 128,-1,13
 243 10 243 10 223 30.5 c 128,-1,14
 203 51 203 51 193 77 c 128,-1,15
 183 103 183 103 183 132 c 1,16,-1
 306 154 l 1,17,18
 306 131 306 131 317.5 118.5 c 128,-1,19
 329 106 329 106 352 106 c 0,20,21
 382 106 382 106 400 124.5 c 128,-1,22
 418 143 418 143 418 173 c 0,23,24
 418 205 418 205 396 221.5 c 128,-1,25
 374 238 374 238 336 238 c 2,26,-1
 266 238 l 1,27,-1
 266 466 l 1,28,-1
 328 466 l 2,29,30
 364 466 364 466 389.5 482.5 c 128,-1,31
 415 499 415 499 415 536 c 0,32,33
 415 561 415 561 396 577.5 c 128,-1,34
 377 594 377 594 345 594 c 0,35,36
 251 594 251 594 231 496 c 2,37,-1
 125 0 l 1,38,-1
 0 0 l 1,39,-1
 79 376 l 1,40,-1
 31 376 l 1,41,-1
 31 496 l 1,42,-1
 105 496 l 1,43,-1
 108 514 l 2,44,45
 117 565 117 565 138.5 602.5 c 128,-1,46
 160 640 160 640 192 665 c 128,-1,47
 224 690 224 690 264.5 702 c 128,-1,48
 305 714 305 714 352 714 c 0,49,50
 440 714 440 714 492.5 672.5 c 128,-1,51
 545 631 545 631 545 553 c 0,52,53
 545 510 545 510 530.5 476.5 c 128,-1,54
 516 443 516 443 490 419.5 c 128,-1,55
 464 396 464 396 428 382 c 128,-1,56
 392 368 392 368 350 364 c 1,57,-1
 350 346 l 1,0,-1
EndSplineSet
EndChar

StartChar: longs
Encoding: 383 383 418
Width: 612
Flags: W
LayerCount: 2
Fore
SplineSet
239 376 m 1,0,-1
 98 376 l 1,1,-1
 98 496 l 1,2,-1
 265 496 l 1,3,-1
 287 598 l 2,4,5
 291 619 291 619 303 638 c 128,-1,6
 315 657 315 657 331.5 670.5 c 128,-1,7
 348 684 348 684 368.5 692 c 128,-1,8
 389 700 389 700 410 700 c 2,9,-1
 586 700 l 1,10,-1
 586 580 l 1,11,-1
 436 580 l 2,12,13
 409 580 409 580 403 550 c 2,14,-1
 254 -120 l 2,15,16
 243 -169 243 -169 213 -190.5 c 128,-1,17
 183 -212 183 -212 148 -212 c 0,18,19
 119 -212 119 -212 91.5 -198.5 c 128,-1,20
 64 -185 64 -185 49 -160 c 2,21,-1
 -14 -59 l 1,22,-1
 83 0 l 1,23,-1
 127 -76 l 1,24,-1
 139 -74 l 1,25,-1
 239 376 l 1,0,-1
EndSplineSet
EndChar

StartChar: tcaron
Encoding: 357 357 419
Width: 612
Flags: W
LayerCount: 2
Fore
SplineSet
218 376 m 1,0,-1
 78 376 l 1,1,-1
 78 496 l 1,2,-1
 244 496 l 1,3,-1
 290 714 l 1,4,-1
 416 714 l 1,5,-1
 370 496 l 1,6,-1
 414 496 l 1,7,-1
 414 376 l 1,8,-1
 344 376 l 1,9,-1
 288 119 l 1,10,-1
 298 112 l 1,11,-1
 432 204 l 1,12,-1
 495 110 l 1,13,-1
 350 12 l 2,14,15
 312 -14 312 -14 269 -14 c 0,16,17
 247 -14 247 -14 227 -6.5 c 128,-1,18
 207 1 207 1 192 15 c 128,-1,19
 177 29 177 29 168 49 c 128,-1,20
 159 69 159 69 159 94 c 0,21,22
 159 102 159 102 160 108.5 c 128,-1,23
 161 115 161 115 163 126 c 2,24,-1
 218 376 l 1,0,-1
450 606 m 0,25,26
 450 626 450 626 457.5 643.5 c 128,-1,27
 465 661 465 661 478 673.5 c 128,-1,28
 491 686 491 686 508 693 c 128,-1,29
 525 700 525 700 545 700 c 0,30,31
 564 700 564 700 581.5 692.5 c 128,-1,32
 599 685 599 685 612 672.5 c 128,-1,33
 625 660 625 660 632.5 642.5 c 128,-1,34
 640 625 640 625 640 605 c 0,35,36
 640 600 640 600 639.5 595 c 128,-1,37
 639 590 639 590 638 585 c 2,38,-1
 609 449 l 2,39,40
 601 411 601 411 573 393.5 c 128,-1,41
 545 376 545 376 504 376 c 2,42,-1
 450 376 l 1,43,-1
 450 454 l 1,44,-1
 498 454 l 2,45,46
 529 454 529 454 535 482 c 2,47,-1
 542 516 l 1,48,49
 525 516 525 516 508.5 521.5 c 128,-1,50
 492 527 492 527 479 538 c 128,-1,51
 466 549 466 549 458 566 c 128,-1,52
 450 583 450 583 450 606 c 0,25,26
EndSplineSet
EndChar

StartChar: uni0163
Encoding: 355 355 420
Width: 612
Flags: W
LayerCount: 2
Fore
SplineSet
218 376 m 1,0,-1
 78 376 l 1,1,-1
 78 496 l 1,2,-1
 244 496 l 1,3,-1
 290 714 l 1,4,-1
 416 714 l 1,5,-1
 370 496 l 1,6,-1
 542 496 l 1,7,-1
 542 376 l 1,8,-1
 344 376 l 1,9,-1
 288 119 l 1,10,-1
 298 112 l 1,11,-1
 432 204 l 1,12,-1
 495 110 l 1,13,-1
 350 12 l 2,14,15
 330 -2 330 -2 309.5 -8 c 128,-1,16
 289 -14 289 -14 269 -14 c 2,17,-1
 265 -14 l 1,18,-1
 252 -46 l 1,19,-1
 264 -46 l 1,20,21
 272 -37 272 -37 284 -30.5 c 128,-1,22
 296 -24 296 -24 315 -24 c 0,23,24
 344 -24 344 -24 363 -44 c 128,-1,25
 382 -64 382 -64 382 -102 c 0,26,27
 382 -153 382 -153 350.5 -182.5 c 128,-1,28
 319 -212 319 -212 261 -212 c 0,29,30
 227 -212 227 -212 205 -206.5 c 128,-1,31
 183 -201 183 -201 168 -192 c 1,32,-1
 205 -123 l 1,33,34
 215 -130 215 -130 227.5 -134 c 128,-1,35
 240 -138 240 -138 256 -138 c 0,36,37
 273 -138 273 -138 284.5 -130.5 c 128,-1,38
 296 -123 296 -123 296 -109 c 0,39,40
 296 -90 296 -90 278 -90 c 0,41,42
 264 -90 264 -90 257 -104 c 1,43,-1
 160 -104 l 1,44,-1
 160 -92 l 1,45,-1
 196 10 l 1,46,47
 179 24 179 24 169 45.5 c 128,-1,48
 159 67 159 67 159 94 c 0,49,50
 159 102 159 102 160 108.5 c 128,-1,51
 161 115 161 115 163 126 c 2,52,-1
 218 376 l 1,0,-1
EndSplineSet
Substitution2: "'locl' Localized Forms in Latin lookup 12 subtable" uni021B
Substitution2: "'locl' Localized Forms in Latin lookup 11 subtable" uni021B
Substitution2: "'aalt' Access All Alternates in Latin lookup 0 subtable" uni021B
EndChar

StartChar: tbar
Encoding: 359 359 425
Width: 612
Flags: W
LayerCount: 2
Fore
SplineSet
179 202 m 1,0,-1
 84 202 l 1,1,-1
 84 316 l 1,2,-1
 204 316 l 1,3,-1
 218 376 l 1,4,-1
 78 376 l 1,5,-1
 78 496 l 1,6,-1
 244 496 l 1,7,-1
 290 714 l 1,8,-1
 416 714 l 1,9,-1
 370 496 l 1,10,-1
 542 496 l 1,11,-1
 542 376 l 1,12,-1
 344 376 l 1,13,-1
 331 316 l 1,14,-1
 378 316 l 1,15,-1
 378 202 l 1,16,-1
 306 202 l 1,17,-1
 288 119 l 1,18,-1
 298 112 l 1,19,-1
 432 204 l 1,20,-1
 495 110 l 1,21,-1
 350 12 l 2,22,23
 312 -14 312 -14 269 -14 c 0,24,25
 247 -14 247 -14 227 -6.5 c 128,-1,26
 207 1 207 1 192 15 c 128,-1,27
 177 29 177 29 168 49 c 128,-1,28
 159 69 159 69 159 94 c 0,29,30
 159 102 159 102 160 108.5 c 128,-1,31
 161 115 161 115 163 126 c 2,32,-1
 179 202 l 1,0,-1
EndSplineSet
EndChar

StartChar: uogonek
Encoding: 371 371 436
Width: 612
Flags: W
LayerCount: 2
Fore
SplineSet
223 496 m 1,0,-1
 161 208 l 2,1,2
 157 191 157 191 157 175 c 0,3,4
 157 137 157 137 178 118.5 c 128,-1,5
 199 100 199 100 234 100 c 0,6,7
 287 100 287 100 315.5 134.5 c 128,-1,8
 344 169 344 169 358 232 c 2,9,-1
 414 496 l 1,10,-1
 540 496 l 1,11,-1
 458 118 l 1,12,-1
 469 112 l 1,13,-1
 505 138 l 1,14,-1
 568 46 l 1,15,-1
 424 -58 l 2,16,17
 416 -64 416 -64 416 -72 c 0,18,19
 416 -77 416 -77 420.5 -81.5 c 128,-1,20
 425 -86 425 -86 433 -86 c 2,21,-1
 505 -86 l 1,22,-1
 505 -170 l 1,23,-1
 372 -170 l 2,24,25
 336 -170 336 -170 315 -147.5 c 128,-1,26
 294 -125 294 -125 294 -96 c 0,27,28
 294 -77 294 -77 303.5 -58 c 128,-1,29
 313 -39 313 -39 334 -23 c 2,30,-1
 373 7 l 1,31,32
 357 19 357 19 346.5 37 c 128,-1,33
 336 55 336 55 334 78 c 1,34,-1
 316 78 l 1,35,36
 294 27 294 27 256.5 6.5 c 128,-1,37
 219 -14 219 -14 172 -14 c 0,38,39
 107 -14 107 -14 66 25.5 c 128,-1,40
 25 65 25 65 25 136 c 0,41,42
 25 161 25 161 31 190 c 2,43,-1
 97 496 l 1,44,-1
 223 496 l 1,0,-1
EndSplineSet
EndChar

StartChar: uni01D6
Encoding: 470 470 437
Width: 612
Flags: W
LayerCount: 2
Fore
SplineSet
563 752 m 1,0,-1
 159 752 l 1,1,-1
 159 854 l 1,2,-1
 563 854 l 1,3,-1
 563 752 l 1,0,-1
223 496 m 1,4,-1
 161 208 l 2,5,6
 157 191 157 191 157 175 c 0,7,8
 157 137 157 137 178 118.5 c 128,-1,9
 199 100 199 100 234 100 c 0,10,11
 287 100 287 100 315.5 134.5 c 128,-1,12
 344 169 344 169 358 232 c 2,13,-1
 414 496 l 1,14,-1
 540 496 l 1,15,-1
 458 118 l 1,16,-1
 469 112 l 1,17,-1
 505 138 l 1,18,-1
 568 46 l 1,19,-1
 521 12 l 2,20,21
 502 -2 502 -2 481.5 -8 c 128,-1,22
 461 -14 461 -14 441 -14 c 0,23,24
 400 -14 400 -14 369 9.5 c 128,-1,25
 338 33 338 33 334 78 c 1,26,-1
 316 78 l 1,27,28
 294 27 294 27 256.5 6.5 c 128,-1,29
 219 -14 219 -14 172 -14 c 0,30,31
 107 -14 107 -14 66 25.5 c 128,-1,32
 25 65 25 65 25 136 c 0,33,34
 25 161 25 161 31 190 c 2,35,-1
 97 496 l 1,36,-1
 223 496 l 1,4,-1
306 627 m 256,37,38
 306 607 306 607 298.5 589.5 c 128,-1,39
 291 572 291 572 278 559.5 c 128,-1,40
 265 547 265 547 247.5 539.5 c 128,-1,41
 230 532 230 532 211 532 c 0,42,43
 191 532 191 532 174 539.5 c 128,-1,44
 157 547 157 547 144 559.5 c 128,-1,45
 131 572 131 572 123.5 589.5 c 128,-1,46
 116 607 116 607 116 627 c 256,47,48
 116 647 116 647 123.5 664.5 c 128,-1,49
 131 682 131 682 144 694.5 c 128,-1,50
 157 707 157 707 174 714.5 c 128,-1,51
 191 722 191 722 211 722 c 0,52,53
 230 722 230 722 247.5 714.5 c 128,-1,54
 265 707 265 707 278 694.5 c 128,-1,55
 291 682 291 682 298.5 664.5 c 128,-1,56
 306 647 306 647 306 627 c 256,37,38
544 627 m 256,57,58
 544 607 544 607 536.5 589.5 c 128,-1,59
 529 572 529 572 516 559.5 c 128,-1,60
 503 547 503 547 485.5 539.5 c 128,-1,61
 468 532 468 532 449 532 c 0,62,63
 429 532 429 532 412 539.5 c 128,-1,64
 395 547 395 547 382 559.5 c 128,-1,65
 369 572 369 572 361.5 589.5 c 128,-1,66
 354 607 354 607 354 627 c 256,67,68
 354 647 354 647 361.5 664.5 c 128,-1,69
 369 682 369 682 382 694.5 c 128,-1,70
 395 707 395 707 412 714.5 c 128,-1,71
 429 722 429 722 449 722 c 0,72,73
 468 722 468 722 485.5 714.5 c 128,-1,74
 503 707 503 707 516 694.5 c 128,-1,75
 529 682 529 682 536.5 664.5 c 128,-1,76
 544 647 544 647 544 627 c 256,57,58
EndSplineSet
EndChar

StartChar: uni01B0
Encoding: 432 432 443
Width: 612
Flags: W
LayerCount: 2
Fore
SplineSet
475 406 m 0,0,1
 475 443 475 443 501.5 469.5 c 128,-1,2
 528 496 528 496 565 496 c 256,3,4
 602 496 602 496 624 472.5 c 128,-1,5
 646 449 646 449 646 413 c 0,6,7
 646 407 646 407 645.5 401.5 c 128,-1,8
 645 396 645 396 643 388 c 2,9,-1
 621 286 l 2,10,11
 612 243 612 243 585 223.5 c 128,-1,12
 558 204 558 204 513 204 c 2,13,-1
 399 204 l 1,14,-1
 356 0 l 1,15,-1
 230 0 l 1,16,-1
 240 48 l 1,17,-1
 222 48 l 1,18,19
 208 21 208 21 179.5 3.5 c 128,-1,20
 151 -14 151 -14 109 -14 c 0,21,22
 88 -14 88 -14 68.5 -7 c 128,-1,23
 49 0 49 0 34 14.5 c 128,-1,24
 19 29 19 29 9.5 51 c 128,-1,25
 0 73 0 73 0 104 c 0,26,27
 0 126 0 126 6 153 c 2,28,-1
 78 496 l 1,29,-1
 204 496 l 1,30,-1
 135 174 l 2,31,32
 133 166 133 166 133 162 c 128,-1,33
 133 158 133 158 133 153 c 0,34,35
 133 127 133 127 148 113.5 c 128,-1,36
 163 100 163 100 190 100 c 0,37,38
 224 100 224 100 242.5 122 c 128,-1,39
 261 144 261 144 269 180 c 2,40,-1
 336 496 l 1,41,-1
 462 496 l 1,42,-1
 416 282 l 1,43,-1
 514 282 l 2,44,45
 543 282 543 282 549 312 c 2,46,-1
 551 322 l 1,47,48
 537 322 537 322 523.5 328 c 128,-1,49
 510 334 510 334 499.5 345 c 128,-1,50
 489 356 489 356 482 371.5 c 128,-1,51
 475 387 475 387 475 406 c 0,0,1
EndSplineSet
EndChar

StartChar: uni1EF5
Encoding: 7925 7925 458
Width: 612
Flags: W
LayerCount: 2
Fore
SplineSet
228 208 m 2,0,1
 226 201 226 201 225 193 c 128,-1,2
 224 185 224 185 224 177 c 0,3,4
 224 139 224 139 246 119.5 c 128,-1,5
 268 100 268 100 306 100 c 0,6,7
 360 100 360 100 389 135 c 128,-1,8
 418 170 418 170 432 236 c 2,9,-1
 487 496 l 1,10,-1
 613 496 l 1,11,-1
 482 -122 l 2,12,13
 475 -156 475 -156 449 -178 c 128,-1,14
 423 -200 423 -200 389 -200 c 2,15,-1
 224 -200 l 1,16,-1
 224 -80 l 1,17,-1
 338 -80 l 2,18,19
 365 -80 365 -80 371 -50 c 2,20,-1
 397 72 l 1,21,-1
 379 72 l 1,22,23
 357 27 357 27 323 6.5 c 128,-1,24
 289 -14 289 -14 238 -14 c 0,25,26
 208 -14 208 -14 182 -3.5 c 128,-1,27
 156 7 156 7 136 26.5 c 128,-1,28
 116 46 116 46 104.5 74.5 c 128,-1,29
 93 103 93 103 93 140 c 0,30,31
 93 165 93 165 99 192 c 2,32,-1
 138 377 l 1,33,-1
 128 384 l 1,34,-1
 68 342 l 1,35,-1
 5 436 l 1,36,-1
 78 485 l 2,37,38
 97 498 97 498 117 504 c 128,-1,39
 137 510 137 510 157 510 c 0,40,41
 179 510 179 510 199 502.5 c 128,-1,42
 219 495 219 495 234 481.5 c 128,-1,43
 249 468 249 468 258 448.5 c 128,-1,44
 267 429 267 429 267 404 c 0,45,46
 267 390 267 390 264 374 c 2,47,-1
 228 208 l 2,0,1
188 -140 m 256,48,49
 188 -160 188 -160 180.5 -177.5 c 128,-1,50
 173 -195 173 -195 160 -207.5 c 128,-1,51
 147 -220 147 -220 129.5 -227.5 c 128,-1,52
 112 -235 112 -235 93 -235 c 0,53,54
 73 -235 73 -235 56 -227.5 c 128,-1,55
 39 -220 39 -220 26 -207.5 c 128,-1,56
 13 -195 13 -195 5.5 -177.5 c 128,-1,57
 -2 -160 -2 -160 -2 -140 c 256,58,59
 -2 -120 -2 -120 5.5 -102.5 c 128,-1,60
 13 -85 13 -85 26 -72.5 c 128,-1,61
 39 -60 39 -60 56 -52.5 c 128,-1,62
 73 -45 73 -45 93 -45 c 0,63,64
 112 -45 112 -45 129.5 -52.5 c 128,-1,65
 147 -60 147 -60 160 -72.5 c 128,-1,66
 173 -85 173 -85 180.5 -102.5 c 128,-1,67
 188 -120 188 -120 188 -140 c 256,48,49
EndSplineSet
Substitution2: "'ss02' Style Set 2 in Latin lookup 3 subtable" uni1EF5.alt
Substitution2: "'aalt' Access All Alternates in Latin lookup 0 subtable" uni1EF5.alt
EndChar

StartChar: thorn
Encoding: 254 254 465
Width: 612
Flags: W
LayerCount: 2
Fore
SplineSet
82 -200 m 1,0,-1
 -44 -200 l 1,1,-1
 150 714 l 1,2,-1
 276 714 l 1,3,-1
 212 424 l 1,4,-1
 230 424 l 1,5,6
 254 466 254 466 291 488 c 128,-1,7
 328 510 328 510 384 510 c 0,8,9
 418 510 418 510 449 497 c 128,-1,10
 480 484 480 484 503.5 459 c 128,-1,11
 527 434 527 434 540.5 397.5 c 128,-1,12
 554 361 554 361 554 314 c 0,13,14
 554 255 554 255 539.5 196 c 128,-1,15
 525 137 525 137 494 90.5 c 128,-1,16
 463 44 463 44 414.5 15 c 128,-1,17
 366 -14 366 -14 298 -14 c 0,18,19
 266 -14 266 -14 242 -6.5 c 128,-1,20
 218 1 218 1 201 13 c 128,-1,21
 184 25 184 25 173 40.5 c 128,-1,22
 162 56 162 56 158 72 c 1,23,-1
 140 72 l 1,24,-1
 82 -200 l 1,0,-1
274 106 m 0,25,26
 311 106 311 106 339 119.5 c 128,-1,27
 367 133 367 133 385.5 155.5 c 128,-1,28
 404 178 404 178 413 208.5 c 128,-1,29
 422 239 422 239 422 273 c 0,30,31
 422 325 422 325 395 357.5 c 128,-1,32
 368 390 368 390 320 390 c 0,33,34
 286 390 286 390 259 376.5 c 128,-1,35
 232 363 232 363 213 339 c 128,-1,36
 194 315 194 315 183.5 282 c 128,-1,37
 173 249 173 249 173 210 c 0,38,39
 173 163 173 163 200 134.5 c 128,-1,40
 227 106 227 106 274 106 c 0,25,26
EndSplineSet
EndChar

StartChar: eng
Encoding: 331 331 466
Width: 612
Flags: W
LayerCount: 2
Fore
SplineSet
396 288 m 2,0,1
 399 304 399 304 399 315 c 0,2,3
 399 353 399 353 375 374.5 c 128,-1,4
 351 396 351 396 313 396 c 0,5,6
 268 396 268 396 232 364 c 128,-1,7
 196 332 196 332 185 278 c 2,8,-1
 126 0 l 1,9,-1
 0 0 l 1,10,-1
 105 496 l 1,11,-1
 231 496 l 1,12,-1
 215 422 l 1,13,-1
 233 422 l 1,14,15
 259 467 259 467 295 488.5 c 128,-1,16
 331 510 331 510 384 510 c 0,17,18
 449 510 449 510 490.5 471.5 c 128,-1,19
 532 433 532 433 532 361 c 0,20,21
 532 336 532 336 526 306 c 2,22,-1
 438 -98 l 2,23,24
 427 -150 427 -150 394 -175 c 128,-1,25
 361 -200 361 -200 316 -200 c 2,26,-1
 205 -200 l 1,27,-1
 205 -80 l 1,28,-1
 286 -80 l 2,29,30
 315 -80 315 -80 323 -47 c 2,31,-1
 396 288 l 2,0,1
EndSplineSet
EndChar

StartChar: uni0237
Encoding: 567 567 467
Width: 612
Flags: W
LayerCount: 2
Fore
SplineSet
357 -98 m 2,0,1
 346 -150 346 -150 313 -175 c 128,-1,2
 280 -200 280 -200 235 -200 c 2,3,-1
 0 -200 l 1,4,-1
 0 -80 l 1,5,-1
 205 -80 l 2,6,7
 234 -80 234 -80 242 -47 c 2,8,-1
 336 377 l 1,9,-1
 326 384 l 1,10,-1
 192 292 l 1,11,-1
 129 386 l 1,12,-1
 274 484 l 2,13,14
 313 510 313 510 356 510 c 0,15,16
 378 510 378 510 397.5 502.5 c 128,-1,17
 417 495 417 495 432 481.5 c 128,-1,18
 447 468 447 468 455.5 447.5 c 128,-1,19
 464 427 464 427 464 402 c 0,20,21
 464 385 464 385 461 370 c 2,22,-1
 357 -98 l 2,0,1
EndSplineSet
EndChar

